<svg width="23" height="22" viewBox="0 0 23 22" fill="none" xmlns="http://www.w3.org/2000/svg">
<g clip-path="url(#clip0_7_5152)">
<path d="M19.9069 16.6933H6.42718C6.20491 16.6933 6.00117 16.5822 5.88077 16.3923C5.76037 16.2071 5.74648 15.971 5.83909 15.7718L6.58462 14.1511L4.22301 3.18585H1.71323C1.35667 3.18585 1.06494 2.89412 1.06494 2.53757C1.06494 2.18101 1.35667 1.88928 1.71323 1.88928H4.74627C5.05189 1.88928 5.31584 2.10229 5.38066 2.39865L7.89971 14.0863C7.9275 14.2252 7.91361 14.3688 7.85341 14.4938L7.44128 15.3921H19.9069C20.2634 15.3921 20.5552 15.6839 20.5552 16.0404C20.5552 16.397 20.2634 16.6933 19.9069 16.6933Z" fill="white"/>
<path d="M21.6804 4.19067V10.9699L6.93659 12.7064L5.11676 4.25087L21.6804 4.19067Z" fill="white"/>
<path d="M6.93656 13.3547C6.63557 13.3547 6.36699 13.1463 6.30217 12.8407L4.48234 4.38519C4.44066 4.19533 4.48697 3.99622 4.612 3.84341C4.73702 3.6906 4.91762 3.60262 5.11673 3.60262L21.6804 3.54242C21.8517 3.54242 22.0184 3.61188 22.1388 3.73227C22.2592 3.85267 22.3287 4.01937 22.3287 4.1907V10.9699C22.3287 11.2987 22.0833 11.5765 21.7545 11.6136L7.01065 13.35C6.9875 13.3547 6.96434 13.3547 6.93656 13.3547ZM5.91783 4.89456L7.44592 11.9933L21.0321 10.3957V4.84362L5.91783 4.89456Z" fill="white"/>
<path d="M7.30234 19.9486C8.2 19.9486 8.92769 19.2209 8.92769 18.3233C8.92769 17.4256 8.2 16.6979 7.30234 16.6979C6.40469 16.6979 5.677 17.4256 5.677 18.3233C5.677 19.2209 6.40469 19.9486 7.30234 19.9486Z" fill="white"/>
<path d="M19.0085 19.9486C19.9062 19.9486 20.6339 19.2209 20.6339 18.3233C20.6339 17.4256 19.9062 16.6979 19.0085 16.6979C18.1109 16.6979 17.3832 17.4256 17.3832 18.3233C17.3832 19.2209 18.1109 19.9486 19.0085 19.9486Z" fill="white"/>
</g>
<defs>
<clipPath id="clip0_7_5152">
<rect width="22" height="22" fill="white" transform="translate(0.5)"/>
</clipPath>
</defs>
</svg>
