<svg width="13" height="13" viewBox="0 0 13 13" fill="none" xmlns="http://www.w3.org/2000/svg">
<path d="M4.47051 6.97478C4.32487 6.82989 4.08886 6.82989 3.94318 6.97478C3.79758 7.11972 3.79758 7.35473 3.94318 7.4997L5.20682 8.75757C5.10999 8.93721 5.05492 9.14234 5.05492 9.36006C5.05492 10.0651 5.63113 10.6387 6.3394 10.6387C7.04767 10.6387 7.62388 10.0651 7.62388 9.36006C7.62388 9.14234 7.56877 8.93721 7.47198 8.75757L10.0217 6.21953C10.1673 6.07459 10.1673 5.83958 10.0217 5.69461C9.87602 5.54971 9.64001 5.54971 9.49433 5.69461L6.94465 8.23265C6.76419 8.13626 6.55812 8.08144 6.3394 8.08144C6.12068 8.08144 5.91461 8.1363 5.73415 8.23265L4.47051 6.97478ZM6.87817 9.36006C6.87817 9.65579 6.63649 9.89637 6.3394 9.89637C6.04231 9.89637 5.80063 9.65579 5.80063 9.36006C5.80063 9.06432 6.04231 8.82374 6.3394 8.82374C6.63649 8.82374 6.87817 9.06432 6.87817 9.36006Z" fill="#80B951"/>
<path d="M11.5104 13H1.48962C0.667892 13 0 12.3321 0 11.5104V2.57288C0 1.75116 0.667892 1.08337 1.48962 1.08337H11.5104C12.3321 1.08337 13 1.75116 13 2.57288V11.5104C13 12.3321 12.3321 13 11.5104 13ZM1.48962 1.89587C1.11639 1.89587 0.8125 2.19966 0.8125 2.57288V11.5104C0.8125 11.8836 1.11639 12.1875 1.48962 12.1875H11.5104C11.8836 12.1875 12.1875 11.8836 12.1875 11.5104V2.57288C12.1875 2.19966 11.8836 1.89587 11.5104 1.89587H1.48962Z" fill="#80B951"/>
<path d="M12.5938 5.14587H0.40625C0.181999 5.14587 0 4.96387 0 4.73962C0 4.51537 0.181999 4.33337 0.40625 4.33337H12.5938C12.818 4.33337 13 4.51537 13 4.73962C13 4.96387 12.818 5.14587 12.5938 5.14587Z" fill="#80B951"/>
<path d="M3.11462 3.25C2.89037 3.25 2.70837 3.068 2.70837 2.84375V0.40625C2.70837 0.181999 2.89037 0 3.11462 0C3.33887 0 3.52087 0.181999 3.52087 0.40625V2.84375C3.52087 3.068 3.33887 3.25 3.11462 3.25Z" fill="#80B951"/>
<path d="M9.88538 3.25C9.66113 3.25 9.47913 3.068 9.47913 2.84375V0.40625C9.47913 0.181999 9.66113 0 9.88538 0C10.1096 0 10.2916 0.181999 10.2916 0.40625V2.84375C10.2916 3.068 10.1096 3.25 9.88538 3.25Z" fill="#80B951"/>
</svg>
