<svg width="24" height="24" viewBox="0 0 24 24" fill="none" xmlns="http://www.w3.org/2000/svg">
<path fill-rule="evenodd" clip-rule="evenodd" d="M12 12.5C15.0376 12.5 17.5 10.0376 17.5 7C17.5 3.96243 15.0376 1.5 12 1.5C8.96243 1.5 6.5 3.96243 6.5 7C6.5 10.0376 8.96243 12.5 12 12.5ZM12 14C15.866 14 19 10.866 19 7C19 3.13401 15.866 0 12 0C8.13401 0 5 3.13401 5 7C5 10.866 8.13401 14 12 14Z" fill="#3A3A3A"/>
<path fill-rule="evenodd" clip-rule="evenodd" d="M22.4836 24C22.4945 23.8341 22.5 23.6674 22.5 23.5C22.5 18.7113 17.9934 14.5 12 14.5C6.0066 14.5 1.5 18.7113 1.5 23.5C1.5 23.6674 1.50551 23.8341 1.5164 24H0.0133658C0.00448842 23.8343 0 23.6676 0 23.5C0 17.701 5.37258 13 12 13C18.6274 13 24 17.701 24 23.5C24 23.6676 23.9955 23.8343 23.9866 24H22.4836Z" fill="#3A3A3A"/>
</svg>
