<svg version="1.1" xmlns="http://www.w3.org/2000/svg" width="384" height="448" viewBox="0 0 384 448">
<path fill="#fff" d="M88 352v32h-88v-32h88zM176 320c8.75 0 16 7.25 16 16v64c0 8.75-7.25 16-16 16h-64c-8.75 0-16-7.25-16-16v-64c0-8.75 7.25-16 16-16h64zM216 224v32h-216v-32h216zM56 96v32h-56v-32h56zM384 352v32h-184v-32h184zM144 64c8.75 0 16 7.25 16 16v64c0 8.75-7.25 16-16 16h-64c-8.75 0-16-7.25-16-16v-64c0-8.75 7.25-16 16-16h64zM304 192c8.75 0 16 7.25 16 16v64c0 8.75-7.25 16-16 16h-64c-8.75 0-16-7.25-16-16v-64c0-8.75 7.25-16 16-16h64zM384 224v32h-56v-32h56zM384 96v32h-216v-32h216z"/>
</svg>
