<?xml version="1.0" encoding="utf-8"?>
<svg width="173" height="158" viewBox="0 0 173 158" xmlns="http://www.w3.org/2000/svg"
     xmlns:xlink="http://www.w3.org/1999/xlink">
    <svg id="s1" width="21" height="21" viewBox="-2 -2 21 21" y="137">
        <style>.aast0{fill:#ee490e}</style>
        <path class="aast0"
              d="M8.5 0C3.8 0 0 3.8 0 8.5S3.8 17 8.5 17 17 13.2 17 8.5 13.2 0 8.5 0zm0 15C4.9 15 2 12.1 2 8.5S4.9 2 8.5 2 15 4.9 15 8.5 12.1 15 8.5 15z"/>
        <path class="aast0"
              d="M11.5 8H9V3.5c0-.3-.2-.5-.5-.5s-.5.2-.5.5v5c0 .3.2.5.5.5h3c.3 0 .5-.2.5-.5s-.2-.5-.5-.5z"/>
    </svg>
    <svg id="s10" width="23" height="24" viewBox="-2 -2 23 24" x="135" class="search-icon">
        <style>.abst0{fill:#ffffff}</style>
        <path class="abst0"
              d="M18.6 17.5l-3-3c1.5-1.8 2.3-4.3 2-7C17 3.8 14 .7 10.3.1 4.3-.9-.8 4.2.1 10.2c.6 3.7 3.6 6.7 7.3 7.3 2.2.3 4.2-.1 5.9-1.1l3.2 3.2c.6.6 1.5.6 2.1 0 .5-.6.5-1.5 0-2.1zM2.9 8.8c0-3.2 2.6-5.9 5.9-5.9s5.9 2.6 5.9 5.9-2.6 5.9-5.9 5.9S2.9 12 2.9 8.8z"/>
    </svg>
    <svg id="s11" width="19" height="17" viewBox="-2 -2 19 17" x="40" y="137">
        <style>.acst0{fill-rule:evenodd;clip-rule:evenodd;fill:#777}</style>
        <path id="acXMLID_15_" class="acst0"
              d="M1.5 3h10c.8 0 1.5-.7 1.5-1.5S12.3 0 11.5 0h-10C.7 0 0 .7 0 1.5S.7 3 1.5 3zm12 2h-12C.7 5 0 5.7 0 6.5S.7 8 1.5 8h12c.8 0 1.5-.7 1.5-1.5S14.3 5 13.5 5zm-3 5h-9c-.8 0-1.5.7-1.5 1.5S.7 13 1.5 13h9c.8 0 1.5-.7 1.5-1.5s-.7-1.5-1.5-1.5z"/>
    </svg>
    <svg id="s12" width="19" height="17" viewBox="-2 -2 19 17" x="78" y="137">
        <style>.adst0{fill-rule:evenodd;clip-rule:evenodd;fill:#313131}</style>
        <path id="adXMLID_15_" class="adst0"
              d="M1.5 3h10c.8 0 1.5-.7 1.5-1.5S12.3 0 11.5 0h-10C.7 0 0 .7 0 1.5S.7 3 1.5 3zm12 2h-12C.7 5 0 5.7 0 6.5S.7 8 1.5 8h12c.8 0 1.5-.7 1.5-1.5S14.3 5 13.5 5zm-3 5h-9c-.8 0-1.5.7-1.5 1.5S.7 13 1.5 13h9c.8 0 1.5-.7 1.5-1.5s-.7-1.5-1.5-1.5z"/>
    </svg>
    <svg id="s13" width="23" height="24" viewBox="-2 -2 23 24" x="106" y="97">
        <style>.aest0{fill:#777}</style>
        <path class="aest0"
              d="M18.6 17.5l-3-3c1.5-1.8 2.3-4.3 2-7C17 3.8 14 .7 10.3.1 4.3-.9-.8 4.2.1 10.2c.6 3.7 3.6 6.7 7.3 7.3 2.2.3 4.2-.1 5.9-1.1l3.2 3.2c.6.6 1.5.6 2.1 0 .5-.6.5-1.5 0-2.1zM2.9 8.8c0-3.2 2.6-5.9 5.9-5.9s5.9 2.6 5.9 5.9-2.6 5.9-5.9 5.9S2.9 12 2.9 8.8z"/>
    </svg>
    <svg id="s14" width="11" height="16" viewBox="-2 -2 11 16" x="124" y="121">
        <style>.afst0{fill-rule:evenodd;clip-rule:evenodd;fill:#313131}</style>
        <path id="afXMLID_15_" class="afst0"
              d="M.4 4.7L4.6.5c.6-.6 1.5-.6 2.1 0 .7.5.7 1.5.1 2.1L3.6 5.7l3.2 3.2c.6.6.6 1.5 0 2.1-.6.6-1.5.6-2.1 0L.4 6.8c-.5-.6-.5-1.5 0-2.1z"/>
    </svg>
    <svg id="s15" width="28" height="63" viewBox="-2 -2 63 137">
        <style>.agst0{fill:#FDE4DD}</style>
        <path class="agst0"
              d="M31.2 57.9c-.6 15.3-3.4 27.4-8.4 36.2-5 8.8-12.6 15.2-22.8 19.3L12.5 133c17.2-7.6 29.8-18.8 38-33.8 5.9-10.9 8.8-28.7 8.8-53.5V0H4.5v57.9h26.7z"/>
    </svg>
    <svg id="s16" width="11" height="15" viewBox="-2 -2 11 15" x="92" y="110">
        <style>.ahst0{fill-rule:evenodd;clip-rule:evenodd;fill:#FFF}</style>
        <path id="ahXMLID_15_" class="ahst0" d="M1.4 0L0 1.4l4.2 4.3L0 9.9l1.4 1.4 5.7-5.6z"/>
    </svg>
    <svg id="s17" width="23" height="24" viewBox="-2 -2 23 24" x="106" y="73">
        <style>.aist0{fill:#ee490e}</style>
        <path class="aist0"
              d="M18.6 17.5l-3-3c1.5-1.8 2.3-4.3 2-7C17 3.8 14 .7 10.3.1 4.3-.9-.8 4.2.1 10.2c.6 3.7 3.6 6.7 7.3 7.3 2.2.3 4.2-.1 5.9-1.1l3.2 3.2c.6.6 1.5.6 2.1 0 .5-.6.5-1.5 0-2.1zM2.9 8.8c0-3.2 2.6-5.9 5.9-5.9s5.9 2.6 5.9 5.9-2.6 5.9-5.9 5.9S2.9 12 2.9 8.8z"/>
    </svg>
    <svg id="s18" width="11" height="15" viewBox="-295 414 11 15" x="158" y="11">
        <style>.ajst0{fill:#777}</style>
        <path id="ajXMLID_15_" class="ajst0" d="M-291.6 415.6l-1.4 1.4 4.2 4.3-4.2 4.2 1.4 1.4 5.7-5.6z"/>
    </svg>
    <svg id="s19" width="17" height="21" viewBox="-2 -2 17 21" x="135" y="110">
        <style>.akst0{fill:#ee490e}</style>
        <path class="akst0"
              d="M6.5 0C2.9 0 0 2.9 0 6.5S6.5 17 6.5 17 13 10.1 13 6.5 10.1 0 6.5 0zm0 10C4.6 10 3 8.4 3 6.5S4.6 3 6.5 3 10 4.6 10 6.5 8.4 10 6.5 10z"/>
    </svg>
    <svg id="s2" width="19" height="20" viewBox="-2 -2 19 20" x="21" y="137">
        <style>.alst0{fill:#222227}</style>
        <path class="alst0"
              d="M10.5 16c-.2 0-.3 0-.5-.1C2.3 13.1.1 5.2 0 4.8c-.1-.4 0-.8.3-1.2l2-3c.6-.8 1.9-.8 2.5 0l2 3c.4.7.2 1.7-.5 2.1l-2 1.4c.8 1.4 2 3.1 3.8 4.4l1.2-1.8c.5-.7 1.4-.9 2.1-.4l3 2c.4.3.7.7.7 1.3s-.3 1-.7 1.3l-3 2c-.3 0-.6.1-.9.1z"/>
    </svg>
    <svg id="s20" width="14" height="10" viewBox="-2 -2 14 10" x="158" y="26">
        <style>.amst0{fill-rule:evenodd;clip-rule:evenodd;fill:#777}</style>
        <path id="amXMLID_15_" class="amst0" d="M9.9.7L9.2 0 5 4.2.7 0 0 .7l5 5 .7-.8z"/>
    </svg>
    <svg id="s21" width="19" height="17" viewBox="-2 -2 19 17" x="97" y="137">
        <style>.anst0{fill:#FFF}</style>
        <g id="anXMLID_14_">
            <path id="anXMLID_15_" d="M14.5.5L5.6 8.3l-5.1-2 5.2 6.2 8.8-12z"/>
            <path id="anXMLID_17_" class="anst0"
                  d="M5.7 13c-.1 0-.3-.1-.4-.2L.1 6.6C0 6.4 0 6.1.1 6c.1-.2.4-.3.6-.2l4.8 1.9L14.2.1c.2-.2.5-.2.7 0 .2.2.2.5.1.7l-8.8 12c-.2.1-.3.2-.5.2zM2.2 7.5l3.5 4.2 5.8-7.9-5.6 4.9c-.1.1-.3.1-.5 0L2.2 7.5z"/>
        </g>
    </svg>
    <svg id="s22" width="19" height="17" viewBox="-2 -2 19 17" x="59" y="137">
        <style>.aost0{fill:#0c0e0f}</style>
        <g id="aoXMLID_29_">
            <g id="aoXMLID_62_">
                <path id="aoXMLID_66_" class="aost0"
                      d="M14.2 1.4c-.1 0-.2 0-.3-.1 0 0-.1 0-.1-.1 0 0-.1 0-.1-.1-.2-.2-.2-.5 0-.7l.4-.3c.2-.2.5-.2.7 0s.2.5.1.7l-.3.4c-.1.1-.2.2-.4.2z"/>
            </g>
            <g id="aoXMLID_61_">
                <path id="aoXMLID_59_" class="aost0"
                      d="M7.4 7.2c-.1 0-.2-.1-.3-.2-.2-.2-.2-.5 0-.7l.7-.6c.2-.2.5-.2.7 0 .2.2.2.5 0 .7l-.7.6c-.1.1-.2.2-.4.2zm2.3-2c-.2 0-.3 0-.4-.2-.2-.2-.2-.5 0-.7l.7-.6c.2-.2.5-.2.7 0 .2.2.2.5 0 .7l-.7.7c-.1.1-.2.1-.3.1zm2.2-1.9c-.1 0-.3-.1-.4-.2-.2-.2-.2-.5 0-.7l.7-.6c.2-.2.5-.2.7 0 .2.2.2.5 0 .7l-.7.6c-.1.1-.2.2-.3.2z"/>
            </g>
            <g id="aoXMLID_60_">
                <path id="aoXMLID_58_" class="aost0"
                      d="M5.6 8.8h-.2l-.5-.2c-.2-.1-.4-.4-.3-.7.1-.3.4-.4.7-.3l.2.1.1-.1c.2-.2.5-.2.7 0 .2.2.2.5 0 .7l-.4.4c-.1 0-.2.1-.3.1z"/>
            </g>
            <g id="aoXMLID_48_">
                <path id="aoXMLID_57_" class="aost0"
                      d="M3.5 7.9h-.2l-.9-.3c-.2-.1-.3-.4-.2-.7.1-.3.4-.4.6-.3l.8.4c.3.1.4.4.3.6-.1.2-.3.3-.4.3z"/>
            </g>
            <g id="aoXMLID_47_">
                <path id="aoXMLID_56_" class="aost0"
                      d="M.8 7.1c-.1 0-.3 0-.4-.1l-.3-.4C0 6.4 0 6.1.1 6s.4-.3.6-.2l.4.2c.3.1.4.4.3.6 0 .1-.1.1-.1.2s-.1.2-.2.2c-.1.1-.2.1-.3.1z"/>
            </g>
            <g id="aoXMLID_46_">
                <path id="aoXMLID_53_" class="aost0"
                      d="M4.3 11.2c-.1 0-.3-.1-.4-.2l-.6-.7c-.2-.2-.1-.5.1-.7.2-.2.5-.1.7.1l.6.7c.2.2.1.5-.1.7-.1.1-.2.1-.3.1zm-1.8-2c-.1 0-.2-.1-.3-.2l-.6-.7c-.2-.2-.2-.5 0-.7.2-.2.5-.1.7.1l.6.7c.2.2.1.5-.1.7 0 .1-.1.1-.3.1z"/>
            </g>
            <g id="aoXMLID_45_">
                <path id="aoXMLID_52_" class="aost0"
                      d="M5.7 13c-.1 0-.3-.1-.4-.2l-.3-.4c-.2-.2-.1-.5.1-.7.2-.2.4-.2.6 0 .2-.1.4-.2.6 0 .2.2.3.5.1.7l-.3.4c-.1.1-.2.2-.4.2z"/>
            </g>
            <g id="aoXMLID_44_">
                <path id="aoXMLID_42_" class="aost0"
                      d="M7.2 11c-.1 0-.2 0-.3-.1-.2-.2-.3-.5-.1-.7l.6-.8c.2-.2.5-.3.7-.1.2.2.2.5.1.7l-.6.8c-.1.1-.3.2-.4.2zm1.7-2.4c-.1 0-.2 0-.3-.1-.2-.2-.2-.5-.1-.7l.6-.8c.2-.2.5-.3.7-.1.2.2.3.5.1.7l-.5.8c-.1.1-.3.2-.5.2zm1.8-2.4c-.1 0-.2 0-.3-.1-.2-.2-.3-.5-.1-.7l.6-.8c.2-.2.5-.3.7-.1.2.2.3.5.1.7l-.6.8c-.1.1-.2.2-.4.2zm1.8-2.4c-.1 0-.2 0-.3-.1-.3-.2-.3-.5-.2-.7l.6-.8c.2-.2.5-.3.7-.1.2.2.3.5.1.7l-.6.8c0 .1-.2.2-.3.2z"/>
            </g>
        </g>
    </svg>
    <svg id="s23" width="22" height="23" viewBox="-2 -2 22 23" x="135" y="24">
        <style>.apst0{fill:#777}</style>
        <path class="apst0"
              d="M.5 4h1.6c.2 1.7 1.7 3 3.4 3s3.2-1.3 3.4-3h8.6c.3 0 .5-.2.5-.5s-.2-.5-.5-.5H8.9c-.2-1.7-1.6-3-3.4-3S2.3 1.3 2.1 3H.5c-.3 0-.5.2-.5.5s.2.5.5.5zm5-2C6.3 2 7 2.7 7 3.5S6.3 5 5.5 5 4 4.3 4 3.5 4.7 2 5.5 2zM17.5 9h-1.6c-.2-1.7-1.7-3-3.4-3S9.3 7.3 9.1 9H.5c-.3 0-.5.2-.5.5s.2.5.5.5h8.6c.2 1.7 1.7 3 3.4 3s3.2-1.3 3.4-3h1.6c.3 0 .5-.2.5-.5s-.2-.5-.5-.5zm-5 2c-.8 0-1.5-.7-1.5-1.5S11.7 8 12.5 8s1.5.7 1.5 1.5-.7 1.5-1.5 1.5zM17.5 15H8.9c-.2-1.7-1.7-3-3.4-3s-3.2 1.3-3.4 3H.5c-.3 0-.5.2-.5.5s.2.5.5.5h1.6c.2 1.7 1.7 3 3.4 3s3.2-1.3 3.4-3h8.6c.3 0 .5-.2.5-.5s-.2-.5-.5-.5zm-12 2c-.8 0-1.5-.7-1.5-1.5S4.7 14 5.5 14s1.5.7 1.5 1.5S6.3 17 5.5 17z"/>
    </svg>
    <svg id="s24" width="15" height="11" viewBox="-301 421 15 11" x="158">
        <style>.aqst0{fill:#333}</style>
        <path id="aqXMLID_15_" class="aqst0" d="M-298.6 429l1.3 1.4 4.3-4.2 4.2 4.2 1.4-1.4-5.6-5.7z"/>
    </svg>
    <svg id="s25" width="16" height="16" viewBox="-2 -2 16 16" x="132" y="137">
        <style>.arst0{fill-rule:evenodd;clip-rule:evenodd;fill:#FFF}</style>
        <path id="arXMLID_15_" class="arst0"
              d="M7.9 5.7L11 2.6c.6-.6.6-1.6 0-2.2-.6-.6-1.5-.6-2.1 0L5.7 3.6 2.6.4C2-.1 1-.1.4.4-.1 1-.1 2 .4 2.6l3.2 3.2L.4 8.9c-.6.6-.6 1.5 0 2.1.6.6 1.6.6 2.2 0l3.2-3.2L8.9 11c.6.6 1.5.6 2.1 0 .6-.6.6-1.5 0-2.1L7.9 5.7z"/>
    </svg>
    <svg id="s26" width="16" height="16" viewBox="-293 413 16 16" x="116" y="137">
        <style>.asst0{fill:#777}</style>
        <path id="asXMLID_15_" class="asst0"
              d="M-283.1 421.1l3.1-3.1c.6-.6.6-1.6 0-2.2-.6-.6-1.5-.6-2.1 0l-3.2 3.2-3.1-3.2c-.6-.5-1.6-.5-2.2 0-.5.6-.5 1.6 0 2.2l3.2 3.2-3.2 3.1c-.6.6-.6 1.5 0 2.1.6.6 1.6.6 2.2 0l3.2-3.2 3.1 3.2c.6.6 1.5.6 2.1 0 .6-.6.6-1.5 0-2.1l-3.1-3.2z"/>
    </svg>
    <svg width="13" height="20" viewBox="-2 -2 13 20" id="s27" x="92" y="82">
        <style>.atst0{fill:#777}.st0,.st1{fill-rule:evenodd;clip-rule:evenodd}.atst1{fill:#FFF}</style>
        <g id="atLayer_1">
            <path id="atXMLID_19_" class="atst0" d="M0 0h9v16H0V0z"/>
            <path id="atXMLID_15_" class="atst1"
                  d="M3 6.5c.8 0 1.5.7 1.5 1.5S3.8 9.5 3 9.5 1.5 8.8 1.5 8 2.2 6.5 3 6.5z"/>
        </g>
    </svg>
    <svg width="13" height="20" viewBox="-2 -2 13 20" id="s28" x="92" y="55">
        <style>.aust0{fill:#313131}.st0,.st1{fill-rule:evenodd;clip-rule:evenodd}.aust1{fill:#FFF}</style>
        <g id="auLayer_1">
            <path id="auXMLID_19_" class="aust0" d="M0 0h9v16H0V0z"/>
            <path id="auXMLID_15_" class="aust1"
                  d="M3 6.5c.8 0 1.5.7 1.5 1.5S3.8 9.5 3 9.5 1.5 8.8 1.5 8 2.2 6.5 3 6.5z"/>
        </g>
    </svg>
    <svg width="23" height="20" viewBox="-2 -2 23 20" id="s29" x="135" y="90">
        <style>.avst0{fill:#777}.st0,.st1{fill-rule:evenodd;clip-rule:evenodd}.avst1{fill:#FFF}</style>
        <g id="avLayer_1">
            <g id="avXMLID_57_">
                <path id="avXMLID_19_" class="avst0" d="M10 0h9v16h-9V0z"/>
                <path id="avXMLID_15_" class="avst1"
                      d="M13 6.5c.8 0 1.5.7 1.5 1.5s-.7 1.5-1.5 1.5-1.5-.7-1.5-1.5.7-1.5 1.5-1.5z"/>
            </g>
            <g id="avXMLID_58_">
                <path id="avXMLID_61_" class="avst0" d="M9 0H0v16h9V0z"/>
                <path id="avXMLID_59_" class="avst1"
                      d="M6 6.5c-.8 0-1.5.7-1.5 1.5S5.2 9.5 6 9.5 7.5 8.8 7.5 8 6.8 6.5 6 6.5z"/>
            </g>
        </g>
    </svg>
    <svg id="s3" width="22" height="23" viewBox="-2 -2 22 23" x="135" y="67">
        <style>.awst0{fill:#ee490e}</style>
        <path class="awst0"
              d="M14.3 14.2l-3-2c-.7-.5-1.6-.3-2.1.4L8 14.5c-1.8-1.3-3-3-3.8-4.4l2.1-1.4c.7-.4.9-1.4.4-2.1l-2-3c-.6-.8-1.9-.8-2.5 0l-2 3C0 7-.1 7.4 0 7.8c.1.3 2.2 8.2 9.9 11.1.2.1.3.1.5.1.3 0 .6-.1.8-.3l3-2c.4-.3.7-.7.7-1.3s-.2-.9-.6-1.2zM13.5 3h-2.3l1.5-1.5c.4-.3.4-.9 0-1.2-.4-.3-.9-.3-1.3 0L8.3 3.4c-.4.3-.4.9 0 1.2l3.2 3.1c.4.3.9.3 1.3 0s.4-.9 0-1.2L11.2 5h2.3C14.9 5 16 6.1 16 7.5S14.9 10 13.5 10c-.6 0-1 .4-1 1s.4 1 1 1C16 12 18 10 18 7.5S16 3 13.5 3z"/>
    </svg>
    <svg width="23" height="20" viewBox="-2 -2 23 20" id="s30" x="135" y="47">
        <style>.axst0{fill:#313131}.st0,.st1{fill-rule:evenodd;clip-rule:evenodd}.axst1{fill:#FFF}</style>
        <g id="axLayer_1">
            <g id="axXMLID_57_">
                <path id="axXMLID_19_" class="axst0" d="M10 0h9v16h-9V0z"/>
                <path id="axXMLID_15_" class="axst1"
                      d="M13 6.5c.8 0 1.5.7 1.5 1.5s-.7 1.5-1.5 1.5-1.5-.7-1.5-1.5.7-1.5 1.5-1.5z"/>
            </g>
            <g id="axXMLID_58_">
                <path id="axXMLID_61_" class="axst0" d="M9 0H0v16h9V0z"/>
                <path id="axXMLID_59_" class="axst1"
                      d="M6 6.5c-.8 0-1.5.7-1.5 1.5S5.2 9.5 6 9.5 7.5 8.8 7.5 8 6.8 6.5 6 6.5z"/>
            </g>
        </g>
    </svg>
    <svg id="s31" width="18" height="16" viewBox="-291 413 18 16" x="106" y="121">
        <style>.ayst0{fill:#FFF}</style>
        <path id="ayXMLID_15_" class="ayst0" d="M-275.5 415.4l-8.9 7.8-5.1-2 5.2 6.2 8.8-12z"/>
    </svg>
    <svg id="s32" width="26" height="20" viewBox="-2 -2 26 20" x="106" y="28">
        <style>.azst0{fill-rule:evenodd;clip-rule:evenodd}.st0,.st1{fill:#313131}</style>
        <g id="azXMLID_37_">
            <path id="azXMLID_38_" class="azst0" d="M22 0H0v2h20.3L7.1 15.2l.7.7L21.7 2h.3z"/>
        </g>
        <g id="azXMLID_15_">
            <g id="azXMLID_20_">
                <path id="azXMLID_23_" class="azst1" d="M7.9 15.9c-.6-.4-.9-.6-1.4-1l.6-.8c.5.4.8.6 1.4 1l-.6.8z"/>
            </g>
            <g id="azXMLID_19_">
                <path id="azXMLID_17_" class="azst1"
                      d="M5 13.5c-.9-.9-1.7-1.9-2.4-3l.9-.5c.6 1 1.4 2 2.2 2.8l-.7.7zM1.7 8.8C1.1 7.6.7 6.4.4 5.2l1-.2c.3 1.2.7 2.3 1.2 3.4l-.9.4z"/>
            </g>
            <g id="azXMLID_18_">
                <path id="azXMLID_16_" class="azst1" d="M.1 3.3C0 2.6 0 2 0 1.3h1c0 .6 0 1.3.1 1.9l-1 .1z"/>
            </g>
        </g>
    </svg>
    <svg id="s33" width="20" height="25" viewBox="-2 -2 20 25" x="106" y="48">
        <style>.bast0{fill-rule:evenodd;clip-rule:evenodd;fill:#e03828}</style>
        <path id="baXMLID_15_" class="bast0"
              d="M8 0C3.6 0 0 3.6 0 8c0 7.1 8 13 8 13s8-6.1 8-13c-.1-4.4-3.7-8-8-8zm0 12c-2.2 0-4-1.8-4-4s1.8-4 4-4 4 1.8 4 4c-.1 2.2-1.8 4-4 4z"/>
    </svg>
    <svg id="s34" width="43" height="55" viewBox="-307 395 43 55" x="63">
        <style>.bbst0{fill:#FFF}.bbst1{fill:#e03828}</style>
        <path id="bbXMLID_1_" class="bbst0"
              d="M-286 396.5c-10.7 0-19.3 8.7-19.3 19.5 0 17.2 19.3 31.5 19.3 31.5s19.3-14.8 19.3-31.5c0-10.8-8.6-19.5-19.3-19.5z"/>
        <path id="bbXMLID_15_" class="bbst1"
              d="M-286 403.5c-6.9 0-12.5 5.6-12.5 12.6 0 11.1 12.5 20.4 12.5 20.4s12.5-9.6 12.5-20.4c0-7-5.6-12.6-12.5-12.6zm0 18.9c-3.5 0-6.3-2.8-6.3-6.3s2.8-6.3 6.3-6.3 6.3 2.8 6.3 6.3c0 3.4-2.8 6.3-6.3 6.3z"/>
    </svg>
    <svg id="s4" width="29" height="28" viewBox="-2 -2 29 28" x="63" y="82">
        <style>.bcst0{fill:#777}</style>
        <path class="bcst0"
              d="M22 3h-2c0-1.7-1.3-3-3-3h-4c-1.7 0-3 1.3-3 3v3c0-1.7-1.3-3-3-3H3C1.3 3 0 4.3 0 6v15c0 1.6 1.3 3 3 3h19c1.7 0 3-1.4 3-3V6c0-1.7-1.3-3-3-3zM7 21H3V6h4v15zm5 0H8V9h4v12zm5 0h-4V3h4v18zm5 0h-4V6h4v15z"/>
    </svg>
    <svg id="s5" width="29" height="28" viewBox="-2 -2 29 28" x="106">
        <style>.bdst0{fill:#ee490e}</style>
        <path class="bdst0"
              d="M22 3h-2c0-1.7-1.3-3-3-3h-4c-1.7 0-3 1.3-3 3v3c0-1.7-1.3-3-3-3H3C1.3 3 0 4.3 0 6v15c0 1.6 1.3 3 3 3h19c1.7 0 3-1.4 3-3V6c0-1.7-1.3-3-3-3zM7 21H3V6h4v15zm5 0H8V9h4v12zm5 0h-4V3h4v18zm5 0h-4V6h4v15z"/>
    </svg>
    <svg id="s6" width="29" height="27" viewBox="-2 -2 29 27" x="63" y="110">
        <style>.best0{fill:#777}</style>
        <path class="best0"
              d="M22.3 5H12l-.5-2.6C11.2 1 10 0 8.5 0H3C1.3 0 0 1.3 0 3v2c0 1.7 1.3 3 3 3l2 11c.3 2.2 2.2 4 4.5 4s4.2-1.8 4.5-4c.3 2.2 2.2 4 4.5 4s4.2-1.8 4.5-4l2.2-10.4c.4-1.8-1-3.6-2.9-3.6zM9.5 20c-.8 0-1.5-.7-1.5-1.5S8.7 17 9.5 17s1.5.7 1.5 1.5-.7 1.5-1.5 1.5zm9 0c-.8 0-1.5-.7-1.5-1.5s.7-1.5 1.5-1.5 1.5.7 1.5 1.5-.7 1.5-1.5 1.5zm1.5-4H8L6 5H3V3h5l1 5h13l-2 8z"/>
    </svg>
    <svg id="s7" width="29" height="27" viewBox="-2 -2 29 27" x="63" y="55">
        <style>.bfst0{fill:#ee490e}</style>
        <path class="bfst0"
              d="M22.3 5H12l-.5-2.6C11.2 1 10 0 8.5 0H3C1.3 0 0 1.3 0 3v2c0 1.7 1.3 3 3 3l2 11c.3 2.2 2.2 4 4.5 4s4.2-1.8 4.5-4c.3 2.2 2.2 4 4.5 4s4.2-1.8 4.5-4l2.2-10.4c.4-1.8-1-3.6-2.9-3.6zM9.5 20c-.8 0-1.5-.7-1.5-1.5S8.7 17 9.5 17s1.5.7 1.5 1.5-.7 1.5-1.5 1.5zm9 0c-.8 0-1.5-.7-1.5-1.5s.7-1.5 1.5-1.5 1.5.7 1.5 1.5-.7 1.5-1.5 1.5zm1.5-4H8L6 5H3V3h5l1 5h13l-2 8z"/>
    </svg>
    <svg id="s8" width="14" height="10" viewBox="-2 -2 14 10" x="158" y="36">
        <style>.bgst0{fill-rule:evenodd;clip-rule:evenodd;fill:#FFF}</style>
        <path id="bgXMLID_15_" class="bgst0" d="M9.9 1.4L8.5 0 4.9 3.5 1.4 0 0 1.4l4.9 5 1.5-1.5z"/>
    </svg>
</svg>
