<svg width="20" height="20" viewBox="0 0 20 20" fill="none" xmlns="http://www.w3.org/2000/svg">
<path fill-rule="evenodd" clip-rule="evenodd" d="M10 11.75C10.4142 11.75 10.75 12.0858 10.75 12.5V16.6667C10.75 17.0809 10.4142 17.4167 10 17.4167C9.58579 17.4167 9.25 17.0809 9.25 16.6667V12.5C9.25 12.0858 9.58579 11.75 10 11.75Z" fill="#FF562E"/>
<path fill-rule="evenodd" clip-rule="evenodd" d="M4.66667 4.16659C4.66667 3.29237 5.37579 2.58325 6.25 2.58325H13.75C14.6242 2.58325 15.3333 3.29237 15.3333 4.16659V4.55409C15.3333 5.08349 15.0687 5.57698 14.6296 5.87077L12.8333 7.06802V8.78066L15.0894 10.3925C15.0895 10.3925 15.0894 10.3924 15.0894 10.3925C15.5049 10.6887 15.75 11.1666 15.75 11.6749C15.75 12.545 15.045 13.2499 14.175 13.2499H5.825C4.95495 13.2499 4.25 12.545 4.25 11.6749C4.25 11.1667 4.49478 10.689 4.91007 10.3928C4.91024 10.3927 4.9099 10.393 4.91007 10.3928L7.16667 8.78066V7.06802L5.37199 5.8718C4.93076 5.57795 4.66667 5.08214 4.66667 4.55409V4.16659ZM5.825 11.7499H14.175C14.2166 11.7499 14.25 11.7165 14.25 11.6749C14.25 11.65 14.2383 11.6279 14.2189 11.614L11.6473 9.77684C11.4503 9.63606 11.3333 9.40877 11.3333 9.16658V6.66658C11.3333 6.4158 11.4587 6.1816 11.6674 6.04251L13.7954 4.62407C13.7955 4.62402 13.7954 4.62413 13.7954 4.62407C13.8195 4.60784 13.8333 4.58126 13.8333 4.55409V4.16659C13.8333 4.1208 13.7958 4.08325 13.75 4.08325H6.25C6.20421 4.08325 6.16667 4.1208 6.16667 4.16659V4.55409C6.16667 4.58251 6.18118 4.60851 6.20301 4.62304L8.33264 6.04251C8.54132 6.1816 8.66667 6.4158 8.66667 6.66658V9.16658C8.66667 9.40877 8.54972 9.63606 8.35265 9.77684L5.78182 11.6135C5.76241 11.6273 5.75 11.65 5.75 11.6749C5.75 11.7165 5.78338 11.7499 5.825 11.7499Z" fill="#FF562E"/>
</svg>
