<svg width="25" height="25" viewBox="0 0 25 25" fill="none" xmlns="http://www.w3.org/2000/svg">
<path d="M6.22001 7.65007C6.04887 7.65131 5.8826 7.59319 5.7495 7.48561C5.6164 7.37804 5.5247 7.22765 5.49001 7.06007L4.92001 4.53007H3.51001C3.3111 4.53007 3.12033 4.45105 2.97968 4.3104C2.83903 4.16974 2.76001 3.97898 2.76001 3.78007C2.76001 3.58115 2.83903 3.39039 2.97968 3.24974C3.12033 3.10909 3.3111 3.03007 3.51001 3.03007H5.51001C5.67976 3.02835 5.84493 3.08504 5.97784 3.19064C6.11075 3.29624 6.20331 3.44433 6.24001 3.61007L7.00001 6.74007C7.04171 6.93361 7.00519 7.1358 6.89841 7.30253C6.79163 7.46925 6.62326 7.58699 6.43001 7.63007C6.36267 7.65366 6.2906 7.66053 6.22001 7.65007Z" fill="#FF562E"/>
<path d="M17.84 16.9999H9.07001C8.66073 16.9959 8.26487 16.8534 7.94705 16.5955C7.62922 16.3376 7.40818 15.9796 7.32001 15.5799L5.48001 7.0599C5.45908 6.95025 5.46163 6.83742 5.48749 6.72883C5.51334 6.62023 5.56192 6.51836 5.63001 6.4299C5.70136 6.34231 5.79134 6.27173 5.8934 6.2233C5.99546 6.17486 6.10704 6.14979 6.22001 6.1499H19.4C19.6677 6.15013 19.9319 6.21005 20.1734 6.32529C20.415 6.44052 20.6278 6.60818 20.7964 6.81605C20.965 7.02392 21.0851 7.26677 21.148 7.52692C21.2109 7.78707 21.215 8.05797 21.16 8.3199L19.59 15.6099C19.496 16.004 19.2724 16.3552 18.9552 16.6072C18.6379 16.8593 18.2452 16.9975 17.84 16.9999ZM7.15001 7.6499L8.79001 15.2999C8.80363 15.3643 8.83878 15.4222 8.88966 15.464C8.94055 15.5058 9.00416 15.5291 9.07001 15.5299H17.84C17.9073 15.5286 17.972 15.5039 18.0231 15.4601C18.0742 15.4164 18.1084 15.3562 18.12 15.2899L19.69 7.9999C19.6964 7.95792 19.6944 7.91508 19.6841 7.87387C19.6738 7.83267 19.6554 7.79392 19.63 7.7599C19.6026 7.72526 19.5676 7.69734 19.5277 7.67827C19.4879 7.65921 19.4442 7.6495 19.4 7.6499H7.15001Z" fill="#FF562E"/>
<path d="M18.19 21.58C17.8885 21.5774 17.6 21.4565 17.3868 21.2433C17.1735 21.03 17.0526 20.7416 17.05 20.44C17.0537 20.141 17.1718 19.8547 17.38 19.64C17.5119 19.5062 17.6748 19.407 17.8543 19.3513C18.0338 19.2956 18.2242 19.2851 18.4088 19.3208C18.5933 19.3565 18.7661 19.4373 18.9118 19.5559C19.0576 19.6746 19.1717 19.8274 19.2441 20.0008C19.3165 20.1742 19.345 20.3629 19.3268 20.5499C19.3087 20.737 19.2446 20.9167 19.1403 21.073C19.036 21.2293 18.8946 21.3573 18.7288 21.4458C18.563 21.5343 18.3779 21.5804 18.19 21.58Z" fill="#FF562E"/>
<path d="M9.23 21.5801C9.07991 21.5811 8.93109 21.5525 8.79209 21.4959C8.65309 21.4392 8.52664 21.3557 8.42 21.2501C8.31204 21.1452 8.22698 21.0191 8.17019 20.8796C8.11339 20.7402 8.08609 20.5906 8.09 20.4401C8.08626 20.2911 8.11368 20.143 8.17051 20.0052C8.22734 19.8675 8.31232 19.7431 8.42 19.6401C8.52477 19.5313 8.65065 19.445 8.78993 19.3866C8.92921 19.3281 9.07895 19.2987 9.23 19.3001C9.53234 19.3001 9.82231 19.4202 10.0361 19.634C10.2499 19.8478 10.37 20.1378 10.37 20.4401C10.37 20.7424 10.2499 21.0324 10.0361 21.2462C9.82231 21.46 9.53234 21.5801 9.23 21.5801Z" fill="#FF562E"/>
</svg>
