<svg width="10" height="10" viewBox="0 0 10 10" fill="none" xmlns="http://www.w3.org/2000/svg">
<g clip-path="url(#clip0_99_4424)">
<path d="M0.947952 9.93736C0.70278 9.95161 0.461663 9.87011 0.275444 9.71003C-0.0918148 9.34058 -0.0918148 8.7439 0.275444 8.37446L8.31722 0.33266C8.6992 -0.0247733 9.29859 -0.00490381 9.65603 0.377078C9.97924 0.722503 9.99808 1.25343 9.70013 1.62087L1.61098 9.71003C1.42716 9.8678 1.18991 9.94915 0.947952 9.93736Z" fill="#707070"/>
<path d="M8.98023 9.93737C8.73175 9.93631 8.4936 9.83768 8.31717 9.66269L0.275368 1.62085C-0.0648787 1.22352 -0.0186203 0.625563 0.378708 0.285285C0.733335 -0.0184043 1.25634 -0.0184043 1.61093 0.285285L9.70009 8.3271C10.082 8.68462 10.1017 9.28405 9.74419 9.66594C9.72997 9.68113 9.71528 9.69582 9.70009 9.71004C9.50202 9.88229 9.24134 9.9646 8.98023 9.93737Z" fill="#707070"/>
</g>
<defs>
<clipPath id="clip0_99_4424">
<rect width="10" height="10" fill="white"/>
</clipPath>
</defs>
</svg>
