<svg width="20" height="20" viewBox="0 0 20 20" fill="none" xmlns="http://www.w3.org/2000/svg">
<path fill-rule="evenodd" clip-rule="evenodd" d="M3.41675 4.16667C3.41675 2.83162 4.49837 1.75 5.83342 1.75H11.8101C12.4509 1.75 13.0658 2.00501 13.5187 2.458L15.8754 4.81467C16.3284 5.26766 16.5834 5.88253 16.5834 6.52333V15.8333C16.5834 17.1684 15.5018 18.25 14.1667 18.25H5.83342C4.49837 18.25 3.41675 17.1684 3.41675 15.8333V4.16667ZM5.83342 3.25C5.32679 3.25 4.91675 3.66005 4.91675 4.16667V15.8333C4.91675 16.34 5.32679 16.75 5.83342 16.75H14.1667C14.6734 16.75 15.0834 16.34 15.0834 15.8333V6.52333C15.0834 6.2808 14.9868 6.04734 14.8148 5.87533L12.4581 3.51866C12.2861 3.34666 12.0526 3.25 11.8101 3.25H5.83342Z" fill="#686868"/>
<path fill-rule="evenodd" clip-rule="evenodd" d="M11.6667 1.75C12.081 1.75 12.4167 2.08579 12.4167 2.5V5.83333C12.4167 5.87912 12.4543 5.91667 12.5001 5.91667H15.8334C16.2476 5.91667 16.5834 6.25245 16.5834 6.66667C16.5834 7.08088 16.2476 7.41667 15.8334 7.41667H12.5001C11.6259 7.41667 10.9167 6.70755 10.9167 5.83333V2.5C10.9167 2.08579 11.2525 1.75 11.6667 1.75Z" fill="#686868"/>
<path fill-rule="evenodd" clip-rule="evenodd" d="M6.54577 13.6051C6.70608 13.4448 6.90743 13.3843 7.07912 13.3843C7.2508 13.3843 7.45216 13.4448 7.61247 13.6051C7.7027 13.6953 7.76131 13.7986 7.79531 13.9022C7.81995 13.9765 7.83328 14.0559 7.83328 14.1384C7.83328 14.221 7.81995 14.3004 7.79531 14.3747C7.76131 14.4783 7.7027 14.5816 7.61247 14.6718C7.45216 14.8321 7.2508 14.8926 7.07912 14.8926C6.90743 14.8926 6.70608 14.8321 6.54577 14.6718C6.38545 14.5115 6.32495 14.3101 6.32495 14.1384C6.32495 13.9668 6.38545 13.7654 6.54577 13.6051Z" fill="#686868"/>
<path fill-rule="evenodd" clip-rule="evenodd" d="M5.91675 9.1626C5.91675 8.74838 6.25253 8.4126 6.66675 8.4126H13.3334C13.7476 8.4126 14.0834 8.74838 14.0834 9.1626C14.0834 9.57681 13.7476 9.9126 13.3334 9.9126H6.66675C6.25253 9.9126 5.91675 9.57681 5.91675 9.1626Z" fill="#686868"/>
<path fill-rule="evenodd" clip-rule="evenodd" d="M5.91675 11.6626C5.91675 11.2484 6.25253 10.9126 6.66675 10.9126H13.3334C13.7476 10.9126 14.0834 11.2484 14.0834 11.6626C14.0834 12.0768 13.7476 12.4126 13.3334 12.4126H6.66675C6.25253 12.4126 5.91675 12.0768 5.91675 11.6626Z" fill="#686868"/>
<path fill-rule="evenodd" clip-rule="evenodd" d="M12.3793 13.6334C12.5396 13.4731 12.7409 13.4126 12.9126 13.4126C13.0843 13.4126 13.2857 13.4731 13.446 13.6334C13.5362 13.7236 13.5948 13.8269 13.6288 13.9305C13.6534 14.0048 13.6668 14.0842 13.6668 14.1668C13.6668 14.2493 13.6534 14.3287 13.6288 14.403C13.5948 14.5067 13.5362 14.6099 13.446 14.7001C13.2857 14.8604 13.0843 14.9209 12.9126 14.9209C12.7409 14.9209 12.5396 14.8604 12.3793 14.7001C12.2189 14.5398 12.1584 14.3384 12.1584 14.1668C12.1584 13.9951 12.2189 13.7937 12.3793 13.6334Z" fill="#686868"/>
<path fill-rule="evenodd" clip-rule="evenodd" d="M9.46667 13.6249C9.62698 13.4646 9.82833 13.4041 10 13.4041C10.1717 13.4041 10.3731 13.4646 10.5334 13.6249C10.6236 13.7151 10.6822 13.8183 10.7162 13.922C10.7408 13.9962 10.7542 14.0757 10.7542 14.1582C10.7542 14.2408 10.7408 14.3202 10.7162 14.3945C10.6822 14.4981 10.6236 14.6013 10.5334 14.6916C10.3731 14.8519 10.1717 14.9124 10 14.9124C9.82833 14.9124 9.62698 14.8519 9.46667 14.6916C9.30635 14.5313 9.24585 14.3299 9.24585 14.1582C9.24585 13.9865 9.30635 13.7852 9.46667 13.6249Z" fill="#686868"/>
</svg>
