<svg width="20" height="20" viewBox="0 0 20 20" fill="none" xmlns="http://www.w3.org/2000/svg">
<path fill-rule="evenodd" clip-rule="evenodd" d="M8.33501 2.44837C8.33497 2.44842 8.33505 2.44832 8.33501 2.44837L7.41651 3.5965V4.16675C7.41651 4.21253 7.45406 4.25008 7.49984 4.25008H12.4998C12.5456 4.25008 12.5832 4.21253 12.5832 4.16675V3.59634L11.6655 2.44837C11.6655 2.4483 11.6656 2.44844 11.6655 2.44837C11.6493 2.42832 11.6252 2.41675 11.5998 2.41675H8.40068C8.37529 2.41675 8.3512 2.42828 8.33501 2.44837ZM13.3332 3.33341L13.919 2.86511L12.8365 1.51095L12.8358 1.51012C12.5354 1.13531 12.0811 0.916748 11.5998 0.916748H8.40068C7.91947 0.916748 7.46516 1.13531 7.16467 1.51012L6.08086 2.86489C5.97168 3.00137 5.91578 3.16846 5.91651 3.33678V3.33341H6.66651V4.08341C6.37821 4.08341 6.11542 3.91816 5.99053 3.65831C5.94135 3.55598 5.91699 3.44612 5.91651 3.33678V4.16675C5.91651 5.04096 6.62563 5.75008 7.49984 5.75008H12.4998C13.3741 5.75008 14.0832 5.04096 14.0832 4.16675V3.33341H13.3332Z" fill="#FF562E"/>
<path fill-rule="evenodd" clip-rule="evenodd" d="M2.58325 5.00016C2.58325 3.66512 3.66487 2.5835 4.99992 2.5835H6.66658C7.0808 2.5835 7.41658 2.91928 7.41658 3.3335C7.41658 3.74771 7.0808 4.0835 6.66658 4.0835H4.99992C4.4933 4.0835 4.08325 4.49354 4.08325 5.00016V15.8335C4.08325 16.3401 4.4933 16.7502 4.99992 16.7502H14.9999C15.5065 16.7502 15.9166 16.3401 15.9166 15.8335V5.00016C15.9166 4.49354 15.5065 4.0835 14.9999 4.0835H13.3333C12.919 4.0835 12.5833 3.74771 12.5833 3.3335C12.5833 2.91928 12.919 2.5835 13.3333 2.5835H14.9999C16.335 2.5835 17.4166 3.66512 17.4166 5.00016V15.8335C17.4166 17.1685 16.335 18.2502 14.9999 18.2502H4.99992C3.66487 18.2502 2.58325 17.1685 2.58325 15.8335V5.00016Z" fill="#FF562E"/>
<path fill-rule="evenodd" clip-rule="evenodd" d="M5.9165 9.16675C5.9165 8.75253 6.25229 8.41675 6.6665 8.41675H13.3332C13.7474 8.41675 14.0832 8.75253 14.0832 9.16675C14.0832 9.58096 13.7474 9.91675 13.3332 9.91675H6.6665C6.25229 9.91675 5.9165 9.58096 5.9165 9.16675Z" fill="#FF562E"/>
<path fill-rule="evenodd" clip-rule="evenodd" d="M5.9165 13.3335C5.9165 12.9193 6.25229 12.5835 6.6665 12.5835H13.3332C13.7474 12.5835 14.0832 12.9193 14.0832 13.3335C14.0832 13.7477 13.7474 14.0835 13.3332 14.0835H6.6665C6.25229 14.0835 5.9165 13.7477 5.9165 13.3335Z" fill="#FF562E"/>
</svg>
