<svg width="20" height="20" viewBox="0 0 20 20" fill="none" xmlns="http://www.w3.org/2000/svg">
<path fill-rule="evenodd" clip-rule="evenodd" d="M14.7729 5.22703C12.1369 2.59099 7.86307 2.59099 5.22703 5.22703L5.22703 5.22703C2.59099 7.86305 2.59099 12.1369 5.22703 14.773L4.75211 15.2479L5.22703 14.773C7.86305 17.409 12.1369 17.409 14.7729 14.773C17.409 12.1369 17.409 7.86307 14.7729 5.22703ZM15.8336 4.16637C12.6118 0.944542 7.38819 0.944544 4.16637 4.16637L15.8336 4.16637ZM15.8336 4.16637C19.0554 7.3882 19.0554 12.6118 15.8336 15.8336C12.6118 19.0554 7.38818 19.0554 4.16637 15.8336C0.944545 12.6118 0.944543 7.38818 4.16637 4.16637" fill="#FF562E"/>
<path fill-rule="evenodd" clip-rule="evenodd" d="M4.84336 15.8943C5.26659 13.8663 7.56629 12.5833 10 12.5833C12.4338 12.5833 14.7335 13.8663 15.1567 15.8943C15.2414 16.2997 14.9813 16.697 14.5758 16.7817C14.1703 16.8663 13.773 16.6062 13.6884 16.2007C13.4716 15.162 12.0746 14.0833 10 14.0833C7.92547 14.0833 6.52849 15.162 6.31173 16.2007C6.2271 16.6062 5.8298 16.8663 5.42432 16.7817C5.01885 16.697 4.75874 16.2997 4.84336 15.8943Z" fill="#FF562E"/>
<path fill-rule="evenodd" clip-rule="evenodd" d="M11.2374 7.09587C10.554 6.41246 9.44598 6.41246 8.76256 7.09587C8.07915 7.77929 8.07915 8.88733 8.76256 9.57075C9.44598 10.2542 10.554 10.2542 11.2374 9.57075C11.9209 8.88733 11.9209 7.77929 11.2374 7.09587ZM12.2981 6.03521C11.0289 4.76601 8.9711 4.76601 7.7019 6.03521C6.4327 7.30442 6.4327 9.36221 7.7019 10.6314C8.9711 11.9006 11.0289 11.9006 12.2981 10.6314C13.5673 9.36221 13.5673 7.30442 12.2981 6.03521Z" fill="#FF562E"/>
</svg>
