<svg width="20" height="20" viewBox="0 0 20 20" fill="none" xmlns="http://www.w3.org/2000/svg">
<path d="M9.99996 9.25C8.35824 9.25 7.01413 7.90651 7.01413 6.26417H5.51413C5.51413 8.73516 7.53003 10.75 9.99996 10.75V9.25ZM7.01413 6.26417C7.01413 4.61444 8.36558 3.25 9.99996 3.25V1.75C7.52268 1.75 5.51413 3.80056 5.51413 6.26417H7.01413ZM9.99996 3.25C11.6417 3.25 12.9858 4.59349 12.9858 6.23583H14.4858C14.4858 3.76484 12.4699 1.75 9.99996 1.75V3.25ZM12.9858 6.23583C12.9858 7.88556 11.6344 9.25 9.99996 9.25V10.75C12.4772 10.75 14.4858 8.69944 14.4858 6.23583H12.9858ZM15.8333 16.75H4.16665V18.25H15.8333V16.75ZM4.16665 16.75C4.14606 16.75 4.12581 16.7423 4.10843 16.7249C4.09106 16.7075 4.08331 16.6873 4.08331 16.6667H2.58331C2.58331 17.5392 3.2941 18.25 4.16665 18.25V16.75ZM4.08331 16.6667V15.8333H2.58331V16.6667H4.08331ZM4.08331 15.8333C4.08331 14.4142 5.24753 13.25 6.66665 13.25V11.75C4.4191 11.75 2.58331 13.5858 2.58331 15.8333H4.08331ZM6.66665 13.25H13.3333V11.75H6.66665V13.25ZM13.3333 13.25C14.7524 13.25 15.9166 14.4142 15.9166 15.8333H17.4166C17.4166 13.5858 15.5809 11.75 13.3333 11.75V13.25ZM15.9166 15.8333V16.6667H17.4166V15.8333H15.9166ZM15.9166 16.6667C15.9166 16.6873 15.9089 16.7075 15.8915 16.7249C15.8741 16.7423 15.8539 16.75 15.8333 16.75V18.25C16.7059 18.25 17.4166 17.5392 17.4166 16.6667H15.9166Z" fill="#D3D3D3"/>
</svg>
