<svg width="20" height="20" viewBox="0 0 20 20" fill="none" xmlns="http://www.w3.org/2000/svg">
<path fill-rule="evenodd" clip-rule="evenodd" d="M4.16667 3.25C3.66005 3.25 3.25 3.66005 3.25 4.16667V15.8333C3.25 16.34 3.66005 16.75 4.16667 16.75H15.8333C16.34 16.75 16.75 16.34 16.75 15.8333V4.16667C16.75 3.66005 16.34 3.25 15.8333 3.25H4.16667ZM1.75 4.16667C1.75 2.83162 2.83162 1.75 4.16667 1.75H15.8333C17.1684 1.75 18.25 2.83162 18.25 4.16667V15.8333C18.25 17.1684 17.1684 18.25 15.8333 18.25H4.16667C2.83162 18.25 1.75 17.1684 1.75 15.8333V4.16667Z" fill="#686868"/>
<path fill-rule="evenodd" clip-rule="evenodd" d="M5.08325 5.83325C5.08325 5.41904 5.41904 5.08325 5.83325 5.08325H14.1666C14.5808 5.08325 14.9166 5.41904 14.9166 5.83325C14.9166 6.24747 14.5808 6.58325 14.1666 6.58325H5.83325C5.41904 6.58325 5.08325 6.24747 5.08325 5.83325Z" fill="#686868"/>
<path fill-rule="evenodd" clip-rule="evenodd" d="M5.08325 9.16675C5.08325 8.75253 5.41904 8.41675 5.83325 8.41675H14.1666C14.5808 8.41675 14.9166 8.75253 14.9166 9.16675C14.9166 9.58096 14.5808 9.91675 14.1666 9.91675H5.83325C5.41904 9.91675 5.08325 9.58096 5.08325 9.16675Z" fill="#686868"/>
<path fill-rule="evenodd" clip-rule="evenodd" d="M1.75 12.5C1.75 12.0858 2.08579 11.75 2.5 11.75H6.15167C6.75155 11.75 7.29988 12.0889 7.56776 12.626C7.5678 12.6261 7.56772 12.6259 7.56776 12.626L7.93959 13.3696C7.93961 13.3697 7.93957 13.3696 7.93959 13.3696C7.9544 13.399 7.98368 13.4167 8.015 13.4167H11.985C12.0167 13.4167 12.045 13.399 12.0588 13.3712L12.4317 12.6254C12.7002 12.0899 13.248 11.75 13.8483 11.75H17.5C17.9142 11.75 18.25 12.0858 18.25 12.5C18.25 12.9142 17.9142 13.25 17.5 13.25H13.8483C13.817 13.25 13.7878 13.2675 13.773 13.2969C13.773 13.2969 13.773 13.2968 13.773 13.2969L13.4012 14.0405C13.4012 14.0406 13.4013 14.0403 13.4012 14.0405C13.1333 14.5775 12.5848 14.9167 11.985 14.9167H8.015C7.4147 14.9167 6.86729 14.5776 6.59874 14.042L6.22585 13.2962C6.21201 13.2685 6.18336 13.25 6.15167 13.25H2.5C2.08579 13.25 1.75 12.9142 1.75 12.5Z" fill="#686868"/>
</svg>
