<svg width="20" height="20" viewBox="0 0 20 20" fill="none" xmlns="http://www.w3.org/2000/svg">
<path d="M19.3158 5.41238L14.2205 0.117891C14.148 0.0425781 14.0479 0 13.9434 0H6.34925C5.49937 0 4.80793 0.691172 4.80793 1.5407V6.92309H1.73031C1.09445 6.92309 0.577148 7.44023 0.577148 8.07594V13.8472C0.577148 14.4829 1.09445 15 1.73031 15H4.80793V18.462C4.80793 19.31 5.49937 20 6.34925 20H17.882C18.7319 20 19.4233 19.3104 19.4233 18.4629V5.6791C19.4233 5.57965 19.3848 5.48406 19.3158 5.41238ZM14.0387 1.03832L18.2215 5.38461H14.0387V1.03832ZM1.73031 14.2308C1.51859 14.2308 1.34641 14.0587 1.34641 13.8472V8.07594C1.34641 7.86441 1.51863 7.6923 1.73031 7.6923H12.1163C12.328 7.6923 12.5002 7.86441 12.5002 8.07594V13.8472C12.5002 14.0587 12.328 14.2308 12.1163 14.2308H1.73031ZM18.654 18.4629C18.654 18.8863 18.3077 19.2308 17.8819 19.2308H6.34925C5.92351 19.2308 5.57715 18.8859 5.57715 18.462V15H12.1163C12.7522 15 13.2695 14.4829 13.2695 13.8472V8.07594C13.2695 7.44023 12.7522 6.92309 12.1163 6.92309H5.57715V1.5407C5.57715 1.11527 5.92351 0.769219 6.34925 0.769219H13.2694V5.76922C13.2694 5.98164 13.4417 6.15383 13.6541 6.15383H18.654V18.4629Z" fill="#FF562E"/>
<path d="M5.1752 9.76152C5.0475 9.5955 4.88898 9.48769 4.69969 9.43812C4.57648 9.40507 4.31207 9.38855 3.90641 9.38855H2.83594V12.6923H3.50301V11.4461H3.93797C4.23996 11.4461 4.47059 11.4303 4.62984 11.3987C4.74703 11.3732 4.86234 11.321 4.97578 11.2421C5.08922 11.1632 5.18273 11.0547 5.25637 10.9165C5.33 10.7783 5.3668 10.6077 5.3668 10.4049C5.36676 10.142 5.30289 9.92753 5.1752 9.76152ZM4.60391 10.6709C4.55359 10.7445 4.4841 10.7985 4.39543 10.8331C4.30676 10.8677 4.13102 10.885 3.86809 10.885H3.50301V9.94746H3.82527C4.06566 9.94746 4.22566 9.95496 4.30527 9.97C4.41344 9.98953 4.50285 10.0384 4.57344 10.1165C4.64406 10.1946 4.67937 10.2938 4.67937 10.4139C4.67941 10.5116 4.65422 10.5972 4.60391 10.6709Z" fill="#FF562E"/>
<path d="M8.57363 10.2911C8.50152 10.08 8.39633 9.90164 8.25813 9.75589C8.11992 9.61015 7.95387 9.50875 7.76008 9.45164C7.61586 9.40957 7.40625 9.38855 7.13133 9.38855H5.91211V12.6923H7.16738C7.41379 12.6923 7.61059 12.6691 7.75781 12.6225C7.95465 12.5594 8.1109 12.4715 8.22656 12.3588C8.3798 12.21 8.49774 12.0155 8.58039 11.7751C8.64801 11.5783 8.6818 11.3439 8.6818 11.072C8.6818 10.7625 8.64574 10.5022 8.57363 10.2911ZM7.92457 11.6478C7.87949 11.7958 7.82129 11.9021 7.74992 11.9667C7.67855 12.0313 7.58879 12.0771 7.48063 12.1041C7.39801 12.1252 7.26352 12.1357 7.07723 12.1357H6.57918V9.94746H6.87891C7.15082 9.94746 7.3334 9.95796 7.42652 9.97902C7.55121 10.0061 7.65414 10.0579 7.73527 10.1345C7.81641 10.2112 7.87949 10.3178 7.92457 10.4545C7.96965 10.5912 7.99219 10.7873 7.99219 11.0427C7.99219 11.2981 7.96965 11.4998 7.92457 11.6478Z" fill="#FF562E"/>
<path d="M11.5168 9.94746V9.38855H9.25195V12.6923H9.91902V11.2884H11.2982V10.7294H9.91902V9.94746H11.5168Z" fill="#FF562E"/>
</svg>
