<svg width="10" height="10" viewBox="0 0 10 10" fill="none" xmlns="http://www.w3.org/2000/svg">
<path fill-rule="evenodd" clip-rule="evenodd" d="M0.201179 8.82973C-0.0665273 9.0975 -0.0664861 9.53152 0.201261 9.79923C0.469008 10.0669 0.903069 10.0669 1.17077 9.79916L4.99971 5.96956L8.82897 9.79882C9.09668 10.0665 9.53077 10.0665 9.79847 9.79882C10.0662 9.53111 10.0662 9.09702 9.79847 8.82932L5.96915 4.99999L9.7982 1.17026C10.0658 0.902514 10.0658 0.468453 9.79806 0.200754C9.53036 -0.0669521 9.09627 -0.0669112 8.82856 0.200836L4.99958 4.03049L1.1703 0.201165C0.902583 -0.0665546 0.468515 -0.0665546 0.200795 0.201165C-0.0669317 0.468892 -0.0669317 0.902953 0.200795 1.17068L4.03021 5.00006L0.201179 8.82973Z" fill="#686868"/>
</svg>
