<svg width="20" height="20" viewBox="0 0 20 20" fill="none" xmlns="http://www.w3.org/2000/svg">
<path d="M9.9999 9.25C8.35817 9.25 7.01407 7.90651 7.01407 6.26417H5.51407C5.51407 8.73516 7.52996 10.75 9.9999 10.75V9.25ZM7.01407 6.26417C7.01407 4.61444 8.36552 3.25 9.9999 3.25V1.75C7.52262 1.75 5.51407 3.80056 5.51407 6.26417H7.01407ZM9.9999 3.25C11.6416 3.25 12.9857 4.59349 12.9857 6.23583H14.4857C14.4857 3.76484 12.4698 1.75 9.9999 1.75V3.25ZM12.9857 6.23583C12.9857 7.88556 11.6343 9.25 9.9999 9.25V10.75C12.4772 10.75 14.4857 8.69944 14.4857 6.23583H12.9857ZM15.8333 16.75H4.16659V18.25H15.8333V16.75ZM4.16659 16.75C4.146 16.75 4.12575 16.7423 4.10837 16.7249C4.091 16.7075 4.08325 16.6873 4.08325 16.6667H2.58325C2.58325 17.5392 3.29404 18.25 4.16659 18.25V16.75ZM4.08325 16.6667V15.8333H2.58325V16.6667H4.08325ZM4.08325 15.8333C4.08325 14.4142 5.24747 13.25 6.66658 13.25V11.75C4.41904 11.75 2.58325 13.5858 2.58325 15.8333H4.08325ZM6.66658 13.25H13.3333V11.75H6.66658V13.25ZM13.3333 13.25C14.7524 13.25 15.9166 14.4142 15.9166 15.8333H17.4166C17.4166 13.5858 15.5808 11.75 13.3333 11.75V13.25ZM15.9166 15.8333V16.6667H17.4166V15.8333H15.9166ZM15.9166 16.6667C15.9166 16.6873 15.9088 16.7075 15.8915 16.7249C15.8741 16.7423 15.8538 16.75 15.8333 16.75V18.25C16.7058 18.25 17.4166 17.5392 17.4166 16.6667H15.9166Z" fill="#FF562E"/>
</svg>
