<svg width="20" height="20" viewBox="0 0 20 20" fill="none" xmlns="http://www.w3.org/2000/svg">
<path fill-rule="evenodd" clip-rule="evenodd" d="M14.1703 9.91675C12.3305 9.91539 10.75 11.4946 10.75 13.3342C10.75 15.2207 12.2799 16.7501 14.1667 16.7501C16.054 16.7501 17.5833 15.2201 17.5833 13.3334C17.5833 11.4472 16.0553 9.91812 14.1703 9.91675H14.1703ZM14.1667 18.2501C11.4518 18.2501 9.25 16.0495 9.25 13.3342C9.25 10.6656 11.5028 8.41478 14.1714 8.41675C16.8847 8.41872 19.0833 10.6196 19.0833 13.3334C19.0833 16.0484 16.8826 18.2501 14.1667 18.2501Z" fill="#686868"/>
<path fill-rule="evenodd" clip-rule="evenodd" d="M0.916748 5.70825C0.916748 5.29404 1.25253 4.95825 1.66675 4.95825H17.5001C17.9143 4.95825 18.2501 5.29404 18.2501 5.70825C18.2501 6.12247 17.9143 6.45825 17.5001 6.45825H1.66675C1.25253 6.45825 0.916748 6.12247 0.916748 5.70825Z" fill="#686868"/>
<path fill-rule="evenodd" clip-rule="evenodd" d="M0.916748 4.16667C0.916748 2.83162 1.99837 1.75 3.33341 1.75H15.8334C17.1685 1.75 18.2501 2.83162 18.2501 4.16667V10.8333C18.2501 11.2475 17.9143 11.5833 17.5001 11.5833C17.0859 11.5833 16.7501 11.2475 16.7501 10.8333V4.16667C16.7501 3.66005 16.34 3.25 15.8334 3.25H3.33341C2.82679 3.25 2.41675 3.66005 2.41675 4.16667V11.6667C2.41675 12.1733 2.82679 12.5833 3.33341 12.5833H10.0001C10.4143 12.5833 10.7501 12.9191 10.7501 13.3333C10.7501 13.7475 10.4143 14.0833 10.0001 14.0833H3.33341C1.99837 14.0833 0.916748 13.0017 0.916748 11.6667V4.16667Z" fill="#686868"/>
<path fill-rule="evenodd" clip-rule="evenodd" d="M16.5488 11.8771C16.8417 12.17 16.8417 12.6449 16.5488 12.9378L14.2338 15.2528C14.0932 15.3935 13.9024 15.4725 13.7034 15.4725C13.5045 15.4724 13.3137 15.3934 13.173 15.2526L11.7847 13.8635C11.4919 13.5705 11.492 13.0956 11.785 12.8028C12.078 12.51 12.5529 12.5102 12.8457 12.8031L13.7037 13.6617L15.4882 11.8771C15.7811 11.5842 16.256 11.5842 16.5488 11.8771Z" fill="#686868"/>
</svg>
