<svg width="19" height="19" viewBox="0 0 19 19" fill="none" xmlns="http://www.w3.org/2000/svg">
<path fill-rule="evenodd" clip-rule="evenodd" d="M2.18469 4.1371C2.18469 2.99767 3.10838 2.07397 4.24782 2.07397H12.0806C12.6059 2.07397 13.1097 2.28265 13.4812 2.65411L13.4812 2.65411L15.485 4.65793L15.1077 5.03528L15.485 4.65793C15.8564 5.0293 16.065 5.53297 16.065 6.05817V8.63897C16.065 8.94963 15.8132 9.20147 15.5025 9.20147C15.1918 9.20147 14.94 8.94963 14.94 8.63897V6.05817C14.94 5.83135 14.8499 5.61382 14.6895 5.45342L15.0873 5.05568L14.6895 5.45342L12.6857 3.4496C12.5252 3.28913 12.3076 3.19897 12.0806 3.19897H4.24782C3.72971 3.19897 3.30969 3.61899 3.30969 4.1371V13.8912C3.30969 14.4093 3.72971 14.8293 4.24782 14.8293H8.74969C9.06035 14.8293 9.31219 15.0811 9.31219 15.3918C9.31219 15.7024 9.06035 15.9543 8.74969 15.9543H4.24782C3.10838 15.9543 2.18469 15.0306 2.18469 13.8912V4.1371Z" fill="white"/>
<path fill-rule="evenodd" clip-rule="evenodd" d="M6.49393 2.07397C6.80459 2.07397 7.05643 2.32581 7.05643 2.63647V5.73131C7.05645 5.78334 7.09862 5.82552 7.15066 5.82554H11.0894C11.1414 5.82552 11.1836 5.78334 11.1836 5.73131V2.63647C11.1836 2.32581 11.4355 2.07397 11.7461 2.07397C12.0568 2.07397 12.3086 2.32581 12.3086 2.63647V5.73151C12.3084 6.40455 11.7628 6.95029 11.0898 6.95054H7.15045C6.47742 6.95029 5.93167 6.40475 5.93143 5.73172L5.93143 2.63647C5.93143 2.32581 6.18327 2.07397 6.49393 2.07397Z" fill="white"/>
<path fill-rule="evenodd" clip-rule="evenodd" d="M6.61688 9.57872C6.63114 9.57763 6.64543 9.57709 6.65972 9.57709H9.50001C9.81067 9.57709 10.0625 9.82893 10.0625 10.1396C10.0625 10.4502 9.81067 10.7021 9.50001 10.7021H6.6856C6.47112 10.727 6.30847 10.9102 6.31091 11.1279L6.31098 11.1343H6.31095V15.3915C6.31095 15.7021 6.05911 15.954 5.74845 15.954C5.43779 15.954 5.18595 15.7021 5.18595 15.3915V11.1371C5.17861 10.3223 5.80401 9.64081 6.61688 9.57872Z" fill="white"/>
<path fill-rule="evenodd" clip-rule="evenodd" d="M13.6267 10.7021C12.0726 10.7021 10.8128 11.9619 10.8128 13.516C10.8128 15.0701 12.0726 16.3299 13.6267 16.3299C15.1808 16.3299 16.4406 15.0701 16.4406 13.516C16.4406 11.9619 15.1808 10.7021 13.6267 10.7021ZM9.68781 13.516C9.68781 11.3406 11.4513 9.57709 13.6267 9.57709C15.8021 9.57709 17.5656 11.3406 17.5656 13.516C17.5656 15.6914 15.8021 17.4549 13.6267 17.4549C11.4513 17.4549 9.68781 15.6914 9.68781 13.516Z" fill="white"/>
<path fill-rule="evenodd" clip-rule="evenodd" d="M15.0077 13.1C14.9048 12.987 14.7565 12.916 14.5916 12.916C14.2602 12.916 13.9916 13.1847 13.9916 13.516C13.9916 13.8474 14.2602 14.116 14.5916 14.116C14.923 14.116 15.1916 13.8474 15.1916 13.516C15.1916 13.3512 15.1207 13.2029 15.0077 13.1Z" fill="white"/>
<path fill-rule="evenodd" clip-rule="evenodd" d="M14.0291 13.4785C14.0291 13.1679 14.281 12.916 14.5916 12.916C14.923 12.916 15.1916 13.1847 15.1916 13.516C15.1916 13.8267 14.9398 14.0785 14.6291 14.0785C14.4643 14.0785 14.3159 14.0076 14.2131 13.8946C14.1 13.7917 14.0291 13.6434 14.0291 13.4785Z" fill="white"/>
<path fill-rule="evenodd" clip-rule="evenodd" d="M13.0779 13.1C12.975 12.987 12.8267 12.916 12.6618 12.916C12.3304 12.916 12.0618 13.1847 12.0618 13.516C12.0618 13.8474 12.3304 14.116 12.6618 14.116C12.9932 14.116 13.2618 13.8474 13.2618 13.516C13.2618 13.3512 13.1909 13.2029 13.0779 13.1Z" fill="white"/>
<path fill-rule="evenodd" clip-rule="evenodd" d="M12.0993 13.4785C12.0993 13.1679 12.3512 12.916 12.6618 12.916C12.9932 12.916 13.2618 13.1847 13.2618 13.516C13.2618 13.8267 13.01 14.0785 12.6993 14.0785C12.5345 14.0785 12.3862 14.0076 12.2833 13.8946C12.1703 13.7917 12.0993 13.6434 12.0993 13.4785Z" fill="white"/>
</svg>
