<svg width="20" height="20" viewBox="0 0 20 20" fill="none" xmlns="http://www.w3.org/2000/svg">
<path fill-rule="evenodd" clip-rule="evenodd" d="M3.33333 3.66669C3.28754 3.66669 3.25 3.70423 3.25 3.75002V5.86002C3.25 5.88392 3.26099 5.90789 3.28012 5.92384C3.28013 5.92384 3.28012 5.92384 3.28012 5.92384L8.81345 10.5347C8.98446 10.6772 9.08333 10.8883 9.08333 11.1109V15.8694L10.8704 14.9759C10.8981 14.9621 10.9167 14.9333 10.9167 14.9017V11.1109C10.9167 10.8883 11.0156 10.6772 11.1866 10.5347L16.7199 5.92385C16.7199 5.92384 16.7199 5.92385 16.7199 5.92385C16.7393 5.90764 16.75 5.88435 16.75 5.86002V3.75002C16.75 3.7042 16.7125 3.66669 16.6667 3.66669H3.33333ZM1.75 3.75002C1.75 2.8758 2.45912 2.16669 3.33333 2.16669H16.6667C17.5409 2.16669 18.25 2.87584 18.25 3.75002V5.86002C18.25 6.33068 18.0407 6.77573 17.6801 7.07619L12.4167 11.4622V14.9017C12.4167 15.5016 12.0778 16.0499 11.5407 16.3178C11.5406 16.3178 11.5408 16.3177 11.5407 16.3178L9.27124 17.4525C8.49658 17.8398 7.58333 17.2775 7.58333 16.4092V11.4622L2.31988 7.07619C1.95901 6.77548 1.75 6.32945 1.75 5.86002V3.75002Z" fill="#FF562E"/>
<path fill-rule="evenodd" clip-rule="evenodd" d="M1.8501 6.25C1.8501 5.83579 2.18588 5.5 2.6001 5.5H17.4001C17.8143 5.5 18.1501 5.83579 18.1501 6.25C18.1501 6.66421 17.8143 7 17.4001 7H2.6001C2.18588 7 1.8501 6.66421 1.8501 6.25Z" fill="#FF562E"/>
</svg>
