<svg width="20" height="20" viewBox="0 0 20 20" fill="none" xmlns="http://www.w3.org/2000/svg">
<path fill-rule="evenodd" clip-rule="evenodd" d="M6.66659 3.25C6.6208 3.25 6.58325 3.28755 6.58325 3.33333V6.66667C6.58325 7.08088 6.24747 7.41667 5.83325 7.41667C5.41904 7.41667 5.08325 7.08088 5.08325 6.66667V3.33333C5.08325 2.45912 5.79237 1.75 6.66659 1.75H13.3333C14.2075 1.75 14.9166 2.45912 14.9166 3.33333V6.66667C14.9166 7.08088 14.5808 7.41667 14.1666 7.41667C13.7524 7.41667 13.4166 7.08088 13.4166 6.66667V3.33333C13.4166 3.28755 13.379 3.25 13.3333 3.25H6.66659Z" fill="#FF562E"/>
<path fill-rule="evenodd" clip-rule="evenodd" d="M4.16667 7.41669C3.66005 7.41669 3.25 7.82673 3.25 8.33335V12.5C3.25 13.0066 3.66005 13.4167 4.16667 13.4167H5.83333C6.24755 13.4167 6.58333 13.7525 6.58333 14.1667C6.58333 14.5809 6.24755 14.9167 5.83333 14.9167H4.16667C2.83162 14.9167 1.75 13.8351 1.75 12.5V8.33335C1.75 6.99831 2.83162 5.91669 4.16667 5.91669H15.8333C17.1684 5.91669 18.25 6.99831 18.25 8.33335V12.5C18.25 13.8351 17.1684 14.9167 15.8333 14.9167H14.1667C13.7525 14.9167 13.4167 14.5809 13.4167 14.1667C13.4167 13.7525 13.7525 13.4167 14.1667 13.4167H15.8333C16.34 13.4167 16.75 13.0066 16.75 12.5V8.33335C16.75 7.82673 16.34 7.41669 15.8333 7.41669H4.16667Z" fill="#FF562E"/>
<path fill-rule="evenodd" clip-rule="evenodd" d="M5.08325 11.5C5.08325 11.0858 5.41904 10.75 5.83325 10.75H14.1666C14.5808 10.75 14.9166 11.0858 14.9166 11.5V16.6667C14.9166 17.5409 14.2075 18.25 13.3333 18.25H6.66659C5.79237 18.25 5.08325 17.5409 5.08325 16.6667V11.5ZM6.58325 12.25V16.6667C6.58325 16.7125 6.6208 16.75 6.66659 16.75H13.3333C13.379 16.75 13.4166 16.7125 13.4166 16.6667V12.25H6.58325Z" fill="#FF562E"/>
<path fill-rule="evenodd" clip-rule="evenodd" d="M5.08325 9.16669C5.08325 8.75247 5.41904 8.41669 5.83325 8.41669H6.66659C7.0808 8.41669 7.41659 8.75247 7.41659 9.16669C7.41659 9.5809 7.0808 9.91669 6.66659 9.91669H5.83325C5.41904 9.91669 5.08325 9.5809 5.08325 9.16669Z" fill="#FF562E"/>
</svg>
