<svg width="20" height="20" viewBox="0 0 20 20" fill="none" xmlns="http://www.w3.org/2000/svg">
<path d="M13.6585 0.716523C13.6295 0.687505 13.595 0.664488 13.5571 0.648784C13.5192 0.63308 13.4785 0.624999 13.4375 0.625H4.6875C4.10754 0.625662 3.55153 0.856342 3.14143 1.26643C2.73134 1.67653 2.50066 2.23254 2.5 2.8125V17.1875C2.50066 17.7675 2.73134 18.3235 3.14143 18.7336C3.55153 19.1437 4.10754 19.3743 4.6875 19.375H15.3125C15.8925 19.3743 16.4485 19.1437 16.8586 18.7336C17.2687 18.3235 17.4993 17.7675 17.5 17.1875V4.6875C17.5 4.64646 17.4919 4.60582 17.4762 4.56791C17.4605 4.52999 17.4375 4.49554 17.4085 4.46652L13.6585 0.716523ZM13.75 1.69191L16.4331 4.375H15.3125C14.8982 4.37453 14.5011 4.20977 14.2082 3.91684C13.9152 3.62392 13.7505 3.22676 13.75 2.8125V1.69191ZM4.6875 1.25H13.125V2.8125C13.1257 3.39246 13.3563 3.94847 13.7664 4.35857C14.1765 4.76866 14.7325 4.99934 15.3125 5H16.875V13.75H3.125V2.8125C3.12547 2.39824 3.29023 2.00108 3.58316 1.70816C3.87608 1.41523 4.27324 1.25047 4.6875 1.25ZM15.3125 18.75H4.6875C4.27324 18.7495 3.87608 18.5848 3.58316 18.2918C3.29023 17.9989 3.12547 17.6018 3.125 17.1875V14.375H16.875V17.1875C16.8745 17.6018 16.7098 17.9989 16.4168 18.2918C16.1239 18.5848 15.7268 18.7495 15.3125 18.75Z" fill="#FF562E"/>
<path d="M10.625 17.5H9.6875V15.3125C9.6875 15.2296 9.65458 15.1501 9.59597 15.0915C9.53737 15.0329 9.45788 15 9.375 15C9.29212 15 9.21263 15.0329 9.15403 15.0915C9.09542 15.1501 9.0625 15.2296 9.0625 15.3125V17.8125C9.0625 17.8954 9.09542 17.9749 9.15403 18.0335C9.21263 18.0921 9.29212 18.125 9.375 18.125H10.625C10.7079 18.125 10.7874 18.0921 10.846 18.0335C10.9046 17.9749 10.9375 17.8954 10.9375 17.8125C10.9375 17.7296 10.9046 17.6501 10.846 17.5915C10.7874 17.5329 10.7079 17.5 10.625 17.5Z" fill="#FF562E"/>
<path d="M8.26488 15.033C8.19075 14.9959 8.10494 14.9898 8.02631 15.016C7.94769 15.0422 7.88269 15.0986 7.84562 15.1727L7.50011 15.8637L7.15461 15.1727C7.11715 15.0993 7.05218 15.0436 6.97385 15.0178C6.89552 14.992 6.81018 14.9983 6.73643 15.0352C6.66268 15.072 6.6065 15.1366 6.58012 15.2147C6.55375 15.2928 6.55932 15.3782 6.59562 15.4523L7.15074 16.5625L6.59562 17.6727C6.57689 17.7095 6.56561 17.7495 6.56245 17.7907C6.55928 17.8318 6.56428 17.8731 6.57717 17.9123C6.59006 17.9515 6.61057 17.9877 6.63753 18.0189C6.66449 18.0501 6.69737 18.0757 6.73425 18.0942C6.77114 18.1126 6.81132 18.1236 6.85246 18.1264C6.89361 18.1293 6.93491 18.1239 6.97398 18.1107C7.01306 18.0975 7.04914 18.0767 7.08014 18.0495C7.11114 18.0223 7.13645 17.9893 7.15461 17.9522L7.50011 17.2612L7.84562 17.9522C7.86378 17.9893 7.88909 18.0223 7.92009 18.0495C7.95109 18.0767 7.98717 18.0975 8.02624 18.1107C8.06532 18.1239 8.10662 18.1293 8.14777 18.1264C8.18891 18.1236 8.22908 18.1126 8.26597 18.0942C8.30286 18.0757 8.33573 18.0501 8.36269 18.0189C8.38965 17.9877 8.41017 17.9515 8.42305 17.9123C8.43594 17.8731 8.44095 17.8318 8.43778 17.7907C8.43461 17.7495 8.42334 17.7095 8.4046 17.6727L7.84949 16.5625L8.4046 15.4523C8.44167 15.3781 8.44777 15.2923 8.42157 15.2137C8.39537 15.1351 8.339 15.0701 8.26488 15.033Z" fill="#FF562E"/>
<path d="M12.5 15.625H13.125C13.2079 15.625 13.2874 15.5921 13.346 15.5335C13.4046 15.4749 13.4375 15.3954 13.4375 15.3125C13.4375 15.2296 13.4046 15.1501 13.346 15.0915C13.2874 15.0329 13.2079 15 13.125 15H12.5C12.2514 15 12.0129 15.0988 11.8371 15.2746C11.6613 15.4504 11.5625 15.6889 11.5625 15.9375C11.5625 16.1861 11.6613 16.4246 11.8371 16.6004C12.0129 16.7762 12.2514 16.875 12.5 16.875C12.5829 16.875 12.6624 16.9079 12.721 16.9665C12.7796 17.0251 12.8125 17.1046 12.8125 17.1875C12.8125 17.2704 12.7796 17.3499 12.721 17.4085C12.6624 17.4671 12.5829 17.5 12.5 17.5H11.875C11.7921 17.5 11.7126 17.5329 11.654 17.5915C11.5954 17.6501 11.5625 17.7296 11.5625 17.8125C11.5625 17.8954 11.5954 17.9749 11.654 18.0335C11.7126 18.0921 11.7921 18.125 11.875 18.125H12.5C12.7486 18.125 12.9871 18.0262 13.1629 17.8504C13.3387 17.6746 13.4375 17.4361 13.4375 17.1875C13.4375 16.9389 13.3387 16.7004 13.1629 16.5246C12.9871 16.3488 12.7486 16.25 12.5 16.25C12.4171 16.25 12.3376 16.2171 12.279 16.1585C12.2204 16.0999 12.1875 16.0204 12.1875 15.9375C12.1875 15.8546 12.2204 15.7751 12.279 15.7165C12.3376 15.6579 12.4171 15.625 12.5 15.625Z" fill="#FF562E"/>
<path d="M5.3125 11.875H14.6875C14.7704 11.875 14.8499 11.8421 14.9085 11.7835C14.9671 11.7249 15 11.6454 15 11.5625V5.9375C15 5.85462 14.9671 5.77513 14.9085 5.71653C14.8499 5.65792 14.7704 5.625 14.6875 5.625H5.3125C5.22962 5.625 5.15013 5.65792 5.09153 5.71653C5.03292 5.77513 5 5.85462 5 5.9375V11.5625C5 11.6454 5.03292 11.7249 5.09153 11.7835C5.15013 11.8421 5.22962 11.875 5.3125 11.875ZM5.625 10H8.125V11.25H5.625V10ZM11.25 8.125V9.375H8.75V8.125H11.25ZM8.75 7.5V6.25H11.25V7.5H8.75ZM11.875 8.125H14.375V9.375H11.875V8.125ZM11.25 10V11.25H8.75V10H11.25ZM8.125 9.375H5.625V8.125H8.125V9.375ZM11.875 11.25V10H14.375V11.25H11.875ZM14.375 7.5H11.875V6.25H14.375V7.5ZM8.125 6.25V7.5H5.625V6.25H8.125Z" fill="#FF562E"/>
</svg>
