<svg width="50" height="50" viewBox="0 0 50 50" fill="none" xmlns="http://www.w3.org/2000/svg">
<path d="M43.75 20.8333V16.6666C43.7492 15.9359 43.5564 15.2183 43.1907 14.5857C42.825 13.9531 42.2995 13.4278 41.6667 13.0625L27.0833 4.72913C26.4499 4.36342 25.7314 4.1709 25 4.1709C24.2686 4.1709 23.5501 4.36342 22.9167 4.72913L8.33333 13.0625C7.70055 13.4278 7.17496 13.9531 6.80929 14.5857C6.44363 15.2183 6.25075 15.9359 6.25 16.6666V33.3333C6.25075 34.064 6.44363 34.7816 6.80929 35.4142C7.17496 36.0468 7.70055 36.5721 8.33333 36.9375L22.9167 45.2708C23.5501 45.6365 24.2686 45.829 25 45.829C25.7314 45.829 26.4499 45.6365 27.0833 45.2708L31.25 42.8958" stroke="#2D2D39" stroke-width="3" stroke-linecap="round" stroke-linejoin="round"/>
<path d="M34.3753 19.5833L15.7295 8.83325" stroke="#2D2D39" stroke-width="3" stroke-linecap="round" stroke-linejoin="round"/>
<path d="M6.85449 14.5833L25.0003 24.9999L43.1462 14.5833" stroke="#2D2D39" stroke-width="3" stroke-linecap="round" stroke-linejoin="round"/>
<path d="M25 45.8333V25" stroke="#2D2D39" stroke-width="3" stroke-linecap="round" stroke-linejoin="round"/>
<path d="M38.5413 37.4999C41.4178 37.4999 43.7497 35.1681 43.7497 32.2916C43.7497 29.4151 41.4178 27.0833 38.5413 27.0833C35.6649 27.0833 33.333 29.4151 33.333 32.2916C33.333 35.1681 35.6649 37.4999 38.5413 37.4999Z" stroke="#2D2D39" stroke-width="3" stroke-linecap="round" stroke-linejoin="round"/>
<path d="M42.2295 35.9792L45.8337 39.5834" stroke="#2D2D39" stroke-width="3" stroke-linecap="round" stroke-linejoin="round"/>
</svg>
