<svg width="50" height="50" viewBox="0 0 50 50" fill="none" xmlns="http://www.w3.org/2000/svg">
<path d="M20.8337 35.4167H29.167V10.4167H4.16699V35.4167H10.417" stroke="#2D2D39" stroke-width="3" stroke-linecap="round" stroke-linejoin="round"/>
<path d="M41.667 35.4167H45.8337V28.4583C45.8345 27.3637 45.6197 26.2795 45.2015 25.2679C44.7832 24.2563 44.1698 23.337 43.3962 22.5625L39.5837 18.75H29.167" stroke="#2D2D39" stroke-width="3" stroke-linecap="round" stroke-linejoin="round"/>
<path d="M29.167 35.4167H31.2503" stroke="#2D2D39" stroke-width="3" stroke-linecap="round" stroke-linejoin="round"/>
<path d="M15.6253 41.6667C18.5018 41.6667 20.8337 39.3348 20.8337 36.4583C20.8337 33.5819 18.5018 31.25 15.6253 31.25C12.7488 31.25 10.417 33.5819 10.417 36.4583C10.417 39.3348 12.7488 41.6667 15.6253 41.6667Z" stroke="#2D2D39" stroke-width="3" stroke-linecap="round" stroke-linejoin="round"/>
<path d="M36.4583 41.6667C39.3348 41.6667 41.6667 39.3348 41.6667 36.4583C41.6667 33.5819 39.3348 31.25 36.4583 31.25C33.5819 31.25 31.25 33.5819 31.25 36.4583C31.25 39.3348 33.5819 41.6667 36.4583 41.6667Z" stroke="#2D2D39" stroke-width="3" stroke-linecap="round" stroke-linejoin="round"/>
</svg>
