<?xml version="1.0" encoding="utf-8"?>
<svg xmlns="http://www.w3.org/2000/svg" xmlns:xlink="http://www.w3.org/1999/xlink">
  <symbol viewBox="0 0 11 18" id="ar-sm-bottom" xmlns="http://www.w3.org/2000/svg">
    <path d="M1 12l4.64 5L10 12" />
    <path d="M5 0h1v17H5z" />
  </symbol>
  <symbol viewBox="0 0 11 41" id="arrow-advice" xmlns="http://www.w3.org/2000/svg">
    <path fill-rule="evenodd" clip-rule="evenodd" d="M5 0h1v38.697l3.628-4.032.744.67L5.5 40.746.628 35.334l.744-.669L5 38.698V0z" />
  </symbol>
  <symbol viewBox="0 0 11 7" id="arrow-advice-up" xmlns="http://www.w3.org/2000/svg">
    <path d="M10 6.05l-4.5-5-4.5 5" />
  </symbol>
  <symbol viewBox="0 0 126 11" id="arrow-long" xmlns="http://www.w3.org/2000/svg">
    <path d="M120 10l5-4.64L120 1" />
    <path d="M0 6V5h125v1z" />
  </symbol>
  <symbol viewBox="0 0 101 11" id="btn-a" xmlns="http://www.w3.org/2000/svg">
    <path d="M95 10l5-4.64L95 1" />
    <path d="M0 6V5h100v1z" />
  </symbol>
  <symbol viewBox="0 0 10 10" id="cross" xmlns="http://www.w3.org/2000/svg">
    <rect x="3.846" width="2.308" height="10" rx="1.154" />
    <rect x="10" y="3.846" width="2.308" height="10" rx="1.154" transform="rotate(90 10 3.846)" />
  </symbol>
  <symbol viewBox="0 0 24 24" id="currency_kzt" xmlns="http://www.w3.org/2000/svg">
    <path d="M5 3h14v2H5V3zm0 3h14v2h-6v13h-2V8H5V6z" />
  </symbol>
  <symbol viewBox="0 0 201 16" id="fitting-arrow" xmlns="http://www.w3.org/2000/svg">
    <path d="M192 15.006l8-7.217-8-6.783" />
    <path d="M0 9.006v-1h200v1z" />
  </symbol>
  <symbol viewBox="0 0 61 44" id="note-quotes" xmlns="http://www.w3.org/2000/svg">
    <g clip-path="url(#iclip0_869_115)">
      <path d="M38.904 43.447c.455-1.623.877-3.242 1.359-4.827.861-2.84 1.665-5.702 2.675-8.486.555-1.524.033-2.19-1.256-2.759-3.489-1.524-6.141-3.978-7.558-7.59-2.91-7.44.252-15.896 8.146-18.893 7.465-2.84 15.736 1.486 18.017 8.857 1.426 4.61.738 8.952-2.01 12.973-4.192 6.16-8.324 12.365-12.486 18.543-2.1 3.111-1.86 3.142-6.887 2.182zm-33.049 0c.452-1.623.874-3.242 1.359-4.827.859-2.84 1.665-5.702 2.675-8.486.552-1.524.032-2.19-1.256-2.759-3.486-1.524-6.141-3.978-7.555-7.59-2.914-7.44.25-15.896 8.143-18.893 7.467-2.84 15.736 1.486 18.016 8.857 1.427 4.61.739 8.952-2.01 12.973-4.194 6.16-8.326 12.365-12.487 18.543-2.1 3.111-1.86 3.142-6.885 2.182z" />
    </g>
    <defs>
      <clipPath id="iclip0_869_115">
        <path d="M0 0h61v44H0z" />
      </clipPath>
    </defs>
  </symbol>
  <symbol viewBox="0 0 65 11" id="sl-next" xmlns="http://www.w3.org/2000/svg">
    <path d="M59 10l5-4.64L59 1" />
    <path d="M0 6V5h64v1z" />
  </symbol>
  <symbol viewBox="0 0 65 11" id="sl-prev" xmlns="http://www.w3.org/2000/svg">
    <path d="M6 1L1 5.64 6 10" />
    <path d="M65 5v1H1V5z" />
  </symbol>
  <symbol viewBox="0 0 20 20" id="address" xmlns="http://www.w3.org/2000/svg">
    <path fill-rule="evenodd" clip-rule="evenodd" d="M10.73 7.83a1.032 1.032 0 00-1.46 0l-.53-.53.53.53a1.033 1.033 0 101.46 0zm1.06-1.061a2.532 2.532 0 10-3.58 3.581 2.532 2.532 0 003.582-3.58" />
    <path fill-rule="evenodd" clip-rule="evenodd" d="M6.567 11.858a4.589 4.589 0 01-1.65-3.51l1.65 3.51zm0 0l1.913 1.594a6.084 6.084 0 011.52 1.9 6.091 6.091 0 011.52-1.9l1.912-1.594a4.587 4.587 0 001.651-3.51C15.075 5.212 12.486 3.362 10 3.362s-5.075 1.85-5.083 4.986m11.666 0v-.015C16.567 4.217 13.14 1.862 10 1.862S3.433 4.217 3.417 8.333v.047a6.089 6.089 0 002.19 4.63l1.913 1.595a4.588 4.588 0 011.415 2.073l.354 1.06a.75.75 0 001.422 0l.354-1.06c.27-.81.76-1.527 1.415-2.074l1.913-1.593a6.087 6.087 0 002.19-4.631v-.032z" />
  </symbol>
  <symbol viewBox="0 0 20 20" id="anchored" xmlns="http://www.w3.org/2000/svg">
    <path fill-rule="evenodd" clip-rule="evenodd" d="M10 11.75a.75.75 0 01.75.75v4.167a.75.75 0 01-1.5 0V12.5a.75.75 0 01.75-.75z" />
    <path fill-rule="evenodd" clip-rule="evenodd" d="M4.667 4.167c0-.875.709-1.584 1.583-1.584h7.5c.874 0 1.583.71 1.583 1.584v.387c0 .53-.264 1.023-.703 1.317l-1.797 1.197v1.713l2.256 1.611a1.574 1.574 0 01-.914 2.858h-8.35a1.575 1.575 0 01-.915-2.857L7.167 8.78V7.068L5.372 5.872a1.584 1.584 0 01-.705-1.318v-.387zm1.158 7.583h8.35a.075.075 0 00.044-.136l-2.572-1.837a.75.75 0 01-.314-.61v-2.5a.75.75 0 01.334-.624l2.128-1.419a.085.085 0 00.038-.07v-.387a.084.084 0 00-.083-.084h-7.5a.084.084 0 00-.083.084v.387c0 .029.014.055.036.069l2.13 1.42a.75.75 0 01.334.624v2.5a.75.75 0 01-.314.61l-2.571 1.837a.075.075 0 00.043.136z" />
  </symbol>
  <symbol viewBox="0 0 25 25" id="basket" xmlns="http://www.w3.org/2000/svg">
    <path d="M6.22 7.65a.74.74 0 01-.73-.59l-.57-2.53H3.51a.75.75 0 010-1.5h2a.74.74 0 01.73.58L7 6.74a.75.75 0 01-.57.89.44.44 0 01-.21.02z" />
    <path d="M17.84 17H9.07a1.81 1.81 0 01-1.75-1.42L5.48 7.06a.79.79 0 01.15-.63.76.76 0 01.59-.28H19.4a1.8 1.8 0 011.76 2.17l-1.57 7.29A1.81 1.81 0 0117.84 17zM7.15 7.65l1.64 7.65a.29.29 0 00.28.23h8.77a.29.29 0 00.28-.24L19.69 8a.32.32 0 00-.06-.24.29.29 0 00-.23-.11H7.15zm11.04 13.93a1.15 1.15 0 01-1.14-1.14 1.14 1.14 0 111.14 1.14zm-8.96 0a1.141 1.141 0 01-1.06-.7 1.09 1.09 0 01-.08-.44 1.07 1.07 0 01.33-.8 1.109 1.109 0 01.81-.34 1.14 1.14 0 110 2.28z" />
  </symbol>
  <symbol viewBox="0 0 25 25" id="cabinet" xmlns="http://www.w3.org/2000/svg">
    <path d="M12.5 11.75a3.93 3.93 0 01-3.92-3.92h-1.5a5.43 5.43 0 005.42 5.42v-1.5zM8.58 7.83a4 4 0 013.92-3.95v-1.5a5.46 5.46 0 00-5.42 5.45h1.5zm3.92-3.95a3.92 3.92 0 013.92 3.91h1.5a5.43 5.43 0 00-5.42-5.41v1.5zm3.92 3.91a4 4 0 01-3.92 4v1.5a5.47 5.47 0 005.42-5.46l-1.5-.04zm3.37 13.34H5.21v1.5h14.58v-1.5zm-14.58 0a.3.3 0 01-.29-.3h-1.5a1.8 1.8 0 001.79 1.8v-1.5zm-.29-.3v-1h-1.5v1h1.5zm0-1a3.42 3.42 0 013.41-3.41v-1.5a4.93 4.93 0 00-4.91 4.91h1.5zm3.41-3.41h8.34v-1.5H8.33v1.5zm8.34 0a3.42 3.42 0 013.41 3.41h1.5a4.93 4.93 0 00-4.91-4.91v1.5zm3.41 3.41v1h1.5v-1h-1.5zm0 1a.3.3 0 01-.29.3v1.5a1.8 1.8 0 001.79-1.8h-1.5z" />
  </symbol>
  <symbol viewBox="0 0 14 14" id="check" xmlns="http://www.w3.org/2000/svg">
    <path d="M5.662 11.154a.582.582 0 01-.824 0L1.544 7.86a.875.875 0 010-1.237l.413-.413a.875.875 0 011.237 0L5.25 8.266l5.556-5.556a.874.874 0 011.238 0l.412.413a.874.874 0 010 1.237l-6.794 6.794z" />
  </symbol>
  <symbol viewBox="0 0 10 10" id="close" xmlns="http://www.w3.org/2000/svg">
    <g clip-path="url(#afclip0_99_4424)">
      <path d="M.948 9.937a.947.947 0 01-.673-.227.947.947 0 010-1.336L8.317.333A.947.947 0 019.7 1.62L1.611 9.71a.947.947 0 01-.663.227z" />
      <path d="M8.98 9.937a.947.947 0 01-.663-.274L.275 1.62A.947.947 0 011.611.285L9.7 8.327a.947.947 0 010 1.383.947.947 0 01-.72.227z" />
    </g>
    <defs>
      <clipPath id="afclip0_99_4424">
        <path d="M0 0h10v10H0z" />
      </clipPath>
    </defs>
  </symbol>
  <symbol viewBox="0 0 20 20" id="com-offers" xmlns="http://www.w3.org/2000/svg">
    <path fill-rule="evenodd" clip-rule="evenodd" d="M3.417 4.167A2.416 2.416 0 015.833 1.75h5.977c.64 0 1.256.255 1.709.708l2.356 2.357c.453.453.708 1.068.708 1.708v9.31a2.416 2.416 0 01-2.416 2.417H5.833a2.416 2.416 0 01-2.416-2.417V4.167zm2.416-.917a.916.916 0 00-.916.917v11.666c0 .507.41.917.916.917h8.334c.506 0 .916-.41.916-.917v-9.31a.917.917 0 00-.268-.648L12.458 3.52a.917.917 0 00-.648-.269H5.833z" />
    <path fill-rule="evenodd" clip-rule="evenodd" d="M11.667 1.75a.75.75 0 01.75.75v3.333c0 .046.037.084.083.084h3.333a.75.75 0 010 1.5H12.5c-.874 0-1.583-.71-1.583-1.584V2.5a.75.75 0 01.75-.75zM6.546 13.605a.754.754 0 111.066 1.067.754.754 0 01-1.066-1.067zm-.629-4.442a.75.75 0 01.75-.75h6.666a.75.75 0 010 1.5H6.667a.75.75 0 01-.75-.75zm0 2.5a.75.75 0 01.75-.75h6.666a.75.75 0 010 1.5H6.667a.75.75 0 01-.75-.75zm6.463 1.97a.754.754 0 111.066 1.067.754.754 0 01-1.067-1.067zm-2.913-.008a.754.754 0 111.066 1.067.754.754 0 01-1.066-1.067z" />
  </symbol>
  <symbol viewBox="0 0 20 20" id="delete" xmlns="http://www.w3.org/2000/svg">
    <path fill-rule="evenodd" clip-rule="evenodd" d="M3.417 5.833a.75.75 0 01.75-.75h11.666a.75.75 0 010 1.5H4.167a.75.75 0 01-.75-.75z" />
    <path fill-rule="evenodd" clip-rule="evenodd" d="M5 5.083a.75.75 0 01.75.75V15c0 .507.41.917.917.917h6.666c.507 0 .917-.41.917-.917V5.833a.75.75 0 011.5 0V15a2.416 2.416 0 01-2.417 2.417H6.667A2.416 2.416 0 014.25 15V5.833a.75.75 0 01.75-.75zm1.75-1.958a.75.75 0 01.75-.75h5a.75.75 0 010 1.5h-5a.75.75 0 01-.75-.75z" />
    <path fill-rule="evenodd" clip-rule="evenodd" d="M8.334 8.417a.75.75 0 01.75.75v4.166a.75.75 0 01-1.5 0V9.167a.75.75 0 01.75-.75zm3.333 0a.75.75 0 01.75.75v4.166a.75.75 0 11-1.5 0V9.167a.75.75 0 01.75-.75z" />
  </symbol>
  <symbol viewBox="0 0 20 20" id="dogovor" xmlns="http://www.w3.org/2000/svg">
    <path fill-rule="evenodd" clip-rule="evenodd" d="M8.335 2.448l-.918 1.148v.57c0 .047.037.084.083.084h5a.084.084 0 00.083-.083v-.57l-.918-1.149a.084.084 0 00-.065-.031H8.4a.084.084 0 00-.065.031zm4.998.885l.586-.468-1.083-1.354A1.584 1.584 0 0011.6.916H8.4c-.48 0-.935.218-1.235.593L6.08 2.865a.75.75 0 00-.164.472v-.004h.75v.75a.75.75 0 01-.75-.746v.83c0 .874.709 1.583 1.583 1.583h5c.874 0 1.583-.709 1.583-1.583v-.834h-.75z" />
    <path fill-rule="evenodd" clip-rule="evenodd" d="M2.583 5A2.416 2.416 0 015 2.583h1.667a.75.75 0 110 1.5H5A.916.916 0 004.083 5v10.834c0 .506.41.916.917.916h10c.507 0 .917-.41.917-.916V5A.916.916 0 0015 4.083h-1.667a.75.75 0 110-1.5H15A2.416 2.416 0 0117.417 5v10.834A2.416 2.416 0 0115 18.25H5a2.416 2.416 0 01-2.417-2.416V5z" />
    <path fill-rule="evenodd" clip-rule="evenodd" d="M5.917 9.167a.75.75 0 01.75-.75h6.666a.75.75 0 010 1.5H6.666a.75.75 0 01-.75-.75zm0 4.167a.75.75 0 01.75-.75h6.666a.75.75 0 010 1.5H6.666a.75.75 0 01-.75-.75z" />
  </symbol>
  <symbol viewBox="0 0 8 8" id="down-arrow" xmlns="http://www.w3.org/2000/svg">
    <path d="M7.872 2.032l-.262-.264a.435.435 0 00-.31-.127.435.435 0 00-.309.127l-2.99 2.99L1.01 1.765a.434.434 0 00-.31-.128.435.435 0 00-.309.128l-.262.262a.438.438 0 000 .62l3.563 3.575c.083.083.192.14.31.14h.002a.447.447 0 00.31-.14l3.56-3.566a.442.442 0 000-.624z" />
  </symbol>
  <symbol viewBox="0 0 30 30" id="download" xmlns="http://www.w3.org/2000/svg">
    <path fill-rule="evenodd" clip-rule="evenodd" d="M15 8a.75.75 0 01.75.75v8.75a.75.75 0 01-1.5 0V8.75A.75.75 0 0115 8z" />
    <path fill-rule="evenodd" clip-rule="evenodd" d="M10.72 13.22a.75.75 0 011.06 0L15 16.44l3.22-3.22a.75.75 0 111.06 1.06l-3.75 3.75a.75.75 0 01-1.06 0l-3.75-3.75a.75.75 0 010-1.06zm-.22 8.03a.75.75 0 01.75-.75h7.5a.75.75 0 010 1.5h-7.5a.75.75 0 01-.75-.75z" />
    <path fill-rule="evenodd" clip-rule="evenodd" d="M22.425 7.575c-4.1-4.1-10.75-4.1-14.85 0s-4.1 10.75 0 14.85l-.53.53.53-.53c4.1 4.1 10.75 4.1 14.85 0s4.1-10.749 0-14.85zm1.06-1.061c-4.687-4.686-12.284-4.685-16.97 0-4.687 4.687-4.687 12.285 0 16.971 4.686 4.687 12.284 4.687 16.97 0 4.687-4.686 4.687-12.284 0-16.97v-.001zm-16.97 0l.53.531-.53-.53z" />
  </symbol>
  <symbol viewBox="0 0 16 16" id="edit" xmlns="http://www.w3.org/2000/svg">
    <path d="M11.46 7.214L9.175 4.927" />
    <path clip-rule="evenodd" d="M4.41 14.014H2.377v-2.032c0-.165.066-.325.183-.441l8.33-8.335a.624.624 0 01.883 0l1.406 1.407a.625.625 0 010 .884L4.85 13.83a.623.623 0 01-.44.183z" />
  </symbol>
  <symbol viewBox="0 0 20 20" id="exit" xmlns="http://www.w3.org/2000/svg">
    <path d="M7.5 18.58c-.453 0-.897-.128-1.28-.37l-3.33-2.08a2.39 2.39 0 01-1.14-2V4.17a2.42 2.42 0 013.7-2L8.78 4.2a2.42 2.42 0 011.14 2.05v9.91a2.38 2.38 0 01-1.25 2.11c-.356.203-.76.31-1.17.31zM4.17 3.25a.92.92 0 00-.45.12.9.9 0 00-.47.8v9.91a.91.91 0 00.43.77L7 16.94a.93.93 0 001.41-.78V6.25A.89.89 0 008 5.48L4.65 3.39a1 1 0 00-.48-.14zM17.5 9.92h-5a.75.75 0 110-1.5h5a.75.75 0 110 1.5z" />
    <path d="M15.83 11.58a.74.74 0 01-.53-.22.75.75 0 010-1.06l1.14-1.13L15.3 8a.75.75 0 011.06-1L18 8.64a.75.75 0 010 1.06l-1.67 1.66a.71.71 0 01-.5.22zm-3.33 5H9.17a.75.75 0 110-1.5h3.33a.92.92 0 00.92-.91v-.84a.75.75 0 111.5 0v.84a2.42 2.42 0 01-2.42 2.41zm1.67-10.83a.75.75 0 01-.75-.75v-.83a.92.92 0 00-.92-.92H4.17a.75.75 0 010-1.5h8.33a2.42 2.42 0 012.42 2.42V5a.76.76 0 01-.75.75z" />
  </symbol>
  <symbol viewBox="0 0 20 20" id="info" xmlns="http://www.w3.org/2000/svg">
    <path fill-rule="evenodd" clip-rule="evenodd" d="M14.773 5.227a6.75 6.75 0 00-9.546 9.546l-.475.475.475-.475a6.75 6.75 0 109.546-9.546zm1.06-1.06a8.25 8.25 0 00-11.667 0h11.668zm0 0a8.25 8.25 0 11-11.667 0" />
    <path fill-rule="evenodd" clip-rule="evenodd" d="M4.843 15.894c.424-2.028 2.723-3.31 5.157-3.31s4.733 1.282 5.157 3.31a.75.75 0 11-1.469.307c-.216-1.039-1.613-2.118-3.688-2.118s-3.472 1.079-3.688 2.118a.75.75 0 01-1.469-.307zm6.394-8.798A1.75 1.75 0 108.763 9.57a1.75 1.75 0 002.474-2.475zm1.061-1.06a3.25 3.25 0 10-4.596 4.595 3.25 3.25 0 004.596-4.596z" />
  </symbol>
  <symbol viewBox="0 0 20 20" id="like" xmlns="http://www.w3.org/2000/svg">
    <path fill-rule="evenodd" clip-rule="evenodd" d="M6.92 4.083c-2.123 0-3.67 2.03-3.67 4.046 0 .975.383 1.95 1.024 2.893.64.943 1.508 1.813 2.406 2.56a21.377 21.377 0 002.483 1.77 16.75 16.75 0 00.837.483 21.374 21.374 0 003.32-2.253c.898-.747 1.767-1.617 2.406-2.56.641-.944 1.024-1.918 1.024-2.893 0-2.016-1.547-4.046-3.67-4.046-1.232 0-2.033.605-2.51 1.163a.75.75 0 01-1.14 0c-.477-.558-1.278-1.163-2.51-1.163zM1.75 8.13c0-2.609 2.001-5.546 5.17-5.546A4.66 4.66 0 0110 3.704a4.658 4.658 0 013.08-1.12c3.169 0 5.17 2.937 5.17 5.546 0 1.373-.538 2.639-1.282 3.736-.746 1.098-1.727 2.07-2.688 2.87a22.872 22.872 0 01-2.66 1.898c-.367.224-.678.4-.906.521a7.392 7.392 0 01-.393.194 1.157 1.157 0 01-.14.047.77.77 0 01-.362 0 .871.871 0 01-.14-.047 7.396 7.396 0 01-.393-.194c-.228-.122-.54-.297-.906-.521a22.878 22.878 0 01-2.66-1.898c-.961-.8-1.942-1.772-2.688-2.87C2.288 10.768 1.75 9.503 1.75 8.13z" />
  </symbol>
  <symbol viewBox="0 0 20 20" id="login" xmlns="http://www.w3.org/2000/svg">
    <path d="M10 9.25a2.995 2.995 0 01-2.986-2.986h-1.5A4.495 4.495 0 0010 10.75v-1.5zM7.014 6.264c0-1.65 1.352-3.014 2.986-3.014v-1.5c-2.477 0-4.486 2.05-4.486 4.514h1.5zM10 3.25a2.995 2.995 0 012.986 2.986h1.5A4.495 4.495 0 0010 1.75v1.5zm2.986 2.986c0 1.65-1.352 3.014-2.986 3.014v1.5c2.477 0 4.486-2.05 4.486-4.514h-1.5zm2.847 10.514H4.167v1.5h11.666v-1.5zm-11.666 0a.08.08 0 01-.059-.025.08.08 0 01-.025-.058h-1.5c0 .872.711 1.583 1.584 1.583v-1.5zm-.084-.083v-.834h-1.5v.834h1.5zm0-.834a2.593 2.593 0 012.584-2.583v-1.5a4.093 4.093 0 00-4.084 4.083h1.5zm2.584-2.583h6.666v-1.5H6.667v1.5zm6.666 0a2.593 2.593 0 012.584 2.583h1.5a4.093 4.093 0 00-4.084-4.083v1.5zm2.584 2.583v.834h1.5v-.834h-1.5zm0 .834a.08.08 0 01-.025.058.08.08 0 01-.059.025v1.5c.873 0 1.584-.71 1.584-1.583h-1.5z" />
  </symbol>
  <symbol viewBox="0 0 20 20" id="material" xmlns="http://www.w3.org/2000/svg">
    <path fill-rule="evenodd" clip-rule="evenodd" d="M4.167 3.25a.916.916 0 00-.917.917v11.666c0 .507.41.917.917.917h11.666c.507 0 .917-.41.917-.917V4.167a.916.916 0 00-.917-.917H4.167zm-2.417.917A2.416 2.416 0 014.167 1.75h11.666a2.416 2.416 0 012.417 2.417v11.666a2.416 2.416 0 01-2.417 2.417H4.167a2.416 2.416 0 01-2.417-2.417V4.167z" />
    <path fill-rule="evenodd" clip-rule="evenodd" d="M5.083 5.833a.75.75 0 01.75-.75h8.334a.75.75 0 010 1.5H5.833a.75.75 0 01-.75-.75zm0 3.334a.75.75 0 01.75-.75h8.334a.75.75 0 010 1.5H5.833a.75.75 0 01-.75-.75zM1.75 12.5a.75.75 0 01.75-.75h3.652c.6 0 1.148.339 1.416.876l.372.744a.084.084 0 00.075.047h3.97c.032 0 .06-.018.074-.046l.373-.746a1.585 1.585 0 011.416-.875H17.5a.75.75 0 010 1.5h-3.652a.084.084 0 00-.075.047l-.372.743a1.583 1.583 0 01-1.416.877h-3.97c-.6 0-1.148-.34-1.416-.875l-.373-.746a.083.083 0 00-.074-.046H2.5a.75.75 0 01-.75-.75z" />
  </symbol>
  <symbol viewBox="0 0 20 20" id="orders" xmlns="http://www.w3.org/2000/svg">
    <path fill-rule="evenodd" clip-rule="evenodd" d="M2.367 6.506a2.416 2.416 0 012.41-2.256h8.549c1.272 0 2.326.986 2.41 2.256l.064.944a.75.75 0 01-1.497.1l-.063-.944a.916.916 0 00-.914-.856H4.777a.916.916 0 00-.914.856l-.61 9.167a.916.916 0 00.914.977H5a.75.75 0 010 1.5h-.833a2.416 2.416 0 01-2.411-2.576l.61-9.168zm-.611 9.168z" />
    <path fill-rule="evenodd" clip-rule="evenodd" d="M9.052 2.417a1.75 1.75 0 00-1.75 1.75V5a.75.75 0 11-1.5 0v-.833a3.25 3.25 0 116.5 0V5a.75.75 0 01-1.5 0v-.833a1.75 1.75 0 00-1.75-1.75zm-.446 8.655v5.356c0 .178.144.322.322.322h7.5a.32.32 0 00.322-.32v-5.358a.32.32 0 00-.322-.322h-7.5a.322.322 0 00-.322.322zm.322-1.822c-1.006 0-1.82.815-1.822 1.82v5.358c0 1.007.817 1.822 1.822 1.822h7.5a1.82 1.82 0 001.822-1.82v-5.358a1.82 1.82 0 00-1.822-1.822h-7.5z" />
    <path fill-rule="evenodd" clip-rule="evenodd" d="M10.803 11.75a.75.75 0 01.75.75 1.125 1.125 0 102.25 0 .75.75 0 011.5 0 2.625 2.625 0 11-5.25 0 .75.75 0 01.75-.75z" />
  </symbol>
  <symbol viewBox="0 0 20 20" id="password" xmlns="http://www.w3.org/2000/svg">
    <path d="M12.21 8.85a1.06 1.06 0 01-1.06-1.06 1.07 1.07 0 112.13 0 1.07 1.07 0 01-1.07 1.06z" />
    <path d="M5.67 17.83H2.92a.74.74 0 01-.75-.75v-2.75c0-.199.08-.39.22-.53l4.44-4.45a5.63 5.63 0 013.24-6.75 5.6 5.6 0 016.12 1.221 5.62 5.62 0 01-5.58 9.36l-.52.53a.75.75 0 01-.53.22h-.78v.48a.76.76 0 01-.75.75h-.47v.78a.74.74 0 01-.22.52L6.2 17.61a.77.77 0 01-.53.22zm-2-1.5h1.68l.71-.7v-1.22a.75.75 0 01.75-.75h.47v-.48a.76.76 0 01.72-.75h1.25l.64-.64a.72.72 0 01.8-.16 4.13 4.13 0 004.44-6.75 4.11 4.11 0 00-6.74 4.4.76.76 0 01-.17.8l-4.55 4.56v1.69z" />
  </symbol>
  <symbol viewBox="0 0 20 20" id="pdf" xmlns="http://www.w3.org/2000/svg">
    <path d="M19.316 5.412L14.22.118A.385.385 0 0013.942 0H6.35C5.5 0 4.808.691 4.808 1.54v5.383H1.73c-.636 0-1.153.517-1.153 1.153v5.771c0 .636.517 1.153 1.153 1.153h3.078v3.462c0 .848.691 1.538 1.541 1.538h11.533c.85 0 1.541-.69 1.541-1.537V5.679c0-.1-.038-.195-.107-.267zm-5.277-4.374l4.182 4.347H14.04V1.038zM1.73 14.231a.384.384 0 01-.384-.384V8.076c0-.212.173-.384.384-.384h10.386c.212 0 .384.172.384.384v5.771a.384.384 0 01-.384.384H1.73zm16.924 4.232a.77.77 0 01-.772.768H6.349a.771.771 0 01-.772-.769V15h6.54c.635 0 1.152-.517 1.152-1.153V8.076c0-.636-.517-1.153-1.153-1.153H5.577V1.541c0-.426.347-.772.772-.772h6.92v5c0 .213.173.385.385.385h5v12.309z" />
    <path d="M5.175 9.762a.866.866 0 00-.475-.324c-.124-.033-.388-.05-.794-.05h-1.07v3.304h.667v-1.246h.435c.302 0 .533-.016.692-.047a.966.966 0 00.346-.157.906.906 0 00.28-.326 1.07 1.07 0 00.11-.511c0-.263-.063-.477-.19-.643zm-.571.909a.438.438 0 01-.209.162c-.088.035-.264.052-.527.052h-.365v-.938h.322c.24 0 .4.008.48.023.108.02.198.068.268.146a.428.428 0 01.106.298.444.444 0 01-.075.257zm3.97-.38a1.444 1.444 0 00-.316-.535 1.105 1.105 0 00-.498-.304 2.38 2.38 0 00-.629-.063H5.912v3.303h1.255c.247 0 .444-.023.59-.07.198-.063.354-.15.47-.263.153-.149.27-.344.353-.584a2.17 2.17 0 00.102-.703c0-.31-.036-.57-.108-.78zm-.65 1.357a.7.7 0 01-.174.319.615.615 0 01-.27.137 1.813 1.813 0 01-.403.032H6.58V9.947h.3c.272 0 .454.011.548.032a.635.635 0 01.308.155.756.756 0 01.19.32c.045.137.067.333.067.589 0 .255-.022.457-.067.605zm3.593-1.701V9.39H9.252v3.303h.667v-1.404h1.38v-.559h-1.38v-.782h1.598z" />
  </symbol>
  <symbol viewBox="0 0 25 25" id="phone" xmlns="http://www.w3.org/2000/svg">
    <path d="M16.67 22.63H8.33a2.84 2.84 0 01-2.83-2.84V5.21a2.83 2.83 0 012.83-2.83h8.34a2.83 2.83 0 012.83 2.83v14.58a2.84 2.84 0 01-2.83 2.84zM8.33 3.88A1.33 1.33 0 007 5.21v14.58a1.34 1.34 0 001.33 1.34h8.34A1.34 1.34 0 0018 19.79V5.21a1.33 1.33 0 00-1.33-1.33H8.33z" />
    <path d="M12.5 19.24a1 1 0 110-2 1 1 0 010 2zM13.8 7h-2.6a.75.75 0 110-1.5h2.6a.75.75 0 110 1.5z" />
  </symbol>
  <symbol viewBox="0 0 10 10" id="popup-close" xmlns="http://www.w3.org/2000/svg">
    <path fill-rule="evenodd" clip-rule="evenodd" d="M.201 8.83a.686.686 0 10.97.97L5 5.97l3.829 3.829a.686.686 0 00.97-.97L5.968 5 9.8 1.17A.686.686 0 008.83.2L5 4.03 1.17.201a.686.686 0 10-.97.97L4.03 5 .201 8.83z" />
  </symbol>
  <symbol viewBox="0 0 20 20" id="profile" xmlns="http://www.w3.org/2000/svg">
    <path d="M10 9.25a2.995 2.995 0 01-2.986-2.986h-1.5A4.495 4.495 0 0010 10.75v-1.5zM7.014 6.264c0-1.65 1.352-3.014 2.986-3.014v-1.5c-2.477 0-4.486 2.05-4.486 4.514h1.5zM10 3.25a2.995 2.995 0 012.986 2.986h1.5A4.495 4.495 0 0010 1.75v1.5zm2.986 2.986c0 1.65-1.352 3.014-2.986 3.014v1.5c2.477 0 4.486-2.05 4.486-4.514h-1.5zm2.847 10.514H4.167v1.5h11.666v-1.5zm-11.666 0a.08.08 0 01-.059-.025.08.08 0 01-.025-.058h-1.5c0 .872.711 1.583 1.584 1.583v-1.5zm-.084-.083v-.834h-1.5v.834h1.5zm0-.834a2.593 2.593 0 012.584-2.583v-1.5a4.093 4.093 0 00-4.084 4.083h1.5zm2.584-2.583h6.666v-1.5H6.667v1.5zm6.666 0a2.593 2.593 0 012.584 2.583h1.5a4.093 4.093 0 00-4.084-4.083v1.5zm2.584 2.583v.834h1.5v-.834h-1.5zm0 .834c0 .02-.008.04-.025.058a.08.08 0 01-.059.025v1.5c.873 0 1.584-.71 1.584-1.583h-1.5z" />
  </symbol>
  <symbol viewBox="0 0 20 20" id="reauisites" xmlns="http://www.w3.org/2000/svg">
    <path fill-rule="evenodd" clip-rule="evenodd" d="M1.75 7.5a.75.75 0 01.75-.75h15a.75.75 0 010 1.5h-15a.75.75 0 01-.75-.75zm3.333 3.333a.75.75 0 01.75-.75h2.142a.75.75 0 010 1.5H5.833a.75.75 0 01-.75-.75z" />
    <path fill-rule="evenodd" clip-rule="evenodd" d="M5 4.917a1.75 1.75 0 00-1.75 1.75v6.666c0 .967.783 1.75 1.75 1.75h10a1.75 1.75 0 001.75-1.75V6.667A1.75 1.75 0 0015 4.917H5zm-3.25 1.75A3.25 3.25 0 015 3.417h10a3.25 3.25 0 013.25 3.25v6.666a3.25 3.25 0 01-3.25 3.25H5a3.25 3.25 0 01-3.25-3.25V6.667z" />
  </symbol>
  <symbol viewBox="0 0 20 20" id="requisite" xmlns="http://www.w3.org/2000/svg">
    <path fill-rule="evenodd" clip-rule="evenodd" d="M14.17 9.917c-1.84-.002-3.42 1.578-3.42 3.417a3.416 3.416 0 103.42-3.417zm-.003 8.333a4.916 4.916 0 01-4.917-4.916c0-2.668 2.253-4.92 4.921-4.917a4.916 4.916 0 01-.004 9.833zM.917 5.708a.75.75 0 01.75-.75H17.5a.75.75 0 010 1.5H1.667a.75.75 0 01-.75-.75z" />
    <path fill-rule="evenodd" clip-rule="evenodd" d="M.917 4.167A2.416 2.416 0 013.333 1.75h12.5a2.416 2.416 0 012.417 2.417v6.666a.75.75 0 01-1.5 0V4.167a.916.916 0 00-.917-.917h-12.5a.916.916 0 00-.916.917v7.5c0 .506.41.916.916.916H10a.75.75 0 010 1.5H3.333a2.416 2.416 0 01-2.416-2.416v-7.5z" />
    <path fill-rule="evenodd" clip-rule="evenodd" d="M16.549 11.877a.75.75 0 010 1.06l-2.315 2.316a.75.75 0 01-1.061 0l-1.388-1.39a.75.75 0 011.06-1.06l.859.859 1.784-1.785a.75.75 0 011.06 0z" />
  </symbol>
  <symbol viewBox="0 0 19 19" id="save" xmlns="http://www.w3.org/2000/svg">
    <path fill-rule="evenodd" clip-rule="evenodd" d="M2.185 4.137c0-1.14.923-2.063 2.063-2.063h7.833a1.98 1.98 0 011.4.58l2.004 2.004-.377.377.377-.377c.371.371.58.875.58 1.4V8.64a.562.562 0 11-1.125 0V6.06a.855.855 0 00-.25-.606l.397-.397-.397.397-2.004-2.003a.856.856 0 00-.605-.251H4.248a.938.938 0 00-.938.938v9.754c0 .518.42.938.938.938H8.75a.562.562 0 110 1.125H4.248a2.063 2.063 0 01-2.063-2.063V4.137z" />
    <path fill-rule="evenodd" clip-rule="evenodd" d="M6.494 2.074c.31 0 .562.252.562.562v3.095c0 .052.043.095.095.095h3.938a.094.094 0 00.095-.095V2.636a.563.563 0 011.125 0v3.096a1.22 1.22 0 01-1.22 1.219H7.15a1.22 1.22 0 01-1.219-1.22V2.637c0-.31.252-.562.563-.562zm.123 7.505a.562.562 0 01.043-.002H9.5a.562.562 0 010 1.125H6.686a.424.424 0 00-.375.426v4.264a.563.563 0 01-1.125 0v-4.255a1.549 1.549 0 011.43-1.558zm7.01 1.123a2.814 2.814 0 100 5.628 2.814 2.814 0 000-5.628zm-3.94 2.814a3.939 3.939 0 117.879 0 3.939 3.939 0 01-7.878 0z" />
    <path fill-rule="evenodd" clip-rule="evenodd" d="M15.008 13.1a.561.561 0 00-.416-.184.6.6 0 10.6.6.561.561 0 00-.184-.416z" />
    <path fill-rule="evenodd" clip-rule="evenodd" d="M14.03 13.479c0-.311.251-.563.562-.563a.6.6 0 01.6.6.562.562 0 01-.979.379.56.56 0 01-.184-.416zm-.952-.379a.561.561 0 00-.416-.184.6.6 0 10.6.6.561.561 0 00-.184-.416z" />
    <path fill-rule="evenodd" clip-rule="evenodd" d="M12.1 13.479c0-.311.251-.563.562-.563a.6.6 0 01.6.6.562.562 0 01-.979.379.561.561 0 01-.184-.416z" />
  </symbol>
  <symbol viewBox="0 0 25 25" id="search" xmlns="http://www.w3.org/2000/svg">
    <path fill-rule="evenodd" clip-rule="evenodd" d="M15.838 7.653a5.788 5.788 0 10-8.184 8.185 5.788 5.788 0 008.184-8.185zm1.061-1.06A7.287 7.287 0 106.593 16.899 7.287 7.287 0 0016.899 6.593z" />
    <path fill-rule="evenodd" clip-rule="evenodd" d="M15.834 15.834a.75.75 0 011.061 0l3.427 3.427a.75.75 0 01-1.06 1.061l-3.428-3.427a.75.75 0 010-1.06z" />
  </symbol>
  <symbol viewBox="0 0 20 20" id="sort" xmlns="http://www.w3.org/2000/svg">
    <path fill-rule="evenodd" clip-rule="evenodd" d="M3.333 3.667a.084.084 0 00-.083.083v2.11c0 .024.011.048.03.064l5.533 4.61a.75.75 0 01.27.577v4.758l1.787-.893a.084.084 0 00.047-.074V11.11a.75.75 0 01.27-.576l5.533-4.611c.02-.016.03-.04.03-.064V3.75a.084.084 0 00-.083-.083H3.333zM1.75 3.75c0-.874.71-1.583 1.583-1.583h13.334c.874 0 1.583.709 1.583 1.583v2.11c0 .47-.21.916-.57 1.216l-5.263 4.386v3.44c0 .6-.34 1.148-.876 1.416l-2.27 1.134a1.166 1.166 0 01-1.688-1.043v-4.947L2.32 7.076c-.361-.3-.57-.747-.57-1.216V3.75z" />
    <path fill-rule="evenodd" clip-rule="evenodd" d="M1.85 6.25a.75.75 0 01.75-.75h14.8a.75.75 0 010 1.5H2.6a.75.75 0 01-.75-.75z" />
  </symbol>
  <symbol viewBox="0 0 20 20" id="table-message" xmlns="http://www.w3.org/2000/svg">
    <path fill-rule="evenodd" clip-rule="evenodd" d="M16.792 4.481a.75.75 0 01.75.75v3.991a.75.75 0 01-1.5 0v-3.99a.75.75 0 01.75-.75zm-2.67 8.989a.75.75 0 010 1.06l-1.07 1.07 1.07 1.07a.75.75 0 11-1.06 1.06l-1.6-1.6a.75.75 0 010-1.06l1.6-1.6a.75.75 0 011.06 0z" />
    <path fill-rule="evenodd" clip-rule="evenodd" d="M2.45 5.231a2.358 2.358 0 012.359-2.359H15.19a2.358 2.358 0 011.325 4.312l-4.286 2.904a3.975 3.975 0 01-4.459 0L3.486 7.183A2.358 2.358 0 012.45 5.231zm12.741-.859H4.81a.858.858 0 00-.482 1.57l4.286 2.904a2.475 2.475 0 002.776 0l4.284-2.903a.86.86 0 00-.482-1.57z" />
    <path fill-rule="evenodd" clip-rule="evenodd" d="M3.2 4.481a.75.75 0 01.75.75v7.191c0 .47.38.85.85.85h4.8a.75.75 0 110 1.5H4.8a2.35 2.35 0 01-2.35-2.35v-7.19a.75.75 0 01.75-.75zm11.25 7.941a.75.75 0 01.75-.75h.8a2.35 2.35 0 110 4.7h-4.008a.75.75 0 010-1.5H16a.85.85 0 100-1.7h-.8a.75.75 0 01-.75-.75z" />
  </symbol>
  <symbol viewBox="0 0 20 20" id="table-stamp" xmlns="http://www.w3.org/2000/svg">
    <path fill-rule="evenodd" clip-rule="evenodd" d="M6.667 3.25a.084.084 0 00-.084.083v3.334a.75.75 0 11-1.5 0V3.333c0-.874.71-1.583 1.584-1.583h6.666c.874 0 1.584.71 1.584 1.583v3.334a.75.75 0 01-1.5 0V3.333a.084.084 0 00-.084-.083H6.667z" />
    <path fill-rule="evenodd" clip-rule="evenodd" d="M4.167 7.417a.916.916 0 00-.917.916V12.5c0 .507.41.917.917.917h1.666a.75.75 0 010 1.5H4.167A2.416 2.416 0 011.75 12.5V8.333a2.416 2.416 0 012.417-2.416h11.666a2.416 2.416 0 012.417 2.416V12.5a2.416 2.416 0 01-2.417 2.417h-1.666a.75.75 0 010-1.5h1.666c.507 0 .917-.41.917-.917V8.333a.916.916 0 00-.917-.916H4.167z" />
    <path fill-rule="evenodd" clip-rule="evenodd" d="M5.083 11.5a.75.75 0 01.75-.75h8.334a.75.75 0 01.75.75v5.167c0 .874-.71 1.583-1.584 1.583H6.667c-.875 0-1.584-.71-1.584-1.583V11.5zm1.5.75v4.417c0 .045.038.083.084.083h6.666a.084.084 0 00.084-.083V12.25H6.583zm-1.5-3.083a.75.75 0 01.75-.75h.834a.75.75 0 110 1.5h-.834a.75.75 0 01-.75-.75z" />
  </symbol>
  <symbol viewBox="0 0 30 30" id="upload" xmlns="http://www.w3.org/2000/svg">
    <g clip-path="url(#beclip0_91_1803)">
      <path d="M30 6.121v12.715a4.693 4.693 0 01-4.688 4.688h-5.068a.938.938 0 010-1.875h5.069a2.816 2.816 0 002.812-2.813V6.121a2.815 2.815 0 00-2.813-2.812H4.688A2.816 2.816 0 001.876 6.12v12.715a2.816 2.816 0 002.813 2.813h5.422a.937.937 0 110 1.875H4.688A4.693 4.693 0 010 18.836V6.121a4.693 4.693 0 014.688-4.687h20.625A4.693 4.693 0 0130 6.12zm-9.79 10.543a.938.938 0 00.091-1.323l-4.594-5.281a.937.937 0 00-1.414 0l-4.595 5.282a.937.937 0 001.415 1.23l2.95-3.39v14.447a.938.938 0 001.874 0V13.18l2.95 3.391a.937.937 0 001.322.092z" />
    </g>
    <defs>
      <clipPath id="beclip0_91_1803">
        <path d="M0 0h30v30H0z" />
      </clipPath>
    </defs>
  </symbol>
  <symbol viewBox="0 0 20 20" id="xls" xmlns="http://www.w3.org/2000/svg">
    <path d="M13.659.717a.313.313 0 00-.222-.092h-8.75A2.19 2.19 0 002.5 2.813v14.374a2.19 2.19 0 002.188 2.188h10.625a2.19 2.19 0 002.187-2.188v-12.5a.313.313 0 00-.091-.22l-3.75-3.75zm.091.975l2.683 2.683h-1.12a1.564 1.564 0 01-1.563-1.563v-1.12zM4.687 1.25h8.438v1.563A2.19 2.19 0 0015.313 5h1.562v8.75H3.125V2.812A1.564 1.564 0 014.688 1.25zm10.625 17.5H4.688a1.564 1.564 0 01-1.563-1.563v-2.812h13.75v2.813a1.564 1.564 0 01-1.563 1.562z" />
    <path d="M10.625 17.5h-.938v-2.188a.313.313 0 10-.624 0v2.5a.313.313 0 00.312.313h1.25a.313.313 0 100-.625zm-2.36-2.467a.312.312 0 00-.42.14l-.345.69-.345-.69a.313.313 0 00-.56.28l.556 1.11-.555 1.11a.313.313 0 10.559.28l.345-.692.346.691a.312.312 0 00.592-.161.313.313 0 00-.033-.118l-.556-1.11.556-1.11a.313.313 0 00-.14-.42zm4.235.592h.625a.313.313 0 100-.625H12.5a.938.938 0 000 1.875.313.313 0 110 .625h-.625a.313.313 0 100 .625h.625a.938.938 0 000-1.875.313.313 0 110-.625zm-7.187-3.75h9.375a.313.313 0 00.312-.313V5.939a.312.312 0 00-.313-.313H5.313A.312.312 0 005 5.938v5.625a.313.313 0 00.313.312zM5.625 10h2.5v1.25h-2.5V10zm5.625-1.875v1.25h-2.5v-1.25h2.5zM8.75 7.5V6.25h2.5V7.5h-2.5zm3.125.625h2.5v1.25h-2.5v-1.25zM11.25 10v1.25h-2.5V10h2.5zm-3.125-.625h-2.5v-1.25h2.5v1.25zm3.75 1.875V10h2.5v1.25h-2.5zm2.5-3.75h-2.5V6.25h2.5V7.5zm-6.25-1.25V7.5h-2.5V6.25h2.5z" />
  </symbol>
</svg>