<svg width="276" height="236" viewBox="0 0 276 236" fill="none" xmlns="http://www.w3.org/2000/svg">
<g clip-path="url(#clip0_415_2)">
<path d="M105.566 175.454C105.566 175.454 114.445 179.266 116.924 186.78C120.034 196.166 117.84 203.671 117.84 203.671C117.84 203.671 109.07 198.239 106.378 193.074C102.622 185.827 105.566 175.454 105.566 175.454Z" fill="#ECECEC"/>
<path d="M85.8516 216.707C85.8516 216.707 94.873 220.224 101.872 216.603C110.637 212.09 114.307 205.167 114.307 205.167C114.307 205.167 104.251 202.88 98.7285 204.691C90.9653 207.216 85.8516 216.707 85.8516 216.707Z" fill="#ECECEC"/>
<path d="M87.0627 168.049C87.0627 168.049 95.5808 172.609 97.4183 180.309C99.7164 189.924 96.8913 197.219 96.8913 197.219C96.8913 197.219 88.6153 191.054 86.3694 185.674C83.2214 178.132 87.0627 168.049 87.0627 168.049Z" fill="#ECECEC"/>
<path d="M64.1143 206.735C64.1143 206.735 72.7844 211.023 80.087 208.002C89.1987 204.257 93.4435 197.701 93.4435 197.701C93.4435 197.701 83.6196 194.561 77.9646 195.871C70.0162 197.715 64.1143 206.735 64.1143 206.735Z" fill="#ECECEC"/>
<path d="M73.3063 156.819C73.3063 156.819 80.7989 162.932 81.1313 170.837C81.5491 180.719 77.3897 187.332 77.3897 187.332C77.3897 187.332 70.4385 179.709 69.2657 173.991C67.6133 165.981 73.3063 156.819 73.3063 156.819Z" fill="#ECECEC"/>
<path d="M43.6973 190.158C43.6973 190.158 51.3893 196.019 59.1287 194.475C68.7912 192.569 74.2088 186.927 74.2088 186.927C74.2088 186.927 65.1874 181.958 59.3661 182.163C51.2088 182.439 43.6973 190.158 43.6973 190.158Z" fill="#ECECEC"/>
<path d="M62.7936 143.048C62.7936 143.048 68.8048 150.629 67.4421 158.424C65.7422 168.168 60.2676 173.734 60.2676 173.734C60.2676 173.734 55.1111 164.776 55.1824 158.963C55.2773 150.767 62.7936 143.048 62.7936 143.048Z" fill="#ECECEC"/>
<path d="M27.3965 169.855C27.3965 169.855 33.6593 177.231 41.5507 177.388C51.3983 177.584 57.889 173.257 57.889 173.257C57.889 173.257 50.1163 166.458 44.4091 165.41C36.3847 163.933 27.3965 169.855 27.3965 169.855Z" fill="#ECECEC"/>
<path d="M52.6571 126.943C52.6571 126.943 57.7091 135.201 55.4063 142.772C52.5574 152.235 46.4275 157.067 46.4275 157.067C46.4275 157.067 42.3964 147.537 43.1751 141.772C44.2624 133.686 52.6571 126.943 52.6571 126.943Z" fill="#ECECEC"/>
<path d="M14.4629 148.476C14.4629 148.476 19.7856 156.576 27.5963 157.681C37.3489 159.077 44.3192 155.58 44.3192 155.58C44.3192 155.58 37.4297 147.875 31.8743 146.141C24.1016 143.697 14.4629 148.476 14.4629 148.476Z" fill="#ECECEC"/>
<path d="M47.3153 110.267C47.3153 110.267 50.3873 119.448 46.4559 126.31C41.5463 134.886 34.5048 138.222 34.5048 138.222C34.5048 138.222 32.7053 128.035 34.7517 122.584C37.6243 114.946 47.3153 110.267 47.3153 110.267Z" fill="#ECECEC"/>
<path d="M5.4502 121.955C5.4502 121.955 8.82612 131.036 16.1905 133.867C25.3829 137.426 32.9514 135.582 32.9514 135.582C32.9514 135.582 27.9611 126.529 22.9518 123.589C15.9104 119.463 5.4502 121.955 5.4502 121.955Z" fill="#ECECEC"/>
<path d="M42.7947 91.1266C42.7947 91.1266 44.9978 100.561 40.4206 107.022C34.7228 115.122 27.4107 117.776 27.4107 117.776C27.4107 117.776 26.5655 107.465 29.1153 102.229C32.6906 94.8765 42.7947 91.1266 42.7947 91.1266Z" fill="#ECECEC"/>
<path d="M0 98.8646C0 98.8646 2.51652 108.223 9.58175 111.753C18.399 116.156 26.11 115.036 26.11 115.036C26.11 115.036 21.9886 105.554 17.2737 102.171C10.6501 97.3685 0 98.8646 0 98.8646Z" fill="#ECECEC"/>
<path d="M44.0863 71.9626C44.0863 71.9626 44.6466 81.6351 39.058 87.2099C32.0783 94.1904 24.4053 95.5769 24.4053 95.5769C24.4053 95.5769 25.3549 85.2754 28.7356 80.5488C33.5122 73.9305 44.0863 71.9626 44.0863 71.9626Z" fill="#ECECEC"/>
<path d="M1.01172 72.32C1.01172 72.32 1.89487 81.9735 8.25738 86.662C16.1915 92.5132 23.9832 92.7323 23.9832 92.7323C23.9832 92.7323 21.5332 82.6834 17.4688 78.5237C11.7663 72.6773 1.01172 72.32 1.01172 72.32Z" fill="#ECECEC"/>
<path d="M50.4533 53.237C50.4533 53.237 48.7772 62.7666 42.0586 66.9167C33.6592 72.096 25.877 71.6815 25.877 71.6815C25.877 71.6815 29.1437 61.8708 33.5405 58.0637C39.713 52.6986 50.4533 53.237 50.4533 53.237Z" fill="#ECECEC"/>
<path d="M5.50294 46.7712C5.50294 46.7712 5.13259 56.4532 10.8351 61.9327C17.9573 68.7654 25.6446 69.9995 25.6446 69.9995C25.6446 69.9995 24.5145 59.7124 21.0199 55.0619C16.1103 48.5199 5.50294 46.7712 5.50294 46.7712Z" fill="#ECECEC"/>
<path d="M60.0116 37.8324C60.0116 37.8324 55.6433 45.9945 48.3027 47.7337C39.1293 49.9112 32.1875 47.1809 32.1875 47.1809C32.1875 47.1809 38.0894 39.2523 43.2174 37.1177C50.4156 34.1159 60.0116 37.8324 60.0116 37.8324Z" fill="#ECECEC"/>
<path d="M14.6431 24.9055C14.6431 24.9055 13.5605 34.1111 18.5841 39.7622C24.8516 46.8188 32.0926 48.577 32.0926 48.577C32.0926 48.577 31.7934 38.6853 28.8116 33.9872C24.6237 27.3785 14.6431 24.9055 14.6431 24.9055Z" fill="#ECECEC"/>
<path d="M69.5368 21.1747C69.5368 21.1747 64.8931 28.7507 57.7661 30.0039C48.8539 31.5763 42.3584 28.5744 42.3584 28.5744C42.3584 28.5744 48.4503 21.3129 53.4833 19.5499C60.5485 17.077 69.5368 21.1747 69.5368 21.1747Z" fill="#ECECEC"/>
<path d="M34.4998 2.32523C34.4998 2.32523 30.0746 10.0346 32.3727 16.9245C35.2216 25.5297 40.9668 29.8276 40.9668 29.8276C40.9668 29.8276 44.4282 20.9889 43.5735 15.7143C42.3723 8.2955 34.4998 2.32523 34.4998 2.32523Z" fill="#ECECEC"/>
<path d="M71.606 0.00951987C71.606 0.00951987 70.2386 8.19545 64.4838 11.7929C57.3284 16.2908 50.6572 15.9763 50.6572 15.9763C50.6572 15.9763 53.3874 7.54743 57.1289 4.25496C62.3946 -0.371647 71.606 0.00951987 71.606 0.00951987Z" fill="#ECECEC"/>
<path d="M170.439 175.454C170.439 175.454 161.56 179.266 159.077 186.78C155.972 196.166 158.165 203.671 158.165 203.671C158.165 203.671 166.935 198.239 169.627 193.074C173.407 185.827 170.439 175.454 170.439 175.454Z" fill="#ECECEC"/>
<path d="M190.154 216.707C190.154 216.707 181.132 220.224 174.134 216.603C165.369 212.09 161.698 205.167 161.698 205.167C161.698 205.167 171.755 202.88 177.277 204.691C185.04 207.216 190.154 216.707 190.154 216.707Z" fill="#ECECEC"/>
<path d="M188.943 168.049C188.943 168.049 180.425 172.609 178.587 180.309C176.289 189.924 179.114 197.219 179.114 197.219C179.114 197.219 187.39 191.054 189.636 185.674C192.784 178.132 188.943 168.049 188.943 168.049Z" fill="#ECECEC"/>
<path d="M211.89 206.735C211.89 206.735 203.22 211.023 195.917 208.002C186.805 204.257 182.556 197.701 182.556 197.701C182.556 197.701 192.384 194.561 198.035 195.871C205.988 197.715 211.89 206.735 211.89 206.735Z" fill="#ECECEC"/>
<path d="M202.698 156.819C202.698 156.819 195.206 162.932 194.873 170.837C194.455 180.719 198.615 187.332 198.615 187.332C198.615 187.332 205.561 179.709 206.739 173.991C208.391 165.981 202.698 156.819 202.698 156.819Z" fill="#ECECEC"/>
<path d="M232.307 190.158C232.307 190.158 224.615 196.019 216.876 194.475C207.214 192.569 201.796 186.927 201.796 186.927C201.796 186.927 210.817 181.958 216.639 182.163C224.796 182.439 232.307 190.158 232.307 190.158Z" fill="#ECECEC"/>
<path d="M213.21 143.048C213.21 143.048 207.194 150.629 208.562 158.424C210.257 168.168 215.736 173.734 215.736 173.734C215.736 173.734 220.893 164.776 220.821 158.963C220.726 150.767 213.21 143.048 213.21 143.048Z" fill="#ECECEC"/>
<path d="M248.608 169.855C248.608 169.855 242.345 177.231 234.454 177.388C224.606 177.584 218.115 173.257 218.115 173.257C218.115 173.257 225.888 166.458 231.595 165.41C239.62 163.933 248.608 169.855 248.608 169.855Z" fill="#ECECEC"/>
<path d="M223.347 126.943C223.347 126.943 218.295 135.201 220.593 142.772C223.442 152.235 229.577 157.067 229.577 157.067C229.577 157.067 233.608 147.537 232.829 141.772C231.742 133.686 223.347 126.943 223.347 126.943Z" fill="#ECECEC"/>
<path d="M261.542 148.476C261.542 148.476 256.219 156.576 248.404 157.681C238.656 159.077 231.686 155.58 231.686 155.58C231.686 155.58 238.575 147.875 244.116 146.141C251.903 143.697 261.542 148.476 261.542 148.476Z" fill="#ECECEC"/>
<path d="M228.689 110.267C228.689 110.267 225.617 119.448 229.549 126.31C234.458 134.886 241.5 138.222 241.5 138.222C241.5 138.222 243.299 128.035 241.253 122.584C238.38 114.946 228.689 110.267 228.689 110.267Z" fill="#ECECEC"/>
<path d="M270.554 121.955C270.554 121.955 267.178 131.036 259.814 133.867C250.621 137.426 243.048 135.582 243.048 135.582C243.048 135.582 248.043 126.529 253.052 123.589C260.094 119.463 270.554 121.955 270.554 121.955Z" fill="#ECECEC"/>
<path d="M233.228 91.1266C233.228 91.1266 231.025 100.561 235.602 107.022C241.3 115.122 248.612 117.776 248.612 117.776C248.612 117.776 249.453 107.465 246.908 102.229C243.313 94.8765 233.228 91.1266 233.228 91.1266Z" fill="#ECECEC"/>
<path d="M276 98.8646C276 98.8646 273.488 108.223 266.423 111.753C257.606 116.156 249.895 115.036 249.895 115.036C249.895 115.036 254.016 105.554 258.731 102.171C265.355 97.3685 276 98.8646 276 98.8646Z" fill="#ECECEC"/>
<path d="M231.918 71.9626C231.918 71.9626 231.353 81.6351 236.947 87.2099C243.926 94.1904 251.599 95.5769 251.599 95.5769C251.599 95.5769 250.65 85.2754 247.269 80.5488C242.492 73.9305 231.918 71.9626 231.918 71.9626Z" fill="#ECECEC"/>
<path d="M274.979 72.32C274.979 72.32 274.096 81.9735 267.734 86.662C259.795 92.5132 252.008 92.7323 252.008 92.7323C252.008 92.7323 254.458 82.6834 258.522 78.5237C264.239 72.6773 274.979 72.32 274.979 72.32Z" fill="#ECECEC"/>
<path d="M225.551 53.237C225.551 53.237 227.227 62.7666 233.946 66.9167C242.345 72.096 250.127 71.6815 250.127 71.6815C250.127 71.6815 246.856 61.8708 242.459 58.0637C236.291 52.6986 225.551 53.237 225.551 53.237Z" fill="#ECECEC"/>
<path d="M270.501 46.7712C270.501 46.7712 270.871 56.4532 265.169 61.9327C258.047 68.7654 250.359 69.9995 250.359 69.9995C250.359 69.9995 251.489 59.7124 254.984 55.0619C259.889 48.5199 270.501 46.7712 270.501 46.7712Z" fill="#ECECEC"/>
<path d="M215.993 37.8324C215.993 37.8324 220.361 45.9945 227.702 47.7337C236.875 49.9112 243.817 47.1809 243.817 47.1809C243.817 47.1809 237.915 39.238 232.787 37.1177C225.599 34.1159 215.993 37.8324 215.993 37.8324Z" fill="#ECECEC"/>
<path d="M261.362 24.9055C261.362 24.9055 262.444 34.1111 257.421 39.7622C251.153 46.8188 243.912 48.577 243.912 48.577C243.912 48.577 244.211 38.6853 247.193 33.9872C251.381 27.3785 261.362 24.9055 261.362 24.9055Z" fill="#ECECEC"/>
<path d="M206.469 21.1747C206.469 21.1747 211.112 28.7507 218.239 30.0039C227.152 31.5763 233.647 28.5744 233.647 28.5744C233.647 28.5744 227.555 21.3129 222.522 19.5499C215.457 17.077 206.469 21.1747 206.469 21.1747Z" fill="#ECECEC"/>
<path d="M241.504 2.32523C241.504 2.32523 245.93 10.0346 243.631 16.9245C240.783 25.5297 235.037 29.8276 235.037 29.8276C235.037 29.8276 231.576 20.9889 232.431 15.7143C233.632 8.2955 241.504 2.32523 241.504 2.32523Z" fill="#ECECEC"/>
<path d="M204.397 0.00951987C204.397 0.00951987 205.765 8.19545 211.496 11.7929C218.651 16.2908 225.323 15.9763 225.323 15.9763C225.323 15.9763 222.592 7.54743 218.851 4.25496C213.604 -0.371647 204.397 0.00951987 204.397 0.00951987Z" fill="#ECECEC"/>
<path d="M171.256 198.963L170.307 199.192C158.448 201.023 146.989 204.879 136.429 210.594C123.746 217.498 115.959 230.306 113.737 234.337L118.908 236.024C121.733 231.331 129.753 219.133 139.8 213.882C147.292 209.956 157.444 205.105 171.242 202.756C171.845 202.618 179.152 200.736 179.755 200.579C196.683 194.423 210.713 181.891 210.514 181.548C210.058 180.752 190.638 195.213 171.256 198.963Z" fill="#ECECEC"/>
<path d="M162.481 234.218C160.174 230.058 152.415 217.432 139.852 210.594C129.292 204.878 117.833 201.021 105.974 199.192L105.024 198.963C85.6467 195.213 66.2221 180.762 65.7805 181.524C65.5764 181.867 79.6071 194.389 96.5342 200.555C97.1372 200.712 104.449 202.594 105.048 202.732C118.85 205.081 128.997 209.932 136.495 213.858C146.466 219.066 154.419 231.107 157.301 235.886L162.481 234.218Z" fill="#ECECEC"/>
</g>
<defs>
<clipPath id="clip0_415_2">
<rect width="276" height="236" fill="white"/>
</clipPath>
</defs>
</svg>
