<svg width="153" height="152" viewBox="0 0 153 152" fill="none" xmlns="http://www.w3.org/2000/svg">
<path d="M10.4315 81.6853L10.5978 82.8497L1.63916 84.1091L2.09065 87.3528L3.76595 87.3409C5.98779 87.3171 7.61555 87.329 8.66112 87.4003C9.70669 87.4716 10.4433 87.6498 10.883 87.9469C11.3226 88.2439 11.584 88.6716 11.6553 89.2419C11.7028 89.5746 11.6909 89.8835 11.6077 90.1806L10.6335 90.3232C10.7166 90.0618 10.7404 89.7885 10.7047 89.5271C10.6691 89.2895 10.5384 89.0875 10.3245 88.933C10.0988 88.7786 9.73046 88.6716 9.23144 88.6003C8.72053 88.529 7.77001 88.4815 6.368 88.4696C4.96598 88.4459 3.24316 88.4578 1.21142 88.4815L0.462891 83.1111L10.4315 81.6853Z" fill="#5A5752"/>
<path d="M5.65559 65.9661C7.28336 66.0492 8.53092 66.5007 9.41015 67.3324C10.2894 68.1641 10.6933 69.281 10.6221 70.6712C10.5508 72.0613 10.0755 73.1187 9.19628 73.8554C8.31705 74.592 7.08137 74.9485 5.51302 74.9247L5.3942 77.3604L10.1349 77.5981L10.0755 78.7743L0 78.2634L0.0594088 77.0872L4.34863 77.301L4.46744 74.8415C3.04166 74.6633 1.97233 74.1643 1.23568 73.3564C0.510905 72.5484 0.178224 71.4791 0.249513 70.1602C0.320802 68.7463 0.843587 67.677 1.79411 66.9285C2.75651 66.2156 4.03971 65.8829 5.65559 65.9661ZM5.26351 73.6891C6.62988 73.7603 7.67545 73.5346 8.4121 73.0237C9.14875 72.5128 9.54084 71.7286 9.60025 70.6593C9.65966 69.5899 9.33886 68.7582 8.67349 68.176C7.99625 67.5938 6.97444 67.273 5.60807 67.2018C4.24169 67.1305 3.19612 67.3443 2.47135 67.8552C1.74658 68.3661 1.36637 69.1503 1.30697 70.2078C1.24756 71.2771 1.55648 72.1088 2.23372 72.691C2.88721 73.2851 3.90902 73.6178 5.26351 73.6891Z" fill="#5A5752"/>
<path d="M10.028 56.8054C11.0023 57.0431 11.6558 57.4946 11.9884 58.1837C12.3211 58.8728 12.3449 59.7996 12.0716 60.9758L11.3944 63.8512L1.56836 61.5224L2.93473 55.7242L3.94466 55.9618L2.83968 60.6075L6.01204 61.356L6.36849 59.8352C6.57047 58.9679 6.84374 58.2906 7.16454 57.7916C7.48534 57.2926 7.87743 56.9599 8.32893 56.7935C8.79231 56.651 9.35074 56.6391 10.028 56.8054ZM10.6577 62.4729L11.0379 60.8689C11.2399 60.0253 11.2399 59.36 11.0379 58.9085C10.8359 58.457 10.4082 58.148 9.74283 57.9817C9.11311 57.8272 8.6022 57.9223 8.24576 58.255C7.88932 58.5877 7.59228 59.2411 7.35465 60.2273L7.02197 61.6174L10.6577 62.4729Z" fill="#5A5752"/>
<path d="M15.9087 49.332L12.463 49.3438L11.0016 53.1103L13.5443 55.4272L13.1165 56.5322L5.1084 49.1537L5.46484 48.2389L16.3483 48.1913L15.9087 49.332ZM11.3343 49.3082L7.9956 49.2726C7.56787 49.2726 7.05696 49.2488 6.46289 49.1894C6.8431 49.4389 7.23519 49.7478 7.66292 50.1161L10.1462 52.3499L11.3343 49.3082Z" fill="#5A5752"/>
<path d="M14.9111 42.0843L17.2992 46.4448L16.622 47.6567L14.1506 43.0348C13.5803 43.5695 13.01 43.8665 12.4278 43.9259C11.8456 43.9853 11.2397 43.8427 10.61 43.4863C9.82578 43.0467 9.3624 42.4407 9.24359 41.6565C9.12477 40.8724 9.37429 39.9337 9.99212 38.8287L11.3466 36.4049L20.1627 41.3239L19.5924 42.3457L15.9091 40.2902L14.9111 42.0843ZM11.6555 37.9139L10.8951 39.2802C10.4911 40.0169 10.301 40.6466 10.3367 41.1694C10.3723 41.6922 10.6812 42.108 11.2516 42.4288C12.4159 43.0823 13.4259 42.6427 14.2813 41.1219L15.0299 39.7911L11.6555 37.9139Z" fill="#5A5752"/>
<path d="M31.3911 31.2008L30.6544 32.0444L28.6702 30.3216L24.0721 35.6207L26.0563 37.3435L25.3197 38.1871L22.5275 35.7633L23.0384 35.1692C22.5988 33.8504 21.8978 32.4484 20.9473 30.9513C19.9849 29.4542 18.9868 28.2185 17.9531 27.2561L20.9235 23.8224L27.7554 29.7275L28.5871 28.7651L31.3911 31.2008ZM26.9949 30.6424L20.9591 25.4264L19.4502 27.1611C20.2344 27.9571 21.0661 29.0384 21.9334 30.4166C22.8008 31.7949 23.4424 33.0781 23.8463 34.2662L26.9949 30.6424Z" fill="#5A5752"/>
<path d="M24.25 20.5312L26.4124 18.6658C27.4224 17.7866 28.2897 17.3113 29.0026 17.2282C29.7155 17.145 30.3571 17.4302 30.9274 18.0836C31.3195 18.5351 31.5096 19.0223 31.5096 19.5332C31.5096 20.0441 31.3076 20.555 30.8918 21.054L30.9393 21.1015C32.27 20.3055 33.375 20.4124 34.2542 21.4342C34.8483 22.1233 35.074 22.8481 34.9433 23.6323C34.8127 24.4165 34.3255 25.165 33.5057 25.8779L30.8324 28.171L24.25 20.5312ZM27.9689 23.0382L29.4303 21.7788C30.0601 21.2322 30.4284 20.7451 30.5353 20.3174C30.6422 19.8777 30.4878 19.4381 30.0838 18.9629C29.7155 18.5351 29.2996 18.3569 28.8244 18.4282C28.3491 18.4995 27.7788 18.8322 27.1134 19.4025L25.8065 20.5312L27.9689 23.0382ZM28.6105 23.7868L31.07 26.6502L32.6621 25.2719C33.2799 24.7373 33.6364 24.2145 33.7433 23.7155C33.8502 23.2164 33.6839 22.6937 33.2443 22.1946C32.8403 21.7194 32.3769 21.5055 31.866 21.5649C31.3551 21.6243 30.7729 21.9214 30.1195 22.4798L28.6105 23.7868Z" fill="#5A5752"/>
<path d="M42.8452 19.1411L38.1282 22.2184L32.6152 13.7588L37.3322 10.6815L37.9025 11.5607L34.1717 13.9964L35.9421 16.7173L39.4471 14.436L40.0174 15.3034L36.5124 17.5846L38.5441 20.6976L42.2749 18.2619L42.8452 19.1411Z" fill="#5A5752"/>
<path d="M47.7047 8.70914C48.1444 9.62402 48.18 10.4914 47.7879 11.2874C47.3958 12.0835 46.6235 12.7607 45.4473 13.331L44.3779 13.8419L46.1007 17.4183L45.0433 17.9292L40.6709 8.83984L43.0234 7.69921C45.2928 6.60612 46.8493 6.9388 47.7047 8.70914ZM43.9383 12.939L44.8888 12.4756C45.8275 12.0241 46.4334 11.5488 46.7067 11.0379C46.98 10.5389 46.9562 9.94482 46.6354 9.27945C46.3503 8.67349 45.9344 8.32893 45.3997 8.222C44.8651 8.11507 44.1759 8.26952 43.3442 8.66161L42.168 9.23192L43.9383 12.939Z" fill="#5A5752"/>
<path d="M58.7418 9.37449C59.027 10.2656 58.9557 11.0498 58.5161 11.727C58.0765 12.4043 57.3161 12.9271 56.2111 13.2716L53.015 14.3053L49.9258 4.69317L51.0426 4.33673L52.3615 8.43585L54.2744 7.81801C55.4507 7.4378 56.4131 7.39028 57.1735 7.65167C57.9339 7.91306 58.4567 8.49526 58.7418 9.37449ZM53.811 12.9746L55.7715 12.3449C57.3636 11.834 57.9695 10.9666 57.5775 9.74281C57.3874 9.14874 57.0428 8.78041 56.5438 8.63783C56.0448 8.49525 55.3437 8.56654 54.4407 8.8517L52.6704 9.42201L53.811 12.9746Z" fill="#5A5752"/>
<path d="M64.8496 0.843574L67.6774 0.534655C69.0081 0.380195 69.9943 0.475249 70.6359 0.807931C71.2775 1.14061 71.6458 1.73469 71.7409 2.60204C71.8003 3.19611 71.6934 3.70702 71.4082 4.13475C71.123 4.56249 70.6597 4.85952 70.0418 5.04962L70.0537 5.12091C71.6102 5.21597 72.4538 5.92886 72.6082 7.27147C72.7033 8.17446 72.4775 8.89923 71.931 9.46954C71.3844 10.0399 70.5646 10.3844 69.4715 10.5032L65.9665 10.8953L64.8496 0.843574ZM66.4893 5.01398L68.4141 4.80011C69.2339 4.70506 69.8161 4.51496 70.1488 4.21792C70.4814 3.92088 70.6121 3.46939 70.5408 2.85155C70.4814 2.29312 70.2319 1.90103 69.8042 1.69904C69.3765 1.49706 68.723 1.43765 67.8438 1.5327L66.1328 1.7228L66.4893 5.01398ZM66.6081 6.00015L67.0239 9.7547L69.1151 9.52895C69.923 9.4339 70.5171 9.22003 70.8973 8.8517C71.2656 8.49526 71.4201 7.98435 71.3488 7.30711C71.2775 6.68927 71.0161 6.24966 70.5646 6.00015C70.1131 5.75063 69.4596 5.67934 68.6042 5.77439L66.6081 6.00015Z" fill="#5A5752"/>
<path d="M80.9842 10.2181L75.3643 10.0874L75.6019 0L81.2218 0.130695L81.1981 1.17627L76.7425 1.06933L76.6712 4.32487L80.8535 4.41992L80.8298 5.45361L76.6475 5.35856L76.5643 9.07747L81.0199 9.1844L80.9842 10.2181Z" fill="#5A5752"/>
<path d="M83.4795 10.4795L84.929 0.487152L86.0934 0.653492L84.7983 9.58838L89.2064 10.23L89.0519 11.2874L83.4795 10.4795Z" fill="#5A5752"/>
<path d="M99.3537 14.1865L98.2487 13.8419L98.3081 6.78434C98.3081 6.47542 98.3081 6.08333 98.3319 5.60807C98.3556 5.13281 98.3794 4.85953 98.4031 4.76448C98.1299 5.31103 97.7734 5.90511 97.3457 6.52294L93.4604 12.3449L92.3555 12.0003L92.7951 1.56836L93.9832 1.93669L93.6505 8.36458C93.603 9.26757 93.5199 10.0636 93.401 10.7765C93.7694 10.0161 94.1971 9.27945 94.6605 8.57844L98.213 3.25553L99.4012 3.62386L99.3774 10.0993C99.3774 10.8478 99.318 11.6676 99.1873 12.5706C99.4606 11.9766 99.8646 11.2637 100.375 10.4438L103.738 4.97835L104.926 5.34667L99.3537 14.1865Z" fill="#5A5752"/>
<path d="M113.576 15.4697C112.815 16.8955 111.865 17.8341 110.712 18.2619C109.56 18.7015 108.336 18.5708 107.053 17.8935C105.734 17.2044 104.938 16.2658 104.653 15.0776C104.367 13.9014 104.605 12.5706 105.377 11.1092C106.15 9.65967 107.1 8.72103 108.241 8.2933C109.381 7.87744 110.605 8.00814 111.924 8.70915C113.207 9.38639 113.991 10.325 114.277 11.5132C114.574 12.7251 114.336 14.0321 113.576 15.4697ZM106.47 11.7152C105.829 12.9271 105.603 13.9726 105.793 14.8756C105.983 15.7668 106.565 16.4796 107.54 17.0024C108.526 17.5252 109.441 17.6084 110.272 17.2519C111.104 16.8955 111.841 16.1113 112.482 14.8994C113.112 13.6994 113.35 12.6538 113.172 11.7746C112.993 10.8835 112.423 10.1825 111.437 9.65967C110.451 9.13688 109.536 9.05371 108.68 9.41016C107.837 9.74284 107.1 10.5151 106.47 11.7152Z" fill="#5A5752"/>
<path d="M123.259 22.5986C122.273 23.8818 121.18 24.6422 119.968 24.8799C118.756 25.1175 117.58 24.7967 116.416 23.9056C115.239 23.0026 114.598 21.9451 114.515 20.7332C114.431 19.5213 114.883 18.25 115.893 16.943C116.891 15.6361 117.984 14.8757 119.184 14.6499C120.372 14.4242 121.56 14.7687 122.748 15.6717C123.901 16.5509 124.519 17.6084 124.602 18.8322C124.685 20.056 124.246 21.3154 123.259 22.5986ZM116.879 17.7035C116.047 18.7847 115.643 19.7827 115.679 20.6976C115.715 21.6125 116.166 22.4085 117.045 23.0858C117.936 23.763 118.816 24.0006 119.695 23.7868C120.574 23.5729 121.43 22.9313 122.273 21.8382C123.105 20.757 123.497 19.7708 123.473 18.8678C123.449 17.9648 122.998 17.1807 122.107 16.4915C121.216 15.8143 120.325 15.5767 119.434 15.7786C118.554 16.0044 117.699 16.6341 116.879 17.7035Z" fill="#5A5752"/>
<path d="M131.207 30.678C129.995 31.8187 128.748 32.3533 127.488 32.3058C126.229 32.2583 125.017 31.6048 123.852 30.3572L121.939 28.3136L129.306 21.4105L131.421 23.6679C132.49 24.8086 133.013 25.9967 132.965 27.2324C132.93 28.4681 132.348 29.6087 131.207 30.678ZM130.328 29.7988C131.29 28.8958 131.789 27.9809 131.825 27.0423C131.861 26.1037 131.433 25.165 130.542 24.2026L129.377 22.9551L123.496 28.4681L124.47 29.5136C125.421 30.5355 126.395 31.0701 127.381 31.1058C128.355 31.1652 129.342 30.7256 130.328 29.7988Z" fill="#5A5752"/>
<path d="M137.719 39.9575C136.34 40.8842 135.022 41.2288 133.786 40.9674C132.55 40.706 131.457 39.8743 130.507 38.4723L128.95 36.1554L137.315 30.5117L139.038 33.0781C139.917 34.3851 140.238 35.6326 140 36.8445C139.786 38.0446 139.014 39.0782 137.719 39.9575ZM136.994 38.9476C138.087 38.2109 138.729 37.3792 138.907 36.4643C139.085 35.5376 138.824 34.5395 138.087 33.4583L137.137 32.0444L130.447 36.5475L131.243 37.7356C132.027 38.9 132.895 39.5773 133.857 39.7793C134.832 39.9694 135.877 39.6961 136.994 38.9476Z" fill="#5A5752"/>
<path d="M142.864 50.8172C141.39 51.4825 140.072 51.6489 138.883 51.2805C137.707 50.9241 136.816 50.0805 136.21 48.7617C135.592 47.4072 135.533 46.1715 136.02 45.0665C136.507 43.9615 137.505 43.0585 139.014 42.3694C140.511 41.6922 141.842 41.5258 142.994 41.8941C144.159 42.2506 145.038 43.1179 145.668 44.4724C146.274 45.7913 146.321 47.0151 145.822 48.1319C145.323 49.2488 144.337 50.1399 142.864 50.8172ZM139.525 43.4981C138.277 44.0685 137.458 44.7576 137.054 45.5893C136.65 46.4091 136.685 47.324 137.137 48.3339C137.6 49.3557 138.277 49.9736 139.145 50.1993C140.024 50.4251 141.081 50.2587 142.329 49.6884C143.565 49.13 144.384 48.4409 144.788 47.6329C145.192 46.825 145.157 45.9101 144.693 44.9002C144.23 43.8784 143.553 43.2605 142.674 43.0229C141.806 42.7734 140.761 42.9397 139.525 43.4981Z" fill="#5A5752"/>
<path d="M146.178 62.4016C144.621 62.8175 143.278 62.7462 142.185 62.1878C141.08 61.6293 140.344 60.655 139.975 59.253C139.595 57.8154 139.738 56.5916 140.415 55.5816C141.08 54.5717 142.221 53.8469 143.825 53.4192C145.417 53.0034 146.748 53.0628 147.829 53.6212C148.91 54.1678 149.647 55.1658 150.027 56.6153C150.395 58.0174 150.241 59.2293 149.564 60.2511C148.886 61.2729 147.734 61.9858 146.178 62.4016ZM144.11 54.6192C142.791 54.9638 141.865 55.5104 141.33 56.2589C140.795 57.0074 140.676 57.9104 140.95 58.9798C141.235 60.061 141.793 60.7857 142.625 61.1541C143.457 61.5224 144.526 61.5343 145.857 61.1897C147.164 60.8451 148.09 60.2986 148.625 59.5738C149.16 58.8491 149.279 57.9461 148.993 56.8648C148.708 55.7836 148.15 55.0589 147.318 54.6668C146.486 54.2984 145.417 54.2747 144.11 54.6192Z" fill="#5A5752"/>
<path d="M145.917 66.881L141.747 67.3325L141.616 66.1681L151.656 65.0869L151.953 67.8434C152.084 69.079 151.953 70.0058 151.537 70.6474C151.133 71.289 150.456 71.6573 149.506 71.7643C148.175 71.9068 147.212 71.3365 146.595 70.0414L142.377 73.2494L142.222 71.8712L146.131 68.9959L145.917 66.881ZM146.915 66.774L147.094 68.378C147.189 69.1979 147.414 69.7919 147.783 70.1365C148.151 70.4811 148.662 70.6236 149.315 70.5523C149.981 70.4811 150.432 70.2315 150.682 69.8038C150.931 69.3761 151.014 68.7345 150.919 67.8671L150.753 66.3463L146.915 66.774Z" fill="#5A5752"/>
<path d="M144.918 80.8773C144.027 80.8536 143.35 80.5209 142.863 79.8674C142.376 79.2139 142.15 78.3347 142.174 77.2297C142.197 76.0297 142.376 75.1148 142.696 74.4732L143.825 74.497C143.647 74.9128 143.492 75.3525 143.385 75.8396C143.279 76.3267 143.207 76.802 143.207 77.2891C143.195 78.0733 143.326 78.6674 143.611 79.0714C143.896 79.4753 144.312 79.6773 144.835 79.6892C145.18 79.7011 145.477 79.6298 145.702 79.4991C145.928 79.3684 146.142 79.1308 146.332 78.81C146.522 78.4892 146.748 77.9901 147.009 77.3248C147.366 76.398 147.782 75.7327 148.245 75.3406C148.708 74.9485 149.314 74.7584 150.063 74.7703C150.835 74.7821 151.453 75.0911 151.905 75.6851C152.356 76.2792 152.57 77.0634 152.546 78.0139C152.522 79.012 152.32 79.9387 151.94 80.7704L150.93 80.3783C151.299 79.5585 151.489 78.7506 151.512 77.9545C151.524 77.3367 151.405 76.8495 151.144 76.4931C150.883 76.1366 150.514 75.9584 150.051 75.9465C149.706 75.9346 149.409 75.9941 149.184 76.1247C148.958 76.2436 148.744 76.4574 148.554 76.7664C148.364 77.0634 148.15 77.5268 147.9 78.1565C147.496 79.2021 147.081 79.9268 146.641 80.3189C146.201 80.711 145.607 80.8892 144.918 80.8773Z" fill="#5A5752"/>
<path d="M140.511 91.4757L150.016 90.3113L150.028 90.2519C149.327 90.1449 148.495 89.9786 147.556 89.741L141.319 88.1964L141.58 87.1508L151.382 89.5746L150.954 91.2856L142.103 92.3786L142.091 92.4262L149.398 97.559L148.97 99.258L139.168 96.8342L139.453 95.6936L145.762 97.2619C146.487 97.4402 147.259 97.6659 148.103 97.9392L148.115 97.8798L140.273 92.3786L140.511 91.4757Z" fill="#5A5752"/>
<path d="M139.132 109.666C137.659 109.001 136.673 108.098 136.162 106.981C135.651 105.852 135.71 104.628 136.305 103.31C136.922 101.955 137.802 101.1 138.966 100.743C140.13 100.387 141.461 100.541 142.97 101.23C144.467 101.908 145.453 102.799 145.952 103.916C146.439 105.021 146.38 106.256 145.762 107.623C145.168 108.941 144.277 109.785 143.101 110.141C141.936 110.486 140.606 110.332 139.132 109.666ZM142.447 102.347C141.2 101.789 140.142 101.622 139.251 101.86C138.372 102.098 137.695 102.727 137.231 103.737C136.768 104.759 136.744 105.674 137.148 106.482C137.552 107.29 138.384 107.979 139.631 108.549C140.867 109.108 141.924 109.274 142.792 109.048C143.671 108.823 144.336 108.205 144.788 107.183C145.251 106.161 145.275 105.246 144.871 104.426C144.491 103.583 143.683 102.894 142.447 102.347Z" fill="#5A5752"/>
<path d="M136.067 114.87L142.352 114.371L141.616 115.453L135.366 115.928L139.394 118.696L138.752 119.635L134.724 116.866L136.53 122.878L135.794 123.96L134.012 117.912L127.394 118.352L128.154 117.235L134.641 116.807L130.423 113.92L131.065 112.981L135.283 115.868L133.334 109.666L134.107 108.537L136.067 114.87Z" fill="#5A5752"/>
<path d="M122.332 123.556L126.182 119.445L133.548 126.348L129.699 130.459L128.938 129.746L131.98 126.502L129.604 124.28L126.74 127.334L125.98 126.621L128.843 123.568L126.134 121.025L123.092 124.28L122.332 123.556Z" fill="#5A5752"/>
<path d="M118.078 127.263L118.981 126.514L124.779 133.465L127.239 131.421L127.904 132.217L122.094 137.065L121.429 136.269L123.888 134.225L118.078 127.263Z" fill="#5A5752"/>
<path d="M106.399 138.289C105.912 137.41 105.817 136.613 106.114 135.912C106.411 135.2 107.076 134.558 108.134 133.988L110.724 132.562L115.584 141.402L110.368 144.265L109.869 143.35L114.051 141.045L112.483 138.182L111.104 138.942C110.332 139.37 109.643 139.631 109.061 139.715C108.478 139.81 107.968 139.738 107.54 139.513C107.1 139.299 106.732 138.895 106.399 138.289ZM110.178 134.011L108.728 134.807C107.968 135.223 107.48 135.663 107.267 136.114C107.065 136.566 107.124 137.101 107.457 137.695C107.766 138.265 108.17 138.574 108.657 138.621C109.144 138.669 109.833 138.443 110.712 137.968L111.96 137.279L110.178 134.011Z" fill="#5A5752"/>
<path d="M94.1729 139.845L95.2778 139.453L98.6641 148.958L97.5591 149.35L94.1729 139.845ZM102.918 136.732L106.304 146.237L105.199 146.63L103.749 142.566L102.193 143.125C101.064 143.528 100.114 143.612 99.3651 143.386C98.6165 143.148 98.0819 142.59 97.7611 141.687C97.4403 140.796 97.4759 140.012 97.868 139.334C98.2601 138.657 98.9967 138.122 100.078 137.742L102.918 136.732ZM102.145 138.075L100.541 138.645C99.7572 138.93 99.2344 139.287 98.973 139.715C98.7116 140.154 98.6878 140.677 98.9136 141.283C99.1274 141.877 99.472 142.233 99.9591 142.364C100.446 142.495 101.112 142.4 101.979 142.091L103.405 141.58L102.145 138.075Z" fill="#5A5752"/>
<path d="M88.1836 141.069L89.3361 140.843L91.047 149.731L94.1837 149.125L94.3857 150.146L86.9598 151.584L86.7578 150.562L89.8945 149.956L88.1836 141.069Z" fill="#5A5752"/>
<path d="M76.4816 145.204C76.4222 144.265 76.6955 143.528 77.2895 142.982C77.8836 142.435 78.751 142.126 79.9153 142.055L83.2659 141.853L83.86 151.929L82.6837 152L82.4342 147.699L80.4263 147.818C79.2025 147.889 78.2519 147.699 77.5747 147.259C76.8974 146.82 76.5291 146.131 76.4816 145.204ZM82.1491 142.934L80.0936 143.053C78.4183 143.148 77.6222 143.837 77.6935 145.121C77.7292 145.738 77.9668 146.19 78.4183 146.451C78.8698 146.713 79.5589 146.82 80.5094 146.772L82.3748 146.665L82.1491 142.934Z" fill="#5A5752"/>
<path d="M64.2555 150.384C65.3486 150.539 66.2754 150.301 67.012 149.671C67.7487 149.03 68.2121 148.079 68.4022 146.808C68.5923 145.501 68.4378 144.443 67.9269 143.647C67.416 142.851 66.5962 142.364 65.4674 142.198C64.7664 142.103 63.9585 142.103 63.0317 142.222L63.1743 141.2C63.8991 141.045 64.7783 141.033 65.8001 141.188C67.2734 141.402 68.3428 142.008 69.0081 143.018C69.6735 144.028 69.8992 145.358 69.6497 146.998C69.4953 148.032 69.1745 148.899 68.6754 149.624C68.1764 150.337 67.5348 150.859 66.7506 151.168C65.9665 151.477 65.0754 151.572 64.0892 151.43C63.0436 151.275 62.1525 150.954 61.4277 150.455L62.0693 149.529C62.7703 149.992 63.507 150.277 64.2555 150.384Z" fill="#5A5752"/>
<path d="M53.8475 138.36L55.2139 138.752L58.2674 144.966L59.6932 140.047L60.8219 140.368L58.0179 150.063L56.8892 149.731L58.2436 145.037L52.5168 148.471L51.2217 148.091L56.8773 144.622L53.8475 138.36Z" fill="#5A5752"/>
<path d="M43.6169 141.687C44.0327 140.748 44.6625 140.178 45.5298 139.952C46.3853 139.726 47.419 139.881 48.5952 140.404L49.6883 140.879L51.2923 137.243L52.3617 137.718L48.2982 146.95L45.8981 145.893C43.5812 144.883 42.8208 143.481 43.6169 141.687ZM49.2725 141.806L48.3101 141.378C47.3596 140.962 46.5991 140.808 46.0407 140.926C45.4823 141.045 45.0545 141.449 44.7456 142.126C44.4724 142.732 44.4724 143.279 44.7456 143.754C45.0189 144.23 45.5773 144.657 46.4209 145.026L47.6209 145.56L49.2725 141.806Z" fill="#5A5752"/>
<path d="M36.5955 129.069L37.5817 129.71L32.1043 138.194L31.1182 137.552L36.5955 129.069ZM44.4017 134.106L38.9243 142.59L37.9381 141.948L40.2788 138.324L38.8887 137.433C37.8787 136.78 37.2371 136.091 36.9639 135.354C36.6906 134.617 36.8094 133.845 37.3322 133.049C37.8431 132.253 38.4966 131.801 39.2689 131.706C40.0412 131.599 40.9085 131.861 41.8709 132.491L44.4017 134.106ZM42.869 134.308L41.4313 133.382C40.7303 132.93 40.1243 132.74 39.6253 132.799C39.1263 132.859 38.6986 133.156 38.3421 133.703C37.9976 134.237 37.9263 134.724 38.1164 135.188C38.3065 135.651 38.7936 136.126 39.5659 136.625L40.8372 137.445L42.869 134.308Z" fill="#5A5752"/>
<path d="M32.0093 125.077L32.8885 125.861L26.8765 132.633L29.2646 134.76L28.5755 135.544L22.9199 130.518L23.6091 129.734L25.9972 131.861L32.0093 125.077Z" fill="#5A5752"/>
<path d="M18.8791 118.28C20.1148 117.235 21.3504 116.736 22.5861 116.771C23.8218 116.807 24.903 117.377 25.8417 118.482C26.8041 119.623 27.1843 120.787 27.0179 121.999C26.8397 123.199 26.1268 124.34 24.8555 125.409C23.596 126.467 22.3604 126.978 21.1485 126.942C19.9365 126.906 18.8434 126.312 17.8929 125.172C16.9543 124.067 16.586 122.902 16.7642 121.678C16.9305 120.455 17.6315 119.326 18.8791 118.28ZM24.0475 124.435C25.0931 123.556 25.6991 122.665 25.8654 121.762C26.0318 120.859 25.7585 119.991 25.0456 119.136C24.3208 118.28 23.5129 117.864 22.6099 117.876C21.7069 117.888 20.7207 118.34 19.6752 119.219C18.6415 120.098 18.0355 120.977 17.8573 121.857C17.6909 122.748 17.9523 123.615 18.6771 124.471C19.4019 125.326 20.2098 125.754 21.1247 125.742C22.0515 125.742 23.0139 125.302 24.0475 124.435Z" fill="#5A5752"/>
<path d="M9.85042 114.882C10.2782 115.619 10.4564 116.237 10.3732 116.736C10.29 117.235 9.93359 117.698 9.30387 118.126L8.75732 117.199C9.14941 116.926 9.37516 116.641 9.43457 116.367C9.49397 116.094 9.38704 115.726 9.12565 115.274C8.88802 114.87 8.61474 114.609 8.32959 114.526C8.04443 114.431 7.68799 114.478 7.27213 114.656L6.72559 113.718C7.37907 113.397 7.96126 113.326 8.46028 113.504C8.95931 113.694 9.42268 114.146 9.85042 114.882ZM12.6663 118.078L12.1079 117.128L16.9556 114.288C17.8467 113.765 18.6784 113.314 19.4269 112.946L19.4031 112.898L9.28011 112.268L8.62662 111.163L17.3358 106.054L17.8942 107.005L13.0941 109.821C12.298 110.284 11.4425 110.747 10.5158 111.187L10.5514 111.235L20.722 111.841L21.3755 112.946L12.6663 118.078Z" fill="#5A5752"/>
<path d="M4.96582 104.474L7.60351 103.725L5.85693 101.468L6.95003 100.826L8.13818 103.179L9.57584 100.743L10.6214 101.599L8.7679 103.666L11.5006 103.749L11.3581 105.116L8.64908 104.415L9.43326 106.91L8.19758 107.195L7.88867 104.403L5.47673 105.698L4.96582 104.474Z" fill="#5A5752"/>
<path d="M33.4473 107.088C38.4475 107.088 42.501 103.034 42.501 98.0342C42.501 93.034 38.4475 88.9805 33.4473 88.9805C28.447 88.9805 24.3936 93.034 24.3936 98.0342C24.3936 103.034 28.447 107.088 33.4473 107.088Z" fill="#737578"/>
</svg>
