<svg width="75" height="85" viewBox="0 0 75 85" fill="none" xmlns="http://www.w3.org/2000/svg">
<g clip-path="url(#clip0_734_233)">
<path d="M64.3365 71.7771C78.5572 57.557 78.5572 34.5016 64.3365 20.2815C50.1158 6.06141 27.0595 6.06141 12.8387 20.2815C-1.38199 34.5016 -1.38199 57.557 12.8387 71.7771C27.0595 85.9972 50.1158 85.9972 64.3365 71.7771Z" fill="#E9EAEB"/>
<path d="M31.715 35.0391L10.416 56.3372L29.2691 75.9177L38.7093 66.4778C40.9079 64.293 45.3601 67.6045 48.4382 64.5266L51.6262 61.3388L54.8141 58.1372L31.715 35.0391Z" fill="white" stroke="#605353" stroke-width="2" stroke-miterlimit="10"/>
<path d="M25.4355 17.6701C26.2095 15.3695 26.2893 12.892 25.665 10.5463C25.0407 8.20069 23.7399 6.09061 21.9246 4.47909C20.1094 2.86757 17.86 1.82588 15.4568 1.4838C13.0536 1.14171 10.6029 1.51434 8.41008 2.55532L15.6655 9.81045L9.83917 15.6502L2.57002 8.3814C1.52482 10.5747 1.14884 13.0272 1.48901 15.4328C1.82919 17.8384 2.87045 20.0906 4.4828 21.908C6.09515 23.7255 8.20717 25.0278 10.5552 25.6524C12.9032 26.2769 15.3831 26.1961 17.6854 25.4199L62.6332 70.3382C63.1437 70.8493 63.7499 71.2546 64.4172 71.5312C65.0844 71.8078 65.7997 71.9502 66.522 71.9502C67.2443 71.9502 67.9596 71.8078 68.6269 71.5312C69.2941 71.2546 69.9003 70.8493 70.4108 70.3382C71.4387 69.3079 72.016 67.9119 72.016 66.4565C72.016 65.0011 71.4387 63.6051 70.4108 62.5747L25.4355 17.6701Z" fill="#F7B27F" stroke="#605353" stroke-width="2" stroke-miterlimit="10"/>
<path d="M45.7864 24.4173L42.8733 21.5042C42.6181 21.2487 42.315 21.046 41.9813 20.9077C41.6477 20.7694 41.2901 20.6982 40.9289 20.6982C40.5677 20.6982 40.2101 20.7694 39.8765 20.9077C39.5428 21.046 39.2397 21.2487 38.9845 21.5042L33.1582 27.3303L40.0289 34.132L45.8552 28.3059C46.1062 28.0462 46.3036 27.7395 46.4361 27.4035C46.5685 27.0674 46.6334 26.7085 46.627 26.3473C46.6206 25.9862 46.5431 25.6298 46.3989 25.2987C46.2546 24.9675 46.0465 24.6679 45.7864 24.4173Z" fill="white"/>
<path d="M33.1582 27.3303L38.9845 21.5042C39.2398 21.2487 39.5428 21.046 39.8765 20.9077C40.2101 20.7694 40.5677 20.6982 40.9289 20.6982C41.2901 20.6982 41.6477 20.7694 41.9813 20.9077C42.315 21.046 42.6181 21.2487 42.8733 21.5042L45.7865 24.4173C46.042 24.6725 46.2447 24.9756 46.383 25.3092C46.5213 25.6428 46.5925 26.0004 46.5925 26.3616C46.5925 26.7227 46.5213 27.0803 46.383 27.4139C46.2447 27.7476 46.042 28.0507 45.7865 28.3059L39.9601 34.132" stroke="#605353" stroke-width="2" stroke-miterlimit="10"/>
<path d="M54.5394 29.2815L51.64 26.3685C51.3848 26.113 51.0817 25.9103 50.748 25.772C50.4144 25.6337 50.0568 25.5625 49.6956 25.5625C49.3344 25.5625 48.9768 25.6337 48.6432 25.772C48.3096 25.9103 48.0064 26.113 47.7512 26.3685L39.9736 34.132L46.8443 41.0023L54.6219 33.2389C54.8826 32.977 55.0878 32.6653 55.2253 32.3223C55.3628 31.9793 55.4296 31.6121 55.4219 31.2427C55.4142 30.8732 55.3321 30.5092 55.1805 30.1722C55.0288 29.8352 54.8108 29.5323 54.5394 29.2815Z" fill="white"/>
<path d="M46.7618 40.9337L54.5394 33.1702C54.7949 32.9149 54.9976 32.6118 55.136 32.2782C55.2743 31.9446 55.3454 31.587 55.3454 31.2258C55.3454 30.8647 55.2743 30.5071 55.136 30.1734C54.9976 29.8398 54.7949 29.5368 54.5394 29.2815L51.64 26.3685C51.3848 26.113 51.0817 25.9103 50.748 25.772C50.4144 25.6337 50.0568 25.5625 49.6956 25.5625C49.3344 25.5625 48.9768 25.6337 48.6432 25.772C48.3096 25.9103 48.0064 26.113 47.7512 26.3685L39.9736 34.132" stroke="#605353" stroke-width="2" stroke-miterlimit="10"/>
<path d="M61.4927 39.8479C61.9666 39.3314 62.2167 38.6483 62.1883 37.9479C62.16 37.2476 61.8556 36.5869 61.3415 36.1104L58.4284 33.1973C58.1934 32.9412 57.9101 32.7341 57.5948 32.5878C57.2794 32.4415 56.9383 32.359 56.591 32.3449C56.2437 32.3309 55.897 32.3856 55.5709 32.506C55.2448 32.6263 54.9457 32.8099 54.6908 33.0462L46.6109 41.112C46.137 41.6285 45.8869 42.3116 45.9153 43.0119C45.9436 43.7123 46.248 44.3729 46.762 44.8495L49.6752 47.7625C50.1518 48.2765 50.8124 48.5809 51.5128 48.6092C52.2132 48.6376 52.8963 48.3875 53.4128 47.9136L61.4927 39.8479Z" fill="white" stroke="#605353" stroke-width="2" stroke-miterlimit="10"/>
<path d="M37.5004 25.8463C36.7628 24.9766 35.8098 24.3159 34.7367 23.93C33.6636 23.5442 32.508 23.4469 31.3855 23.6478C28.6372 24.0462 24.4187 24.4859 22.9209 25.5852C21.4231 26.6845 20.0352 32.1533 20.0352 36.3717C20.0352 41.4695 19.8428 46.4299 18.771 47.4879L9.78418 56.488L33.007 54.4819C38.5035 48.9856 37.6515 39.6557 33.1994 35.2449C34.0376 36.0831 37.2118 39.2435 39.3692 41.4145C43.7802 45.8253 50.3622 42.6787 51.4203 39.8618L37.5004 25.8463Z" fill="white"/>
<path d="M9.83887 56.488L18.8257 47.4879C19.8975 46.4299 20.0899 41.4695 20.0899 36.3717C20.0899 32.1533 21.464 26.6845 22.9206 25.5852C24.3772 24.4859 28.7057 24.0462 31.3852 23.6478C32.5077 23.4469 33.6633 23.5442 34.7364 23.93C35.8095 24.3159 36.7625 24.9766 37.5001 25.8463L51.475 39.8481C50.4032 42.5962 43.8348 45.8115 39.4239 41.4008C37.2665 39.2297 34.0923 36.0694 33.254 35.2312C37.7062 39.6832 38.5444 49.0406 33.0617 54.4682" stroke="#605353" stroke-width="2" stroke-miterlimit="10"/>
<path d="M65.5461 47.6253C65.9833 47.1852 66.2287 46.5899 66.2287 45.9696C66.2287 45.3492 65.9833 44.754 65.5461 44.3138L63.0452 41.813C62.8293 41.5953 62.5725 41.4225 62.2894 41.3046C62.0064 41.1867 61.7029 41.126 61.3963 41.126C61.0897 41.126 60.7861 41.1867 60.5031 41.3046C60.2201 41.4225 59.9632 41.5953 59.7473 41.813L52.3407 49.2055C51.9036 49.6457 51.6582 50.2409 51.6582 50.8613C51.6582 51.4817 51.9036 52.0769 52.3407 52.517L54.8279 55.0179C55.2681 55.455 55.8633 55.7004 56.4838 55.7004C57.1042 55.7004 57.6994 55.455 58.1396 55.0179L65.5461 47.6253Z" fill="white" stroke="#605353" stroke-width="2" stroke-miterlimit="10"/>
<path d="M35.7574 74.2907L11.0244 49.5674L2.28103 58.3134L27.014 83.0367L35.7574 74.2907Z" fill="#E9EAEB" stroke="#605353" stroke-width="2" stroke-miterlimit="10"/>
<path d="M64.0068 63.9492L66.7551 66.6974" stroke="#605353" stroke-width="2" stroke-miterlimit="10"/>
<path d="M10.416 57.0791L14.5384 61.2013" stroke="#605353" stroke-width="2" stroke-miterlimit="10"/>
</g>
<defs>
<clipPath id="clip0_734_233">
<rect width="75" height="85" fill="white"/>
</clipPath>
</defs>
</svg>
