<svg width="91" height="78" viewBox="0 0 91 78" fill="none" xmlns="http://www.w3.org/2000/svg">
<path d="M44.0551 78C65.1953 78 82.3329 60.5391 82.3329 39C82.3329 17.4609 65.1953 0 44.0551 0C22.9149 0 5.77734 17.4609 5.77734 39C5.77734 60.5391 22.9149 78 44.0551 78Z" fill="#E9EAEB"/>
<path d="M45.7603 20.583C44.9441 19.575 43.9144 18.7606 42.7454 18.1986C41.5764 17.6366 40.2973 17.341 39.0003 17.333H8.66699V44.7774H14.3003C14.3003 44.7774 17.7959 50.5552 24.4114 50.5552H53.4448V30.333L45.7603 20.583Z" fill="white" stroke="#605353" stroke-width="2" stroke-miterlimit="10"/>
<path d="M89.5555 30.333H33.2221L27.4443 36.1108V64.9997H89.5555V30.333Z" fill="white" stroke="#605353" stroke-width="2" stroke-miterlimit="10"/>
<path d="M79.4449 59.2224H37.556C37.556 58.0732 37.0994 56.971 36.2868 56.1583C35.4741 55.3457 34.3719 54.8891 33.2227 54.8891V40.4447C34.3719 40.4447 35.4741 39.9881 36.2868 39.1754C37.0994 38.3628 37.556 37.2606 37.556 36.1113H79.4449C79.4449 37.2606 79.9014 38.3628 80.7141 39.1754C81.5267 39.9881 82.629 40.4447 83.7782 40.4447V54.8891C82.629 54.8891 81.5267 55.3457 80.7141 56.1583C79.9014 56.971 79.4449 58.0732 79.4449 59.2224Z" fill="#F7B27F" stroke="#605353" stroke-width="2" stroke-miterlimit="10"/>
<path d="M76.5559 47.667H73.667" stroke="#605353" stroke-width="2" stroke-miterlimit="10"/>
<path d="M64.9996 47.6666C64.8683 48.9253 64.3748 50.1189 63.5789 51.1028C62.783 52.0868 61.7188 52.8188 60.5153 53.2102C59.3118 53.6016 58.0206 53.6356 56.7982 53.3081C55.5758 52.9806 54.4746 52.3056 53.628 51.3649C52.7814 50.4242 52.2257 49.2582 52.0283 48.0082C51.8309 46.7581 52.0003 45.4777 52.5159 44.3219C53.0315 43.1662 53.8711 42.1847 54.9332 41.4965C55.9952 40.8083 57.2341 40.4428 58.4996 40.4443C60.3174 40.5451 62.0215 41.3613 63.2394 42.7146C64.4574 44.0679 65.0902 45.8482 64.9996 47.6666Z" fill="white" stroke="#605353" stroke-width="2" stroke-miterlimit="10"/>
<path d="M48.6052 41.0512C45.2541 37.7001 32.4563 24.5557 32.4563 24.5557L17.333 36.1112C19.1827 37.5239 21.3746 38.4195 23.6843 38.7063C25.994 38.9931 28.3384 38.6608 30.4774 37.7434C30.4774 37.7434 37.0063 43.5212 38.9852 44.9657C43.7663 48.2157 51.9997 44.4023 48.6052 41.0512Z" fill="white"/>
<path d="M32.4563 24.5557C32.4563 24.5557 45.2541 37.6568 48.6052 41.0079C51.9563 44.359 43.7663 48.2301 39.043 44.9945C37.0641 43.5501 30.5352 37.7723 30.5352 37.7723C28.3862 38.6967 26.0292 39.0301 23.7081 38.738C21.387 38.446 19.1861 37.5391 17.333 36.1112" stroke="#605353" stroke-width="2" stroke-miterlimit="10"/>
<path d="M10.1111 14.4443H0V49.111H10.1111V14.4443Z" fill="#E9EAEB"/>
<path d="M0 14.4443H10.1111V49.111H0" stroke="#605353" stroke-width="2" stroke-miterlimit="10"/>
<path d="M4.33301 18.7773V23.1107" stroke="#605353" stroke-width="2" stroke-miterlimit="10"/>
</svg>
