<svg width="73" height="73" viewBox="0 0 73 73" fill="none" xmlns="http://www.w3.org/2000/svg">
<path d="M16.5459 7.44989C21.5053 4.0515 27.2503 1.97567 33.2365 1.41918C39.2228 0.86268 45.2519 1.84393 50.7528 4.2699" stroke="#BCC0C4" stroke-width="2" stroke-miterlimit="10"/>
<path d="M4.33321 50.9048C2.28676 46.3158 1.24184 41.3434 1.26806 36.3188C1.29427 31.2943 2.39105 26.333 4.48528 21.7656" stroke="#BCC0C4" stroke-width="2" stroke-miterlimit="10"/>
<path d="M49.4859 69.2626C44.8058 71.1096 39.7854 71.9362 34.7603 71.6871C29.7352 71.438 24.8211 70.1191 20.3467 67.8184" stroke="#BCC0C4" stroke-width="2" stroke-miterlimit="10"/>
<path d="M67.8941 20.499C70.5263 25.6699 71.8421 31.4104 71.725 37.2115C71.6079 43.0126 70.0614 48.6952 67.2227 53.7557" stroke="#BCC0C4" stroke-width="2" stroke-miterlimit="10"/>
<path d="M36.5002 61.5219C50.3193 61.5219 61.5219 50.3193 61.5219 36.5002C61.5219 22.6811 50.3193 11.4785 36.5002 11.4785C22.6811 11.4785 11.4785 22.6811 11.4785 36.5002C11.4785 50.3193 22.6811 61.5219 36.5002 61.5219Z" fill="#E9EAEB"/>
<path d="M18.5164 14.5109L11.3496 21.6777L52.5586 62.8868L59.7254 55.72L18.5164 14.5109Z" fill="#F7B27F"/>
<path d="M11.5541 21.8675L7.96875 11.124L18.7122 14.7094L59.7351 55.7197L52.5644 62.8904L11.5541 21.8675Z" stroke="#605353" stroke-width="2" stroke-linejoin="round"/>
<path d="M14.9365 18.0918L56.1495 59.3047" stroke="#605353" stroke-width="2" stroke-miterlimit="10"/>
<path d="M59.7225 55.7188L63.5232 59.5195C63.765 59.6867 63.9654 59.9069 64.1089 60.1635C64.2524 60.42 64.3352 60.706 64.3511 60.9995C64.367 61.293 64.3155 61.5862 64.2006 61.8567C64.0856 62.1272 63.9103 62.3679 63.688 62.5602L60.0772 66.1075C59.089 67.1084 57.328 67.6532 56.3398 66.665L52.5391 62.8642" stroke="#605353" stroke-width="2" stroke-miterlimit="10"/>
<path d="M58.3648 6.56004L5.15137 59.7734L12.7571 67.3792L65.9705 14.1658L58.3648 6.56004Z" fill="white" stroke="#605353" stroke-width="2" stroke-miterlimit="10"/>
<path d="M53.5273 19.1182L57.1127 22.7036" stroke="#605353" stroke-width="2" stroke-miterlimit="10"/>
<path d="M58.0127 14.6328L61.5981 18.2182" stroke="#605353" stroke-width="2" stroke-miterlimit="10"/>
<path d="M44.5703 28.0752L48.1557 31.6606" stroke="#605353" stroke-width="2" stroke-miterlimit="10"/>
<path d="M49.0557 23.5898L52.6411 27.1752" stroke="#605353" stroke-width="2" stroke-miterlimit="10"/>
<path d="M35.6133 37.0322L39.1987 40.6176" stroke="#605353" stroke-width="2" stroke-miterlimit="10"/>
<path d="M40.0977 32.5596L43.683 36.1323" stroke="#605353" stroke-width="2" stroke-miterlimit="10"/>
<path d="M26.6562 45.9893L30.2416 49.5746" stroke="#605353" stroke-width="2" stroke-miterlimit="10"/>
<path d="M31.1406 41.5166L34.726 45.0893" stroke="#605353" stroke-width="2" stroke-miterlimit="10"/>
<path d="M17.6992 54.9463L21.2846 58.5317" stroke="#605353" stroke-width="2" stroke-miterlimit="10"/>
<path d="M22.1836 50.4746L25.7563 54.06" stroke="#605353" stroke-width="2" stroke-miterlimit="10"/>
<path d="M13.2139 59.4316L16.5459 62.3075" stroke="#605353" stroke-width="2" stroke-miterlimit="10"/>
</svg>
