<svg width="77" height="72" viewBox="0 0 77 72" fill="none" xmlns="http://www.w3.org/2000/svg">
<path d="M31.6689 59.6754C47.7876 59.6754 60.8544 46.7083 60.8544 30.7127C60.8544 14.717 47.7876 1.75 31.6689 1.75C15.5502 1.75 2.4834 14.717 2.4834 30.7127C2.4834 46.7083 15.5502 59.6754 31.6689 59.6754Z" fill="#E9EAEB"/>
<path d="M22.3549 17.7725H14.9033V32.5619H22.3549V17.7725Z" fill="white" stroke="#605353" stroke-width="2" stroke-miterlimit="10"/>
<path d="M58.3708 70.768H8.69336V44.2579C19.8708 34.7064 24.4908 28.8645 34.1034 19.0049H34.3269C43.9519 28.8645 49.6772 34.7064 58.3708 44.2579V70.768Z" fill="white" stroke="#605353" stroke-width="2" stroke-miterlimit="10"/>
<path d="M33.532 23.9339L58.3708 48.5829L63.3385 43.6531L33.532 14.0742L3.72559 43.6531L8.69333 48.5829L33.532 23.9339Z" fill="#E9EAEB" stroke="#605353" stroke-width="2" stroke-miterlimit="10"/>
<path d="M26.081 52.2803H16.1455V70.7671H26.081V52.2803Z" fill="#E9EAEB" stroke="#605353" stroke-width="2" stroke-miterlimit="10"/>
<path d="M42.2262 52.2803H31.0488V62.1399H42.2262V52.2803Z" fill="white" stroke="#605353" stroke-width="2" stroke-miterlimit="10"/>
<path d="M57.1289 70.7676H72.0321" stroke="#605353" stroke-width="2" stroke-miterlimit="10"/>
<path d="M7.45164 70.7676H4.96777" stroke="#605353" stroke-width="2" stroke-miterlimit="10"/>
<path d="M2.48387 70.7676H0" stroke="#605353" stroke-width="2" stroke-miterlimit="10"/>
<path d="M77.0002 70.7676H73.2744" stroke="#605353" stroke-width="2" stroke-miterlimit="10"/>
<path d="M58.0729 70.7673C58.6566 54.7453 73.2742 51.6642 73.2742 39.2657C73.4041 37.0354 73.0625 34.8028 72.2714 32.7112C71.4804 30.6196 70.2573 28.7154 68.6807 27.1207C67.1041 25.5259 65.2088 24.2761 63.1166 23.4513C61.0245 22.6265 58.7816 22.245 56.532 22.3313C54.2825 22.4176 52.076 22.9699 50.0543 23.9525C48.0325 24.9352 46.2402 26.3266 44.7924 28.0374C43.3446 29.7481 42.2733 31.7404 41.6474 33.8864C41.0214 36.0323 40.8546 38.2845 41.1577 40.4982C42.0147 52.0093 55.738 55.9285 56.3093 70.8165L58.0729 70.7673Z" fill="#F7B27F" stroke="#605353" stroke-width="2" stroke-miterlimit="10"/>
<path d="M62.0966 39.2664C62.0966 40.2244 61.8103 41.1608 61.274 41.9573C60.7377 42.7539 59.9754 43.3747 59.0836 43.7413C58.1917 44.1079 57.2104 44.2038 56.2636 44.0169C55.3168 43.83 54.4471 43.3687 53.7645 42.6913C53.0819 42.0139 52.6171 41.1509 52.4287 40.2113C52.2404 39.2718 52.3371 38.2979 52.7065 37.4129C53.0759 36.5278 53.7015 35.7714 54.5041 35.2391C55.3068 34.7069 56.2504 34.4229 57.2158 34.4229C58.5102 34.4229 59.7517 34.9332 60.667 35.8415C61.5823 36.7498 62.0966 37.9818 62.0966 39.2664Z" fill="white" stroke="#605353" stroke-width="2" stroke-miterlimit="10"/>
<path d="M7.45117 7.91203H14.9028C15.1719 6.91597 15.8223 6.06355 16.7154 5.53637C17.6085 5.0092 18.6738 4.84893 19.6842 5.08971C20.1592 4.29062 20.8396 3.63106 21.6557 3.17848C22.4718 2.7259 23.3943 2.49655 24.3291 2.51388C25.0557 2.45246 25.7871 2.55055 26.4712 2.80119C27.1553 3.05183 27.7755 3.44888 28.2876 3.96413C28.7997 4.47938 29.1912 5.1002 29.4343 5.7825C29.6774 6.46481 29.7662 7.19186 29.6942 7.91203H34.7738" stroke="#BCC0C4" stroke-width="2" stroke-miterlimit="10"/>
<path d="M55.8867 15.3066H72.0319" stroke="#BCC0C4" stroke-width="2" stroke-miterlimit="10"/>
<path d="M53.4028 15.3066H50.9189" stroke="#BCC0C4" stroke-width="2" stroke-miterlimit="10"/>
<path d="M48.435 15.3066H45.9512" stroke="#BCC0C4" stroke-width="2" stroke-miterlimit="10"/>
<path d="M4.96727 7.91211H2.4834" stroke="#BCC0C4" stroke-width="2" stroke-miterlimit="10"/>
<path d="M43.4678 7.91246H48.3113C48.6847 7.20215 49.2388 6.60102 49.9184 6.16866C50.5981 5.7363 51.3799 5.48772 52.1862 5.44755C52.7239 5.45145 53.2556 5.56033 53.751 5.76799C54.2326 4.46601 55.1003 3.33932 56.2398 2.53632C57.3793 1.73331 58.7371 1.29166 60.1345 1.26953C63.8604 1.26953 66.9652 5.48452 66.9652 7.94943H77" stroke="#BCC0C4" stroke-width="2" stroke-miterlimit="10"/>
<path d="M40.9839 7.91211H38.5" stroke="#BCC0C4" stroke-width="2" stroke-miterlimit="10"/>
</svg>
