<svg width="78" height="80" viewBox="0 0 78 80" fill="none" xmlns="http://www.w3.org/2000/svg">
<path d="M30.7895 62.069C47.794 62.069 61.5789 48.1744 61.5789 31.0345C61.5789 13.8946 47.794 0 30.7895 0C13.7849 0 0 13.8946 0 31.0345C0 48.1744 13.7849 62.069 30.7895 62.069Z" fill="#E9EAEB"/>
<path d="M32.8423 16.5518H65.6844L76.6318 27.5862V75.8621C76.6318 76.5937 76.3434 77.2954 75.8302 77.8127C75.3169 78.3301 74.6208 78.6207 73.895 78.6207H32.8423C32.1165 78.6207 31.4203 78.3301 30.9071 77.8127C30.3938 77.2954 30.1055 76.5937 30.1055 75.8621V19.3104C30.1055 18.5787 30.3938 17.8771 30.9071 17.3597C31.4203 16.8424 32.1165 16.5518 32.8423 16.5518Z" fill="white"/>
<path d="M64.3154 16.5518V28.9655H76.6312L64.3154 16.5518Z" fill="#F7B27F"/>
<path d="M30.1055 19.3104C30.1055 18.5787 30.3938 17.8771 30.9071 17.3597C31.4203 16.8424 32.1165 16.5518 32.8423 16.5518H65.6844L76.6318 27.5862V75.8621C76.6318 76.5937 76.3435 77.2954 75.8302 77.8127C75.3169 78.3301 74.6208 78.6207 73.895 78.6207H32.8423C32.1165 78.6207 31.4203 78.3301 30.9071 77.8127C30.3938 77.2954 30.1055 76.5937 30.1055 75.8621V19.3104Z" stroke="#605353" stroke-width="2" stroke-miterlimit="10"/>
<path d="M72.526 28.9653H64.3154V20.6895" stroke="#605353" stroke-width="2" stroke-miterlimit="10"/>
<path d="M14.3689 25.5168L12.1931 23.3237C11.6803 22.8099 10.9867 22.5215 10.2636 22.5215C9.5406 22.5215 8.84694 22.8099 8.33416 23.3237L8.08785 23.572C7.57811 24.0888 7.29199 24.788 7.29199 25.5168C7.29199 26.2456 7.57811 26.9448 8.08785 27.4616L10.2636 29.6547" stroke="#605353" stroke-width="2" stroke-linejoin="round"/>
<path d="M9.5791 30.3444L45.158 66.2065L56.1054 71.7237L50.6317 60.6892L15.0528 24.8271L9.5791 30.3444Z" fill="#F7B27F" stroke="#605353" stroke-width="2" stroke-linejoin="round"/>
<path d="M50.6319 60.6895L45.1582 66.2067" stroke="#605353" stroke-width="2" stroke-linejoin="round"/>
<path d="M19.1581 28.9658L9.5791 38.621" stroke="#605353" stroke-width="2" stroke-linejoin="round"/>
<path d="M5.47363 34.4824L19.1578 48.2755" stroke="#605353" stroke-width="2" stroke-linejoin="round"/>
</svg>
