<svg width="25" height="25" viewBox="0 0 25 25" fill="none" xmlns="http://www.w3.org/2000/svg">
<path d="M6.25 0C5.39062 0 4.6875 0.703125 4.6875 1.5625V23.4375C4.6875 24.2969 5.39062 25 6.25 25H21.875C22.7344 25 23.4375 24.2969 23.4375 23.4375V6.25L17.1875 0H6.25Z" fill="#E2E5E7"/>
<path d="M18.75 6.25H23.4375L17.1875 0V4.6875C17.1875 5.54688 17.8906 6.25 18.75 6.25Z" fill="#B0B7BD"/>
<path d="M23.4375 10.9375L18.75 6.25H23.4375V10.9375Z" fill="#CAD1D8"/>
<path d="M20.3125 20.3125C20.3125 20.7422 19.9609 21.0938 19.5312 21.0938H2.34375C1.91406 21.0938 1.5625 20.7422 1.5625 20.3125V12.5C1.5625 12.0703 1.91406 11.7188 2.34375 11.7188H19.5312C19.9609 11.7188 20.3125 12.0703 20.3125 12.5V20.3125Z" fill="#50BEE8"/>
<path d="M6.93211 14.8024C6.93211 14.2773 7.75711 14.2773 7.75711 14.8024V17.2695C7.75711 18.2508 7.28836 18.8445 6.20789 18.8445C5.67664 18.8445 5.23367 18.7 4.84617 18.2008C4.52742 17.8195 5.12742 17.2703 5.45242 17.6695C5.71492 17.9945 5.99617 18.0695 6.27039 18.057C6.61961 18.0445 6.92664 17.8875 6.93289 17.2695V14.8024H6.93211Z" fill="white"/>
<path d="M8.85474 14.8023C8.85474 14.5961 9.01724 14.3711 9.27974 14.3711H10.7227C11.5352 14.3711 12.2665 14.9148 12.2665 15.957C12.2665 16.9445 11.5352 17.4945 10.7227 17.4945H9.67974V18.3195C9.67974 18.5945 9.50474 18.75 9.27974 18.75C9.07349 18.75 8.85474 18.5945 8.85474 18.3195V14.8023ZM9.67974 15.1578V16.7141H10.7227C11.1415 16.7141 11.4727 16.3445 11.4727 15.957C11.4727 15.5203 11.1415 15.1578 10.7227 15.1578H9.67974Z" fill="white"/>
<path d="M16.7274 18.2695C16.2837 18.6383 15.7399 18.7945 15.1907 18.7945C13.8782 18.7945 12.9478 18.0453 12.9478 16.5578C12.9478 15.2969 13.929 14.3164 15.2462 14.3164C15.7399 14.3164 16.2829 14.4844 16.6704 14.8656C17.0509 15.2398 16.5017 15.7961 16.1274 15.4656C15.8962 15.2406 15.5712 15.0719 15.2462 15.0719C14.4907 15.0719 13.7603 15.6773 13.7603 16.5578C13.7603 17.4828 14.372 18.0453 15.1907 18.0453C15.5712 18.0453 15.8962 17.932 16.1274 17.7641V16.9961H15.1907C14.6345 16.9961 14.6907 16.2336 15.1907 16.2336H16.4399C16.6712 16.2336 16.8829 16.4086 16.8829 16.6023V17.9328C16.8829 18.0453 16.8337 18.15 16.7274 18.2695Z" fill="white"/>
<path d="M19.5312 21.0938H4.6875V21.875H19.5312C19.9609 21.875 20.3125 21.5234 20.3125 21.0938V20.3125C20.3125 20.7422 19.9609 21.0938 19.5312 21.0938Z" fill="#CAD1D8"/>
</svg>
