<svg width="25" height="25" viewBox="0 0 25 25" fill="none" xmlns="http://www.w3.org/2000/svg">
<path d="M6.25 0C5.39062 0 4.6875 0.703125 4.6875 1.5625V23.4375C4.6875 24.2969 5.39062 25 6.25 25H21.875C22.7344 25 23.4375 24.2969 23.4375 23.4375V6.25L17.1875 0H6.25Z" fill="#E2E5E7"/>
<path d="M18.75 6.25H23.4375L17.1875 0V4.6875C17.1875 5.54688 17.8906 6.25 18.75 6.25Z" fill="#B0B7BD"/>
<path d="M23.4375 10.9375L18.75 6.25H23.4375V10.9375Z" fill="#CAD1D8"/>
<path d="M20.3125 20.3125C20.3125 20.7422 19.9609 21.0938 19.5312 21.0938H2.34375C1.91406 21.0938 1.5625 20.7422 1.5625 20.3125V12.5C1.5625 12.0703 1.91406 11.7188 2.34375 11.7188H19.5312C19.9609 11.7188 20.3125 12.0703 20.3125 12.5V20.3125Z" fill="#576D7E"/>
<path d="M6.48369 15.2086H5.39072C4.84697 15.2086 4.84697 14.4094 5.39072 14.4094H8.34541C8.90166 14.4094 8.90166 15.2086 8.34541 15.2086H7.30791V18.3626C7.30791 18.9055 6.48291 18.9188 6.48291 18.3626V15.2086H6.48369Z" fill="white"/>
<path d="M10.9578 15.9266L12.0453 14.5649C12.3703 14.1406 13.0008 14.6836 12.6453 15.0899C12.2703 15.5336 11.8773 16.0149 11.5016 16.5071L12.7766 18.0938C13.1195 18.5625 12.4328 19.0125 12.0953 18.55L10.9461 17.0758L9.81562 18.5813C9.49687 19.0368 8.79062 18.525 9.14765 18.1L10.4023 16.5071C10.0094 16.0141 9.62812 15.5336 9.24687 15.0899C8.85312 14.6211 9.58437 14.1406 9.87109 14.5781L10.9578 15.9266Z" fill="white"/>
<path d="M14.5649 15.2086H13.4728C12.929 15.2086 12.929 14.4094 13.4728 14.4094H16.4267C16.9829 14.4094 16.9829 15.2086 16.4267 15.2086H15.3899V18.3626C15.3899 18.9055 14.5649 18.9188 14.5649 18.3626V15.2086Z" fill="white"/>
<path d="M19.5312 21.0938H4.6875V21.875H19.5312C19.9609 21.875 20.3125 21.5234 20.3125 21.0938V20.3125C20.3125 20.7422 19.9609 21.0938 19.5312 21.0938Z" fill="#CAD1D8"/>
</svg>
