<svg width="25" height="25" viewBox="0 0 25 25" fill="none" xmlns="http://www.w3.org/2000/svg">
<path d="M6.25 0C5.39062 0 4.6875 0.703125 4.6875 1.5625V23.4375C4.6875 24.2969 5.39062 25 6.25 25H21.875C22.7344 25 23.4375 24.2969 23.4375 23.4375V6.25L17.1875 0H6.25Z" fill="#E2E5E7"/>
<path d="M18.75 6.25H23.4375L17.1875 0V4.6875C17.1875 5.54688 17.8906 6.25 18.75 6.25Z" fill="#B0B7BD"/>
<path d="M23.4375 10.9375L18.75 6.25H23.4375V10.9375Z" fill="#CAD1D8"/>
<path d="M20.3125 20.3125C20.3125 20.7422 19.9609 21.0938 19.5312 21.0938H2.34375C1.91406 21.0938 1.5625 20.7422 1.5625 20.3125V12.5C1.5625 12.0703 1.91406 11.7188 2.34375 11.7188H19.5312C19.9609 11.7188 20.3125 12.0703 20.3125 12.5V20.3125Z" fill="#F15642"/>
<path d="M4.96802 14.8023C4.96802 14.5961 5.13052 14.3711 5.39224 14.3711H6.8352C7.6477 14.3711 8.37895 14.9148 8.37895 15.957C8.37895 16.9445 7.6477 17.4945 6.8352 17.4945H5.79224V18.3195C5.79224 18.5945 5.61724 18.75 5.39224 18.75C5.18599 18.75 4.96802 18.5945 4.96802 18.3195V14.8023ZM5.79224 15.1578V16.7141H6.8352C7.25395 16.7141 7.5852 16.3445 7.5852 15.957C7.5852 15.5203 7.25395 15.1578 6.8352 15.1578H5.79224Z" fill="white"/>
<path d="M9.60239 18.75C9.39614 18.75 9.17114 18.6375 9.17114 18.3633V14.8148C9.17114 14.5906 9.39614 14.4273 9.60239 14.4273H11.0329C13.8875 14.4273 13.825 18.75 11.0891 18.75H9.60239ZM9.99614 15.1898V17.9883H11.0329C12.7196 17.9883 12.7946 15.1898 11.0329 15.1898H9.99614Z" fill="white"/>
<path d="M14.8375 15.2399V16.2328H16.4304C16.6554 16.2328 16.8804 16.4578 16.8804 16.6758C16.8804 16.882 16.6554 17.0508 16.4304 17.0508H14.8375V18.3625C14.8375 18.5813 14.682 18.7492 14.4632 18.7492C14.1882 18.7492 14.0203 18.5813 14.0203 18.3625V14.8141C14.0203 14.5899 14.189 14.4266 14.4632 14.4266H16.6562C16.9312 14.4266 17.0937 14.5899 17.0937 14.8141C17.0937 15.0141 16.9312 15.2391 16.6562 15.2391H14.8375V15.2399Z" fill="white"/>
<path d="M19.5312 21.0938H4.6875V21.875H19.5312C19.9609 21.875 20.3125 21.5234 20.3125 21.0938V20.3125C20.3125 20.7422 19.9609 21.0938 19.5312 21.0938Z" fill="#CAD1D8"/>
</svg>
