<svg width="148" height="18" viewBox="0 0 148 18" fill="none" xmlns="http://www.w3.org/2000/svg">
<g clip-path="url(#clip0_804_11)">
<path d="M10.4054 12.8455C9.52356 13.6964 8.67382 14.2527 7.42325 14.2527C5.53136 14.2527 4.16856 12.7309 4.16856 10.62V10.5709C4.16856 8.55818 5.53136 7.00364 7.27895 7.00364C8.60968 7.00364 9.41133 7.59273 10.229 8.46L10.3573 8.59091L12.9546 5.76L12.8263 5.64545C11.3834 4.00909 9.68389 3.27273 7.27895 3.27273C5.2588 3.27273 3.39898 4.02545 2.05222 5.43273C0.721482 6.80727 0 8.65636 0 10.6364V10.6855C0 12.6655 0.737515 14.4982 2.05222 15.8564C3.38295 17.2309 5.22674 18 7.23085 18C10.1809 18 11.704 16.7564 12.9065 15.4145L13.0187 15.2836L10.5176 12.7145L10.4054 12.8455ZM46.9605 0H42.8079V3.53455H41.1245V7.02H42.8079V13.6636C42.8079 16.6255 44.0585 18 46.8803 18C48.0828 18 49.0928 17.7382 50.0228 17.1655L50.1189 17.1164V13.6473L49.8464 13.7945C49.2852 14.1055 48.676 14.2691 48.0347 14.2691C47.2811 14.2691 46.9765 13.9255 46.9765 13.1073V7.02H50.1831V3.53455H46.9765V0H46.9605ZM58.2797 3.27273C56.2115 3.27273 54.2875 4.02545 52.8926 5.41636C51.4978 6.79091 50.7442 8.64 50.7442 10.62V10.6691C50.7442 12.6491 51.4978 14.4982 52.8766 15.8564C54.2715 17.2309 56.1634 17.9836 58.2316 17.9836C60.2999 17.9836 62.2078 17.2145 63.6187 15.8236C65.0135 14.4491 65.7671 12.6 65.7671 10.62V10.5709C65.7671 8.59091 65.0135 6.74182 63.6347 5.38364C62.2398 4.02545 60.3319 3.27273 58.2797 3.27273ZM61.5985 10.6855C61.5985 12.78 60.2357 14.2527 58.2637 14.2527C56.3237 14.2527 54.8807 12.6982 54.8807 10.62V10.5709C54.8807 8.46 56.2435 7.00364 58.2156 7.00364C60.1395 7.00364 61.5985 8.55818 61.5985 10.62V10.6855ZM71.1061 5.69455V3.53455H66.9535V17.7055H71.1061V12.24C71.1061 9.18 72.4689 7.56 75.0502 7.56H75.435V3.28909H75.2586C73.3827 3.19091 72.0199 3.97636 71.1061 5.69455ZM108.447 3.27273C106.715 3.27273 105.272 3.94364 104.038 5.31818C103.268 3.99273 101.905 3.27273 100.19 3.27273C98.33 3.27273 97.1756 4.20545 96.374 5.15455V3.51818H92.2214V17.6891H96.3579V9.63818C96.3579 7.95273 97.1275 7.02 98.5063 7.02C100.206 7.02 100.607 8.44364 100.607 9.63818V17.6891H104.759V9.63818C104.759 7.95273 105.545 7.02 106.94 7.02C108.655 7.02 109.008 8.44364 109.008 9.63818V17.6891H113.16V8.52545C113.144 5.18727 111.461 3.27273 108.447 3.27273ZM23.4401 5.18727C22.5583 4.05818 21.1795 3.28909 19.5762 3.28909C16.081 3.28909 13.0187 6.61091 13.0187 10.6527V10.7018C13.0187 14.7109 15.9848 18.0164 19.5762 18.0164C21.1795 18.0164 22.5583 17.2145 23.4401 16.0691V17.7055H27.5927V3.53455H23.4401V5.18727ZM23.6165 10.6855C23.6165 12.78 22.3018 14.2527 20.4099 14.2527C18.5661 14.2527 17.1552 12.6982 17.1552 10.62V10.5709C17.1552 8.46 18.4699 7.00364 20.3618 7.00364C22.2056 7.00364 23.6005 8.55818 23.6005 10.62V10.6855H23.6165ZM86.2892 5.18727C85.3914 4.05818 84.0286 3.28909 82.4093 3.28909C78.9141 3.28909 75.8518 6.61091 75.8518 10.6527V10.7018C75.8518 14.7109 78.8179 18.0164 82.4093 18.0164C84.0126 18.0164 85.3914 17.2145 86.2892 16.0691V17.7055H90.4418V3.53455H86.2892V5.18727ZM86.4656 10.6855C86.4656 12.78 85.1509 14.2527 83.2751 14.2527C81.4152 14.2527 80.0364 12.6982 80.0364 10.62V10.5709C80.0364 8.46 81.3511 7.00364 83.243 7.00364C85.0868 7.00364 86.4816 8.55818 86.4816 10.62L86.4656 10.6855ZM124.624 3.53455V5.18727C123.742 4.05818 122.363 3.28909 120.744 3.28909C117.249 3.28909 114.187 6.61091 114.187 10.6527V10.7018C114.187 14.7109 117.153 18.0164 120.744 18.0164C122.363 18.0164 123.726 17.2145 124.624 16.0691V17.7055H128.777V3.53455H124.624ZM124.784 10.6855C124.784 12.78 123.47 14.2527 121.594 14.2527C119.734 14.2527 118.339 12.6982 118.339 10.62V10.5709C118.339 8.46 119.654 7.00364 121.546 7.00364C123.405 7.00364 124.8 8.55818 124.8 10.62L124.784 10.6855ZM33.3325 7.74C33.3325 7.15091 33.9578 7.00364 34.583 7.00364C36.491 7.00364 38.2546 8.23091 38.2546 8.23091L39.9861 5.00727L39.8418 4.90909C38.3508 3.87818 36.4108 3.27273 34.6472 3.27273C32.7393 3.27273 29.1799 4.45091 29.1799 7.65818C29.1799 12.6327 36.3787 11.7164 36.3787 13.5982C36.3787 14.1545 35.6893 14.2691 34.9358 14.2691C32.6591 14.2691 30.7031 12.7145 30.7031 12.7145L28.731 15.7582L28.8753 15.8564C30.5908 17.2473 32.7072 18 34.8396 18C38.2225 18 40.5313 15.7418 40.5313 13.5818C40.5313 8.86909 33.3325 9.42545 33.3325 7.74Z" fill="#B8B8B8"/>
<path d="M144.441 7.02002C146.397 7.02002 148 8.64002 148 10.6364C148 12.6327 146.413 14.2527 144.441 14.2527H136.135C134.179 14.2527 132.576 12.6327 132.576 10.6364C132.576 8.64002 134.179 7.02002 136.135 7.02002H144.441Z" fill="#B8B8B8"/>
</g>
<defs>
<clipPath id="clip0_804_11">
<rect width="148" height="18" fill="white"/>
</clipPath>
</defs>
</svg>
