<?xml version="1.0" encoding="utf-8"?><svg viewBox="0 0 25 25" xmlns="http://www.w3.org/2000/svg" xmlns:xlink="http://www.w3.org/1999/xlink"><style>:root>svg{display:none}:root>svg:target{display:block}</style><svg viewBox="0 0 25 25" id="arrow-left" xmlns="http://www.w3.org/2000/svg"><g clip-path="url(#aa)"><path d="M17.292 0l2.917 2.917-9.583 9.583 9.583 9.583L17.292 25l-12.5-12.5L17.292 0z"/></g><defs><clipPath id="aa"><path d="M0 0h25v25H0z"/></clipPath></defs></svg><svg viewBox="0 0 25 25" id="arrow-right" xmlns="http://www.w3.org/2000/svg"><path d="M7.709 0L4.792 2.917l9.583 9.583-9.583 9.583L7.709 25l12.5-12.5L7.709 0z"/></svg><svg viewBox="0 0 23 22" id="shop-cart" xmlns="http://www.w3.org/2000/svg"><g clip-path="url(#ca)"><path d="M19.907 16.693H6.427a.642.642 0 01-.546-.3.644.644 0 01-.042-.621l.746-1.62L4.223 3.185h-2.51a.65.65 0 01-.648-.648.65.65 0 01.648-.649h3.033a.65.65 0 01.635.51L7.9 14.086a.647.647 0 01-.047.408l-.412.898h12.466a.65.65 0 010 1.301z"/><path d="M21.68 4.19v6.78L6.937 12.706l-1.82-8.455 16.563-.06z"/><path d="M6.937 13.355a.648.648 0 01-.635-.514l-1.82-8.456a.646.646 0 01.634-.783l16.564-.06a.652.652 0 01.649.649v6.779a.647.647 0 01-.575.644L7.011 13.35c-.024.005-.047.005-.074.005zm-1.02-8.46l1.529 7.098 13.586-1.597V4.844l-15.114.05zm1.385 15.054a1.625 1.625 0 100-3.251 1.625 1.625 0 000 3.25zm11.707 0a1.625 1.625 0 100-3.251 1.625 1.625 0 000 3.25z"/></g><defs><clipPath id="ca"><path transform="translate(.5)" d="M0 0h22v22H0z"/></clipPath></defs></svg></svg>