<svg width="185" height="186" viewBox="0 0 185 186" fill="none" xmlns="http://www.w3.org/2000/svg">
<path d="M26.249 99.7269L26.4088 100.856L17.7897 102.061L18.236 105.216L19.843 105.201C21.9806 105.178 23.5507 105.202 24.5531 105.274C25.5506 105.342 26.2637 105.518 26.6927 105.801C27.1216 106.085 27.3711 106.506 27.4413 107.065C27.4876 107.393 27.4745 107.695 27.4019 107.971L26.4617 108.103C26.5419 107.848 26.5635 107.589 26.5265 107.328C26.4933 107.094 26.3703 106.903 26.1574 106.757C25.9395 106.607 25.5866 106.498 25.0989 106.431C24.6061 106.359 23.6879 106.314 22.3442 106.294C20.9955 106.27 19.3393 106.269 17.3758 106.291L16.6373 101.071L26.249 99.7269Z" fill="#5A5752"/>
<path d="M21.4234 83.3066C22.9885 83.3976 24.1931 83.8504 25.0371 84.665C25.877 85.4748 26.2611 86.558 26.1897 87.9147C26.1189 89.258 25.6589 90.2876 24.8096 91.0037C23.9561 91.715 22.7743 92.0514 21.2641 92.0128L21.1392 94.3824L25.7019 94.6478L25.642 95.7858L15.9462 95.2219L16.0062 94.0839L20.1312 94.3238L20.2567 91.9407C18.8872 91.7581 17.8529 91.2705 17.1541 90.4778C16.4555 89.6807 16.1399 88.6417 16.2074 87.3609C16.2796 85.9909 16.7801 84.9501 17.7089 84.2387C18.6334 83.527 19.8715 83.2163 21.4234 83.3066ZM21.0284 90.8039C22.3371 90.88 23.3459 90.6723 24.0547 90.1809C24.7635 89.6894 25.1451 88.9283 25.1994 87.8974C25.2544 86.8531 24.9576 86.048 24.3089 85.4821C23.6604 84.9117 22.6774 84.5881 21.3599 84.5115C20.0424 84.4349 19.0359 84.6404 18.3406 85.1282C17.6455 85.6115 17.2707 86.3708 17.2161 87.4061C17.1613 88.446 17.4581 89.2533 18.1063 89.8282C18.7501 90.4028 19.7242 90.728 21.0284 90.8039Z" fill="#5A5752"/>
<path d="M25.6469 73.4445C26.5851 73.6774 27.2105 74.1315 27.523 74.8069C27.8366 75.4779 27.8577 76.3798 27.5866 77.5127L26.9195 80.2994L17.4812 77.9566L18.8247 72.3443L19.7995 72.5862L18.721 77.0917L21.7746 77.8497L22.1284 76.3717C22.3289 75.534 22.5888 74.8766 22.9082 74.3994C23.2233 73.9212 23.5982 73.6027 24.0329 73.4439C24.4676 73.2851 25.0056 73.2853 25.6469 73.4445ZM26.2355 78.957L26.608 77.4009C26.8054 76.5762 26.8089 75.9425 26.6185 75.4997C26.4291 75.0527 26.0138 74.7495 25.3726 74.5904C24.7614 74.4387 24.281 74.5218 23.9314 74.8396C23.5817 75.1575 23.2931 75.7917 23.0655 76.7423L22.7429 78.09L26.2355 78.957Z" fill="#5A5752"/>
<path d="M31.4405 65.583L28.1243 65.5676L26.7053 69.2199L29.1449 71.4915L28.7284 72.5635L21.05 65.3314L21.3963 64.4402L31.8667 64.4861L31.4405 65.583ZM27.0498 65.5197L23.8368 65.4591C23.4289 65.4545 22.9391 65.4219 22.3673 65.3613C22.7275 65.6109 23.1116 65.9157 23.5196 66.2756L25.9044 68.4677L27.0498 65.5197Z" fill="#5A5752"/>
<path d="M30.5816 58.1613L32.8526 62.4219L32.1947 63.5916L29.8444 59.0772C29.2966 59.5886 28.7446 59.8715 28.1885 59.926C27.6286 59.9783 27.0443 59.829 26.4356 59.4781C25.6806 59.0429 25.2482 58.4468 25.1383 57.6899C25.0267 56.9269 25.271 56.012 25.8712 54.9451L27.1871 52.6058L35.6351 57.4755L35.0786 58.4648L31.5538 56.4329L30.5816 58.1613ZM27.48 54.0847L26.737 55.4057C26.3376 56.1156 26.1556 56.7248 26.191 57.2333C26.2263 57.7417 26.5175 58.1536 27.0646 58.4689C28.1856 59.1151 29.1596 58.703 29.9867 57.2327L30.7102 55.9466L27.48 54.0847Z" fill="#5A5752"/>
<path d="M47.8858 45.9244L47.1595 46.7225L45.2929 44.9895L40.7377 49.9948L42.6044 51.7278L41.8781 52.5259L39.2569 50.0925L39.7635 49.5358C39.3779 48.2446 38.742 46.8576 37.856 45.3746C36.973 43.8883 36.048 42.66 35.0811 41.6897L38.0267 38.453L44.4352 44.4024L45.2646 43.491L47.8858 45.9244ZM43.673 45.2399L38.0142 39.9864L36.5212 41.6269C37.2578 42.4199 38.0275 43.501 38.8302 44.8702C39.6296 46.2365 40.2067 47.4993 40.5616 48.6589L43.673 45.2399Z" fill="#5A5752"/>
<path d="M41.6738 34.8398L43.8086 33.1107C44.8114 32.2985 45.6577 31.8629 46.3476 31.8038C47.0374 31.7447 47.6436 32.0434 48.1662 32.6998C48.5276 33.1538 48.7006 33.631 48.6853 34.1315C48.6707 34.6258 48.4587 35.1105 48.0492 35.5858L48.0909 35.6381C49.3968 34.9077 50.4571 35.0541 51.2715 36.0771C51.8164 36.7615 52.0125 37.4813 51.86 38.2366C51.7109 38.9891 51.2262 39.6975 50.4061 40.3618L47.7699 42.4969L41.6738 34.8398ZM45.1628 37.4067L46.6101 36.2344C47.2304 35.7321 47.5988 35.2728 47.7154 34.8568C47.8292 34.4373 47.6998 33.9936 47.3273 33.5257C46.9854 33.0962 46.5878 32.91 46.1344 32.9671C45.6783 33.0207 45.1194 33.3154 44.4578 33.8513L43.1655 34.898L45.1628 37.4067ZM45.7632 38.1609L48.044 41.0258L49.6206 39.7489C50.2305 39.2548 50.5943 38.7649 50.712 38.2791C50.8303 37.787 50.6866 37.286 50.2807 36.7762C49.9027 36.3014 49.4662 36.0806 48.9713 36.1139C48.4798 36.1444 47.9118 36.4207 47.2674 36.9426L45.7632 38.1609Z" fill="#5A5752"/>
<path d="M60.4259 33.4804L55.7848 36.2713L50.7891 27.8432L55.4302 25.0523L55.9462 25.9228L52.2731 28.1316L53.8826 30.8467L57.3335 28.7716L57.8461 29.6363L54.3951 31.7115L56.2335 34.8129L59.9066 32.6041L60.4259 33.4804Z" fill="#5A5752"/>
<path d="M65.9281 23.2288C66.3177 24.1416 66.3089 24.978 65.9016 25.738C65.4967 26.4921 64.7211 27.1164 63.5748 27.6109L62.5261 28.0633L64.0397 31.6097L63.0032 32.0569L59.1546 23.0398L61.4654 22.0429C63.6929 21.0819 65.1805 21.4772 65.9281 23.2288ZM62.1418 27.1629L63.0746 26.7604C63.9933 26.3641 64.5938 25.9273 64.8762 25.45C65.1587 24.9727 65.1586 24.4031 64.8761 23.7411C64.6216 23.1449 64.239 22.7841 63.7282 22.6588C63.2175 22.5335 62.5536 22.647 61.7366 22.9995L60.5781 23.4993L62.1418 27.1629Z" fill="#5A5752"/>
<path d="M77.2284 24.0126C77.4641 24.8893 77.3565 25.6479 76.9055 26.2885C76.4576 26.9235 75.6975 27.3858 74.6251 27.6753L71.5041 28.5178L68.9573 19.0469L70.0468 18.7528L71.1338 22.7951L72.9987 22.2917C74.1395 21.9837 75.0705 21.9779 75.7917 22.2742C76.5161 22.5651 76.9949 23.1445 77.2284 24.0126ZM72.3375 27.2715L74.2537 26.7542C75.8089 26.3344 76.4245 25.522 76.1004 24.3171C75.9437 23.734 75.6279 23.3607 75.1531 23.197C74.6815 23.0279 74.0056 23.0621 73.1254 23.2997L71.3951 23.7668L72.3375 27.2715Z" fill="#5A5752"/>
<path d="M86.2015 15.5026L87.2569 15.4747L87.4222 20.9241C87.4527 21.9295 87.4493 22.8397 87.4121 23.6546L87.4652 23.6532L92.6603 15.3318L93.895 15.2992L94.1923 25.0987L93.1302 25.1268L92.9665 19.731C92.9392 18.8328 92.9483 17.889 92.9935 16.8994L92.9338 16.901L87.7334 25.2695L86.4987 25.3022L86.2015 15.5026Z" fill="#5A5752"/>
<path d="M103.921 18.4753C103.847 19.1142 103.584 19.6084 103.132 19.9577C102.686 20.3076 102.102 20.4921 101.382 20.5112L101.376 20.5645C102.167 20.7747 102.746 21.1051 103.113 21.5554C103.484 22.0063 103.632 22.5535 103.557 23.1968C103.451 24.1064 103.031 24.7748 102.299 25.202C101.567 25.6247 100.588 25.7604 99.3612 25.6089C98.24 25.4704 97.3415 25.1817 96.6657 24.7427L96.7885 23.6911C97.1868 23.9473 97.6235 24.161 98.0986 24.3322C98.5781 24.504 99.0443 24.6178 99.4972 24.6737C100.368 24.7812 101.045 24.696 101.528 24.4181C102.015 24.1407 102.295 23.6892 102.368 23.0636C102.438 22.469 102.242 21.988 101.781 21.6205C101.324 21.2535 100.605 21.0095 99.6249 20.8884L98.1871 20.7109L98.2982 19.7591L99.6767 19.9293C100.578 20.0406 101.294 19.9648 101.824 19.7017C102.359 19.4347 102.661 19.0083 102.73 18.4227C102.785 17.9479 102.651 17.5466 102.328 17.2186C102.005 16.8907 101.543 16.6895 100.94 16.6151C100.457 16.5554 100.013 16.5568 99.6083 16.6194C99.204 16.682 98.7255 16.8458 98.1727 17.1106L97.7073 16.2834C98.1903 16.0055 98.7164 15.8161 99.2857 15.7154C99.86 15.6108 100.444 15.5951 101.037 15.6684C102.027 15.7906 102.775 16.1058 103.282 16.614C103.794 17.1183 104.007 17.7387 103.921 18.4753Z" fill="#5A5752"/>
<path d="M118.082 30.103L116.789 29.6458L114.154 23.4572L112.546 28.1457L111.479 27.7685L114.652 18.518L115.719 18.8953L114.182 23.375L119.855 20.3576L121.079 20.7904L115.477 23.847L118.082 30.103Z" fill="#5A5752"/>
<path d="M129.838 30.5818C129.107 31.9629 128.184 32.8602 127.07 33.2735C125.96 33.6889 124.788 33.5615 123.553 32.8913C122.291 32.2062 121.522 31.2894 121.245 30.1409C120.974 28.9906 121.213 27.7072 121.963 26.2907C122.707 24.886 123.627 23.9847 124.723 23.5868C125.821 23.1849 127.003 23.3276 128.268 24.0149C129.499 24.683 130.252 25.5983 130.526 26.7607C130.801 27.9231 130.572 29.1968 129.838 30.5818ZM123.012 26.8752C122.393 28.0438 122.169 29.0647 122.341 29.938C122.518 30.8094 123.077 31.5007 124.019 32.0118C124.968 32.5273 125.844 32.6155 126.648 32.2765C127.451 31.9375 128.163 31.1817 128.784 30.0091C129.398 28.8484 129.622 27.8374 129.454 26.9763C129.292 26.1134 128.739 25.4253 127.793 24.912C126.844 24.3966 125.961 24.3071 125.144 24.6437C124.333 24.9785 123.622 25.7223 123.012 26.8752Z" fill="#5A5752"/>
<path d="M135.883 40.9654L134.989 40.265L140.308 33.3294L137.81 31.3726L136.673 32.5146C135.164 34.0364 134.027 35.1243 133.261 35.7782C132.503 36.4313 131.872 36.8069 131.37 36.905C130.869 37.0031 130.4 36.8756 129.964 36.5225C129.704 36.3193 129.505 36.0925 129.366 35.8423L129.946 35.0858C130.065 35.3258 130.228 35.5268 130.434 35.6889C130.62 35.8344 130.84 35.8849 131.093 35.8404C131.352 35.7951 131.679 35.6249 132.073 35.3299C132.474 35.0342 133.161 34.4204 134.133 33.4887C135.112 32.5562 136.295 31.3909 137.681 29.9929L141.814 33.2309L135.883 40.9654Z" fill="#5A5752"/>
<path d="M143.652 48.655L142.88 47.8196L149.235 41.839L147.078 39.5049L145.774 40.4474C144.042 41.7043 142.746 42.5933 141.886 43.1145C141.033 43.6359 140.351 43.9044 139.839 43.92C139.328 43.9356 138.885 43.734 138.51 43.3151C138.286 43.0727 138.125 42.8168 138.028 42.5475L138.721 41.8952C138.8 42.1511 138.929 42.3758 139.108 42.5691C139.268 42.7427 139.477 42.828 139.734 42.825C139.997 42.8222 140.347 42.7073 140.784 42.4801C141.226 42.2533 142.002 41.759 143.111 40.9973C144.226 40.2359 145.579 39.2778 147.17 38.1231L150.739 41.9856L143.652 48.655Z" fill="#5A5752"/>
<path d="M149.361 56.345L146.269 51.846L154.238 46.2818L157.33 50.7809L156.507 51.3556L154.06 47.7949L151.493 49.5875L153.792 52.9328L152.974 53.5037L150.675 50.1584L147.742 52.2059L150.189 55.7665L149.361 56.345Z" fill="#5A5752"/>
<path d="M154.139 65.1018L153.511 63.8714L155.827 57.576L151.454 59.8337L150.936 58.8184L159.566 54.3639L160.083 55.3792L155.904 57.5364L162.089 59.3154L162.683 60.4801L156.522 58.7789L154.139 65.1018Z" fill="#5A5752"/>
<path d="M158.321 73.606L158.688 74.6998L155.324 75.837L154.98 74.8132L157.376 74.0033L155.025 66.9954L164.22 63.8876L164.583 64.9687L156.357 67.7491L157.959 72.5249L166.185 69.7445L166.548 70.8255L158.321 73.606Z" fill="#5A5752"/>
<path d="M168.054 76.3078L168.223 77.3609L162.894 78.212C161.911 78.3691 161.016 78.4802 160.211 78.5454L160.22 78.5984L169.091 82.7519L169.289 83.9837L159.706 85.5144L159.535 84.4547L164.812 83.6119C165.69 83.4716 166.618 83.3619 167.596 83.2827L167.587 83.2231L158.668 79.0703L158.47 77.8384L168.054 76.3078Z" fill="#5A5752"/>
<path d="M169.783 88.647L169.783 89.7131L164.384 89.6894C163.388 89.685 162.487 89.6497 161.681 89.5836L161.681 89.6373L169.783 95.171L169.784 96.4181L160.074 96.3755L160.074 95.3027L165.42 95.3262C166.31 95.3301 167.244 95.3722 168.223 95.4525L168.223 95.3921L160.074 89.8515L160.074 88.6043L169.783 88.647Z" fill="#5A5752"/>
<path d="M158.286 108.813L167.45 107.865L167.463 107.814C166.788 107.695 165.997 107.512 165.09 107.265L159.12 105.64L159.387 104.624L168.772 107.178L168.337 108.835L159.807 109.726L159.793 109.778L166.74 114.907L166.308 116.552L156.923 113.998L157.212 112.897L163.259 114.543C163.953 114.731 164.698 114.967 165.495 115.248L165.509 115.197L158.053 109.699L158.286 108.813Z" fill="#5A5752"/>
<path d="M156.483 127.476C155.081 126.792 154.149 125.897 153.687 124.789C153.222 123.685 153.292 122.498 153.896 121.226C154.513 119.927 155.383 119.115 156.506 118.79C157.631 118.472 158.913 118.663 160.351 119.364C161.776 120.059 162.713 120.951 163.159 122.041C163.609 123.133 163.525 124.331 162.906 125.634C162.304 126.902 161.435 127.697 160.298 128.02C159.161 128.342 157.889 128.161 156.483 127.476ZM159.823 120.444C158.637 119.866 157.616 119.68 156.76 119.887C155.906 120.101 155.249 120.692 154.788 121.662C154.324 122.639 154.279 123.527 154.653 124.324C155.027 125.12 155.809 125.809 156.999 126.389C158.177 126.964 159.189 127.149 160.033 126.946C160.879 126.749 161.533 126.164 161.995 125.19C162.46 124.213 162.506 123.318 162.133 122.507C161.763 121.703 160.993 121.015 159.823 120.444Z" fill="#5A5752"/>
<path d="M152.984 133.566L159.044 133.271L158.302 134.299L152.277 134.569L156.082 137.376L155.442 138.263L151.637 135.456L153.217 141.345L152.476 142.373L150.919 136.451L144.549 136.675L145.314 135.615L151.567 135.405L147.585 132.467L148.225 131.58L152.207 134.518L150.493 128.438L151.269 127.362L152.984 133.566Z" fill="#5A5752"/>
<path d="M139.161 142.265L142.973 138.402L149.866 145.337L146.054 149.199L145.342 148.483L148.359 145.426L146.138 143.192L143.304 146.064L142.597 145.353L145.431 142.481L142.894 139.929L139.878 142.986L139.161 142.265Z" fill="#5A5752"/>
<path d="M134.633 146.177L135.522 145.479L140.887 152.426L143.309 150.524L143.927 151.324L138.194 155.827L137.576 155.026L139.998 153.124L134.633 146.177Z" fill="#5A5752"/>
<path d="M121.329 157.593C120.906 156.715 120.853 155.94 121.169 155.269C121.48 154.6 122.156 154.012 123.195 153.506L125.75 152.261L130.002 161.092L124.856 163.601L124.417 162.688L128.548 160.675L127.172 157.818L125.817 158.478C125.049 158.852 124.38 159.066 123.812 159.12C123.245 159.177 122.761 159.087 122.362 158.849C121.962 158.612 121.618 158.193 121.329 157.593ZM125.163 153.643L123.736 154.339C122.979 154.707 122.493 155.106 122.277 155.535C122.057 155.965 122.091 156.48 122.38 157.08C122.655 157.652 123.026 157.974 123.493 158.045C123.959 158.116 124.629 157.939 125.5 157.514L126.736 156.911L125.163 153.643Z" fill="#5A5752"/>
<path d="M117.8 156.176L120.599 165.576L119.518 165.899L118.323 161.888L116.804 162.343C115.697 162.674 114.788 162.706 114.075 162.438C113.364 162.175 112.877 161.6 112.613 160.713C112.35 159.83 112.424 159.07 112.835 158.434C113.241 157.798 113.972 157.323 115.028 157.007L117.8 156.176ZM116.997 157.432L115.426 157.903C114.659 158.132 114.14 158.451 113.869 158.859C113.599 159.271 113.553 159.778 113.732 160.378C113.907 160.965 114.224 161.332 114.683 161.479C115.14 161.632 115.792 161.581 116.64 161.327L118.033 160.91L116.997 157.432ZM109.247 158.737L110.328 158.414L113.127 167.813L112.046 168.137L109.247 158.737Z" fill="#5A5752"/>
<path d="M102.267 159.996L103.386 159.849L104.551 168.565L107.598 168.163L107.732 169.167L100.519 170.118L100.385 169.114L103.432 168.713L102.267 159.996Z" fill="#5A5752"/>
<path d="M90.2235 163.45C90.2268 162.543 90.5305 161.841 91.1344 161.346C91.734 160.855 92.5894 160.614 93.7007 160.623L96.9349 160.649L96.8988 170.452L95.7698 170.443L95.7852 166.259L93.8526 166.243C92.6705 166.233 91.7704 165.989 91.1523 165.51C90.5298 165.035 90.2202 164.349 90.2235 163.45ZM95.8023 161.626L93.8166 161.609C92.205 161.596 91.3969 162.213 91.3923 163.46C91.3901 164.063 91.5965 164.508 92.0117 164.793C92.4224 165.082 93.0837 165.231 93.9958 165.238L95.7889 165.253L95.8023 161.626Z" fill="#5A5752"/>
<path d="M75.5886 167.424C76.6285 167.67 77.5303 167.514 78.294 166.956C79.0523 166.401 79.5698 165.517 79.8463 164.303C80.1307 163.054 80.0616 162.019 79.6389 161.199C79.211 160.383 78.4598 159.847 77.3853 159.593C76.7251 159.437 75.9449 159.379 75.0446 159.418L75.2661 158.446C75.9785 158.353 76.8158 158.42 77.7781 158.647C79.1719 158.977 80.1514 159.658 80.7166 160.69C81.2775 161.722 81.3791 163.023 81.0213 164.594C80.7973 165.578 80.4199 166.397 79.8889 167.051C79.3537 167.704 78.6974 168.15 77.9201 168.388C77.1386 168.625 76.2817 168.634 75.3497 168.413C74.3572 168.179 73.5315 167.791 72.8725 167.25L73.5556 166.407C74.1946 166.916 74.8722 167.255 75.5886 167.424Z" fill="#5A5752"/>
<path d="M66.2709 154.965L67.5502 155.46L70.0044 161.724L71.7483 157.086L72.804 157.494L69.3634 166.645L68.3076 166.237L69.9738 161.805L64.2151 164.653L63.0041 164.184L68.693 161.295L66.2709 154.965Z" fill="#5A5752"/>
<path d="M55.3196 157.013C55.7916 156.145 56.4503 155.64 57.2957 155.5C58.1351 155.361 59.1024 155.597 60.1976 156.207L61.1996 156.765L63.0333 153.392L64.0236 153.944L59.3612 162.521L57.1533 161.291C55.0251 160.105 54.4139 158.679 55.3196 157.013ZM60.734 157.622L59.8427 157.125C58.965 156.636 58.2524 156.425 57.705 156.492C57.1575 156.559 56.7127 156.908 56.3704 157.537C56.0621 158.104 56.0169 158.63 56.2349 159.113C56.4529 159.596 56.9522 160.055 57.7328 160.49L58.8396 161.107L60.734 157.622Z" fill="#5A5752"/>
<path d="M56.1775 149.598L50.2181 157.311L49.3268 156.607L51.8703 153.315L50.6172 152.326C49.7049 151.606 49.1493 150.876 48.9503 150.135C48.7486 149.399 48.929 148.666 49.4915 147.938C50.0513 147.214 50.7079 146.838 51.4612 146.809C52.211 146.778 53.0211 147.107 53.8915 147.794L56.1775 149.598ZM54.6951 149.659L53.4001 148.637C52.7674 148.138 52.2074 147.894 51.7201 147.905C51.23 147.921 50.7948 148.174 50.4143 148.667C50.042 149.149 49.9303 149.621 50.0791 150.084C50.2217 150.547 50.6426 151.055 51.3417 151.607L52.4899 152.513L54.6951 149.659ZM49.1255 144.031L50.0168 144.735L44.0575 152.447L43.1661 151.744L49.1255 144.031Z" fill="#5A5752"/>
<path d="M44.1427 139.083L44.9145 139.919L38.5599 145.899L40.6618 148.174L39.9299 148.863L34.9542 143.477L35.6861 142.789L37.7881 145.064L44.1427 139.083Z" fill="#5A5752"/>
<path d="M31.867 131.094C33.1459 130.209 34.3753 129.84 35.5554 129.99C36.733 130.136 37.7193 130.792 38.5142 131.958C39.3267 133.15 39.5955 134.319 39.3205 135.465C39.0393 136.61 38.2429 137.637 36.9313 138.546C35.6306 139.447 34.4018 139.82 33.245 139.665C32.0845 139.513 31.0967 138.839 30.2817 137.643C29.4893 136.481 29.2348 135.321 29.5182 134.163C29.8016 133.006 30.5846 131.983 31.867 131.094ZM36.263 137.542C37.3451 136.793 38.0082 135.991 38.2523 135.138C38.4903 134.283 38.3061 133.411 37.6999 132.522C37.0886 131.625 36.3483 131.141 35.4789 131.07C34.6095 130.998 33.632 131.339 32.5462 132.091C31.4715 132.835 30.8131 133.628 30.5713 134.469C30.3232 135.309 30.5036 136.175 31.1124 137.068C31.7237 137.965 32.4696 138.453 33.3501 138.533C34.2245 138.612 35.1955 138.281 36.263 137.542Z" fill="#5A5752"/>
<path d="M25.2881 129.474L24.8438 128.505L29.7418 126.234C30.6456 125.814 31.4759 125.464 32.233 125.182L32.2107 125.133L22.5692 123.544L22.0494 122.41L30.8575 118.325L31.3046 119.3L26.4547 121.55C25.6474 121.924 24.7841 122.282 23.8648 122.625L23.8899 122.68L33.5764 124.255L34.0962 125.389L25.2881 129.474ZM22.8898 126.108C23.2344 126.859 23.3434 127.474 23.2165 127.952C23.0857 128.431 22.7002 128.844 22.0602 129.19L21.6243 128.239C22.0252 128.009 22.2661 127.764 22.3469 127.505C22.4259 127.242 22.3602 126.881 22.1496 126.421C21.9578 126.003 21.7278 125.735 21.4598 125.618C21.1899 125.497 20.8479 125.505 20.4338 125.643L19.9951 124.686C20.6521 124.44 21.2141 124.429 21.6811 124.65C22.1441 124.874 22.547 125.36 22.8898 126.108Z" fill="#5A5752"/>
<circle cx="51.5" cy="115.5" r="8.5" fill="#737578"/>
</svg>
