<svg width="25" height="25" viewBox="0 0 25 25" fill="none" xmlns="http://www.w3.org/2000/svg">
<path d="M6.25 0C5.39062 0 4.6875 0.703125 4.6875 1.5625V23.4375C4.6875 24.2969 5.39062 25 6.25 25H21.875C22.7344 25 23.4375 24.2969 23.4375 23.4375V6.25L17.1875 0H6.25Z" fill="#E2E5E7"/>
<path d="M18.75 6.25H23.4375L17.1875 0V4.6875C17.1875 5.54688 17.8906 6.25 18.75 6.25Z" fill="#B0B7BD"/>
<path d="M23.4375 10.9375L18.75 6.25H23.4375V10.9375Z" fill="#CAD1D8"/>
<path d="M20.3125 20.3125C20.3125 20.7422 19.9609 21.0938 19.5312 21.0938H2.34375C1.91406 21.0938 1.5625 20.7422 1.5625 20.3125V12.5C1.5625 12.0703 1.91406 11.7188 2.34375 11.7188H19.5312C19.9609 11.7188 20.3125 12.0703 20.3125 12.5V20.3125Z" fill="#A066AA"/>
<path d="M4.53198 14.8023C4.53198 14.5961 4.6937 14.3703 4.9562 14.3703H6.39995C7.21167 14.3703 7.94292 14.9141 7.94292 15.957C7.94292 16.9445 7.21167 17.4937 6.39995 17.4937H5.35542V18.3187C5.35542 18.5945 5.18198 18.75 4.9562 18.75C4.74995 18.75 4.53198 18.5945 4.53198 18.3187V14.8023ZM5.35542 15.1578V16.7133H6.39917C6.81714 16.7133 7.14839 16.3445 7.14839 15.957C7.14839 15.5195 6.81714 15.1578 6.39917 15.1578H5.35542Z" fill="white"/>
<path d="M8.73906 14.8648C8.73906 14.6391 8.78906 14.4211 9.11406 14.4211C9.33828 14.4211 9.38906 14.4773 9.55703 14.6391L11.6242 17.2258V14.8023C11.6242 14.5961 11.8047 14.3703 12.018 14.3703C12.243 14.3703 12.4609 14.5961 12.4609 14.8023V18.3187C12.4609 18.5945 12.2922 18.6992 12.1297 18.75C11.9117 18.75 11.8047 18.7 11.6242 18.532L9.55703 15.9078V18.3195C9.55703 18.5953 9.38828 18.7508 9.16328 18.7508C8.93828 18.7508 8.73828 18.5953 8.73828 18.3195V14.8648H8.73906Z" fill="white"/>
<path d="M17.1601 18.2695C16.7163 18.6375 16.1726 18.7945 15.6233 18.7945C14.3108 18.7945 13.3804 18.0445 13.3804 16.5578C13.3804 15.2961 14.3616 14.3156 15.6788 14.3156C16.1726 14.3156 16.7155 14.4844 17.103 14.8656C17.4843 15.2398 16.9343 15.7961 16.5601 15.4656C16.3288 15.2398 16.0038 15.0719 15.6788 15.0719C14.9233 15.0719 14.1929 15.6773 14.1929 16.5578C14.1929 17.4828 14.8046 18.0445 15.6233 18.0445C16.0038 18.0445 16.3288 17.932 16.5601 17.7633V16.9961H15.6233C15.0671 16.9961 15.1233 16.2328 15.6233 16.2328H16.8726C17.1038 16.2328 17.3155 16.4086 17.3155 16.6023V17.9328C17.3155 18.0445 17.2663 18.15 17.1601 18.2695Z" fill="white"/>
<path d="M19.5312 21.0938H4.6875V21.875H19.5312C19.9609 21.875 20.3125 21.5234 20.3125 21.0938V20.3125C20.3125 20.7422 19.9609 21.0938 19.5312 21.0938Z" fill="#CAD1D8"/>
</svg>
