<svg width="25" height="25" viewBox="0 0 25 25" fill="none" xmlns="http://www.w3.org/2000/svg">
<path d="M6.25 0C5.39062 0 4.6875 0.703125 4.6875 1.5625V23.4375C4.6875 24.2969 5.39062 25 6.25 25H21.875C22.7344 25 23.4375 24.2969 23.4375 23.4375V6.25L17.1875 0H6.25Z" fill="#E2E5E7"/>
<path d="M18.75 6.25H23.4375L17.1875 0V4.6875C17.1875 5.54688 17.8906 6.25 18.75 6.25Z" fill="#B0B7BD"/>
<path d="M23.4375 10.9375L18.75 6.25H23.4375V10.9375Z" fill="#CAD1D8"/>
<path d="M20.3125 20.3125C20.3125 20.7422 19.9609 21.0938 19.5312 21.0938H2.34375C1.91406 21.0938 1.5625 20.7422 1.5625 20.3125V12.5C1.5625 12.0703 1.91406 11.7188 2.34375 11.7188H19.5312C19.9609 11.7188 20.3125 12.0703 20.3125 12.5V20.3125Z" fill="#84BD5A"/>
<path d="M7.04762 15.9274L8.13434 14.5657C8.45934 14.1407 9.09059 14.6836 8.73434 15.0899C8.36012 15.5336 7.96637 16.0149 7.59137 16.5078L8.86559 18.0946C9.20934 18.5633 8.52262 19.0125 8.18512 18.55L7.03512 17.0758L5.90465 18.5821C5.5859 19.0375 4.87965 18.5258 5.2359 18.1008L6.49137 16.5078C6.09762 16.0141 5.71637 15.5336 5.3359 15.0899C4.94293 14.6211 5.6734 14.1407 5.9609 14.5789L7.04762 15.9274Z" fill="white"/>
<path d="M9.63672 14.8023C9.63672 14.5961 9.81172 14.4211 10.0305 14.4211C10.2305 14.4211 10.3992 14.5969 10.3992 14.8023V17.932H12.0984C12.7101 17.932 12.7234 18.75 12.0984 18.75H10.0312C9.8125 18.75 9.6375 18.5945 9.6375 18.3695V14.8023H9.63672Z" fill="white"/>
<path d="M13.2827 15.3649C13.4265 14.1524 15.2562 13.9344 16.1187 14.5969C16.5437 14.9399 16.0937 15.4836 15.7187 15.2086C15.2562 14.9156 14.207 14.7781 14.0757 15.4266C13.907 16.4516 16.6241 15.8649 16.5804 17.5266C16.5366 19.1133 14.2382 19.15 13.3757 18.4383C13.1687 18.2695 13.1757 17.9953 13.2882 17.8258C13.4507 17.6641 13.6312 17.6078 13.8445 17.7828C14.3562 18.132 15.6749 18.3945 15.7679 17.507C15.6874 16.5836 13.089 17.1391 13.2827 15.3649Z" fill="white"/>
<path d="M19.5312 21.0938H4.6875V21.875H19.5312C19.9609 21.875 20.3125 21.5234 20.3125 21.0938V20.3125C20.3125 20.7422 19.9609 21.0938 19.5312 21.0938Z" fill="#CAD1D8"/>
</svg>
