<svg width="25" height="25" viewBox="0 0 25 25" fill="none" xmlns="http://www.w3.org/2000/svg">
<path d="M6.25 0C5.39062 0 4.6875 0.703125 4.6875 1.5625V23.4375C4.6875 24.2969 5.39062 25 6.25 25H21.875C22.7344 25 23.4375 24.2969 23.4375 23.4375V6.25L17.1875 0H6.25Z" fill="#E2E5E7"/>
<path d="M18.75 6.25H23.4375L17.1875 0V4.6875C17.1875 5.54688 17.8906 6.25 18.75 6.25Z" fill="#B0B7BD"/>
<path d="M23.4375 10.9375L18.75 6.25H23.4375V10.9375Z" fill="#CAD1D8"/>
<path d="M20.3125 20.3125C20.3125 20.7422 19.9609 21.0938 19.5312 21.0938H2.34375C1.91406 21.0938 1.5625 20.7422 1.5625 20.3125V12.5C1.5625 12.0703 1.91406 11.7188 2.34375 11.7188H19.5312C19.9609 11.7188 20.3125 12.0703 20.3125 12.5V20.3125Z" fill="#50BEE8"/>
<path d="M4.52036 18.75C4.31411 18.75 4.08911 18.6367 4.08911 18.3625V14.8149C4.08911 14.5899 4.31411 14.4274 4.52036 14.4274H5.95083C8.80552 14.4274 8.74224 18.75 6.0063 18.75H4.52036ZM4.91411 15.1891V17.9875H5.95083C7.63755 17.9875 7.71177 15.1891 5.95083 15.1891H4.91411Z" fill="white"/>
<path d="M11.1328 18.8125C9.97734 18.8625 8.77734 18.0938 8.77734 16.5633C8.77734 15.0266 9.97656 14.2711 11.1328 14.2711C12.2258 14.3266 13.3687 15.0828 13.3687 16.5633C13.3687 18.0446 12.2258 18.8125 11.1328 18.8125ZM11.0641 15.0836C10.3641 15.0836 9.60234 15.5774 9.60234 16.5641C9.60234 17.5453 10.3648 18.0453 11.0641 18.0453C11.7828 18.0453 12.5508 17.5453 12.5508 16.5641C12.5508 15.5766 11.7828 15.0836 11.0641 15.0836Z" fill="white"/>
<path d="M14.104 16.5571C14.104 15.3516 14.8603 14.3149 16.297 14.3149C16.8407 14.3149 17.272 14.4774 17.7274 14.8711C17.8962 15.0266 17.9149 15.3016 17.7462 15.4766C17.5774 15.6258 17.3212 15.6078 17.1712 15.4578C16.9157 15.1891 16.6532 15.1149 16.297 15.1149C15.3353 15.1149 14.8735 15.7961 14.8735 16.5578C14.8735 17.3328 15.329 18.0446 16.297 18.0446C16.6532 18.0446 16.9845 17.9 17.272 17.6446C17.4649 17.4946 17.7337 17.5688 17.8462 17.7196C17.9462 17.8571 17.9954 18.0883 17.7774 18.3063C17.3399 18.7133 16.8157 18.7946 16.2962 18.7946C14.7853 18.7946 14.104 17.7625 14.104 16.5571Z" fill="white"/>
<path d="M19.5312 21.0938H4.6875V21.875H19.5312C19.9609 21.875 20.3125 21.5234 20.3125 21.0938V20.3125C20.3125 20.7422 19.9609 21.0938 19.5312 21.0938Z" fill="#CAD1D8"/>
</svg>
