<svg width="81" height="64" viewBox="0 0 81 64" fill="none" xmlns="http://www.w3.org/2000/svg">
<path d="M8.7832 56.1669H71.842L40.4809 24.1669L8.7832 56.1669Z" fill="#B8B8B8"/>
<path d="M0.5 47.1657L7.58029 54.5571L12.4865 49.6687L10.8511 47.9509L7.76306 51.0332L2.32779 45.3399L0.5 47.1657Z" fill="#B8B8B8"/>
<path fill-rule="evenodd" clip-rule="evenodd" d="M13.5742 48.5595L18.6055 43.5436L17.2202 42.1006L14.0264 45.281L12.4872 43.6712L15.0557 41.119L13.6031 39.6074L11.0442 42.1595L9.72626 40.7853L12.8143 37.7031L11.4386 36.2601L6.41699 41.2564L13.5742 48.5595Z" fill="#B8B8B8"/>
<path fill-rule="evenodd" clip-rule="evenodd" d="M19.6635 42.5227L21.5491 40.6478L17.6914 36.6135L23.9348 38.292L25.8107 36.427C25.8107 36.427 21.2893 34.8564 21.0777 34.8859C21.0103 34.8957 22.0493 32.0687 19.7116 30.8221C19.7116 30.8221 17.98 29.8699 16.2388 31.4699L12.5352 35.1902L19.6635 42.5227Z" fill="#B8B8B8"/>
<path fill-rule="evenodd" clip-rule="evenodd" d="M30.0918 32.2356C32.593 29.7423 31.708 26.5227 30.0437 24.7853C28.0139 22.665 24.493 22.9202 22.7999 24.6086C21.1068 26.2969 20.2314 29.6638 22.6363 32.1669C25.2626 34.9252 28.3987 33.9239 30.0918 32.2356Z" fill="#B8B8B8"/>
<path fill-rule="evenodd" clip-rule="evenodd" d="M28.5528 30.7828C29.6784 29.6638 29.611 28.5644 27.8025 26.6601C26.2056 24.9914 24.8684 25.5804 24.2142 26.238C23.2522 27.1902 23.1753 28.5742 24.4932 29.9583C26.0613 31.5975 27.4369 31.9018 28.5528 30.7828Z" fill="white"/>
<path fill-rule="evenodd" clip-rule="evenodd" d="M35.7095 26.5521L37.5662 24.7067L34.7764 21.7816L33.1025 14.6847L30.9765 16.8049L32.0828 20.8294L28.3406 19.4258L26.3301 21.4184L32.7081 23.5092L35.7095 26.5521Z" fill="#B8B8B8"/>
<path fill-rule="evenodd" clip-rule="evenodd" d="M17.6149 36.5448C17.6149 36.5448 15.9698 34.827 15.9121 34.7681C15.8544 34.7092 17.0858 33.6294 17.2782 33.4331C17.3647 33.3546 18.1247 32.8344 18.7692 33.5018C18.7692 33.5018 19.8563 34.3754 18.8077 35.4159C17.7592 36.4662 17.6149 36.5448 17.6149 36.5448Z" fill="white"/>
<path fill-rule="evenodd" clip-rule="evenodd" d="M35.1323 16.0785L33.4873 14.3804L40.6926 7.08713L43.0495 9.51167L40.4521 14.7239L45.7431 12.2896L48.0134 14.6258L40.8081 21.919L39.0669 20.1325L42.8764 16.2847L37.672 18.6896L36.5945 17.5804L39.0092 12.2798L35.1323 16.0785Z" fill="#B8B8B8"/>
<path fill-rule="evenodd" clip-rule="evenodd" d="M47.648 28.9571L42.6553 23.8135L49.8606 16.5203L54.8726 21.6736L53.4104 23.146L50.2743 19.9166L49.1006 21.1043L51.573 23.6565L50.0626 25.1878L47.5999 22.6552L46.0223 24.2552L49.1295 27.4454L47.648 28.9571Z" fill="#B8B8B8"/>
<path fill-rule="evenodd" clip-rule="evenodd" d="M49.2637 30.6258L51.1203 32.5399L55.0549 28.5546L53.6407 35.1313L55.5455 37.0847C55.5455 37.0847 57.0462 32.373 57.0943 32.1865C57.0943 32.1865 58.7201 33.0994 60.4998 31.5387C60.4998 31.5387 62.2121 29.8405 60.8653 27.8577L56.4883 23.3521L49.2637 30.6258Z" fill="#B8B8B8"/>
<path fill-rule="evenodd" clip-rule="evenodd" d="M64.1271 31.1951L65.9837 33.1092L60.5292 38.6258L63.5787 41.7669L61.8279 43.5436L56.9121 38.4884L64.1271 31.1951Z" fill="#B8B8B8"/>
<path d="M70.3308 37.5777L63.125 44.8702L64.9405 46.738L72.1463 39.4454L70.3308 37.5777Z" fill="#B8B8B8"/>
<path fill-rule="evenodd" clip-rule="evenodd" d="M68.2252 50.1203L66.5225 48.373L73.7374 41.0798L76.1905 43.6123L74.0934 51.1902L78.8649 46.3608L80.5099 48.0589L73.3045 55.3522L71.1497 53.1338L73.0063 45.1828L68.2252 50.1203Z" fill="#B8B8B8"/>
<path fill-rule="evenodd" clip-rule="evenodd" d="M55.1992 28.4074C55.1992 28.4074 56.7288 26.8565 56.9212 26.6602C56.9212 26.6602 58.1045 27.8675 58.2488 28.0246C58.3931 28.1816 59.3262 28.8884 58.191 29.9681C58.191 29.9681 57.2771 30.5963 56.4594 29.762L55.1992 28.4074Z" fill="white"/>
</svg>
