<svg width="182" height="92" viewBox="0 0 182 92" fill="none" xmlns="http://www.w3.org/2000/svg">
<path d="M35.2715 69H34.2754V61.3184H31.4922L31.3105 62.7246C31.0723 64.5957 30.8613 65.9648 30.6777 66.832C30.498 67.6953 30.2598 68.2969 29.9629 68.6367C29.666 68.9766 29.2715 69.1426 28.7793 69.1348C28.4902 69.1348 28.2305 69.0859 28 68.9883V68.1504C28.2109 68.252 28.4316 68.3027 28.6621 68.3027C28.8691 68.3027 29.0488 68.2188 29.2012 68.0508C29.3574 67.8789 29.4941 67.584 29.6113 67.166C29.7324 66.7441 29.8828 65.9473 30.0625 64.7754C30.2461 63.5996 30.4473 62.1523 30.666 60.4336H35.2715V69ZM43.0234 65.7832C43.0234 66.8301 42.7598 67.6484 42.2324 68.2383C41.7051 68.8242 40.9766 69.1172 40.0469 69.1172C39.4727 69.1172 38.9629 68.9824 38.5176 68.7129C38.0723 68.4434 37.7285 68.0566 37.4863 67.5527C37.2441 67.0488 37.123 66.459 37.123 65.7832C37.123 64.7363 37.3848 63.9219 37.9082 63.3398C38.4316 62.7539 39.1582 62.4609 40.0879 62.4609C40.9863 62.4609 41.6992 62.7598 42.2266 63.3574C42.7578 63.9551 43.0234 64.7637 43.0234 65.7832ZM38.1309 65.7832C38.1309 66.6035 38.2949 67.2285 38.623 67.6582C38.9512 68.0879 39.4336 68.3027 40.0703 68.3027C40.707 68.3027 41.1895 68.0898 41.5176 67.6641C41.8496 67.2344 42.0156 66.6074 42.0156 65.7832C42.0156 64.9668 41.8496 64.3477 41.5176 63.9258C41.1895 63.5 40.7031 63.2871 40.0586 63.2871C39.4219 63.2871 38.9414 63.4961 38.6172 63.9141C38.293 64.332 38.1309 64.9551 38.1309 65.7832ZM48.6016 63.4102H45.707V69H44.7344V62.5781H48.6016V63.4102ZM55.4219 65.7832C55.4219 66.8301 55.1582 67.6484 54.6309 68.2383C54.1035 68.8242 53.375 69.1172 52.4453 69.1172C51.8711 69.1172 51.3613 68.9824 50.916 68.7129C50.4707 68.4434 50.127 68.0566 49.8848 67.5527C49.6426 67.0488 49.5215 66.459 49.5215 65.7832C49.5215 64.7363 49.7832 63.9219 50.3066 63.3398C50.8301 62.7539 51.5566 62.4609 52.4863 62.4609C53.3848 62.4609 54.0977 62.7598 54.625 63.3574C55.1562 63.9551 55.4219 64.7637 55.4219 65.7832ZM50.5293 65.7832C50.5293 66.6035 50.6934 67.2285 51.0215 67.6582C51.3496 68.0879 51.832 68.3027 52.4688 68.3027C53.1055 68.3027 53.5879 68.0898 53.916 67.6641C54.248 67.2344 54.4141 66.6074 54.4141 65.7832C54.4141 64.9668 54.248 64.3477 53.916 63.9258C53.5879 63.5 53.1016 63.2871 52.457 63.2871C51.8203 63.2871 51.3398 63.4961 51.0156 63.9141C50.6914 64.332 50.5293 64.9551 50.5293 65.7832ZM61.4629 63.4102H59.377V69H58.4043V63.4102H56.3418V62.5781H61.4629V63.4102ZM63.6484 62.5781V66.6504L63.6074 67.7168L63.5898 68.0508L67.0645 62.5781H68.2773V69H67.3691V65.0742L67.3867 64.3008L67.416 63.5391L63.9473 69H62.7344V62.5781H63.6484ZM71.3125 69H70.3398V62.5781H75.7305V69H74.7461V63.4219H71.3125V69ZM81.8828 62.5781V65.2676H85.4805V62.5781H86.4531V69H85.4805V66.1055H81.8828V69H80.9102V62.5781H81.8828ZM91.2285 69.1172C90.2793 69.1172 89.5293 68.8281 88.9785 68.25C88.4316 67.6719 88.1582 66.8691 88.1582 65.8418C88.1582 64.8066 88.4121 63.9844 88.9199 63.375C89.4316 62.7656 90.1172 62.4609 90.9766 62.4609C91.7812 62.4609 92.418 62.7266 92.8867 63.2578C93.3555 63.7852 93.5898 64.4824 93.5898 65.3496V65.9648H89.166C89.1855 66.7188 89.375 67.291 89.7344 67.6816C90.0977 68.0723 90.6074 68.2676 91.2637 68.2676C91.9551 68.2676 92.6387 68.123 93.3145 67.834V68.7012C92.9707 68.8496 92.6445 68.9551 92.3359 69.0176C92.0312 69.084 91.6621 69.1172 91.2285 69.1172ZM90.9648 63.2754C90.4492 63.2754 90.0371 63.4434 89.7285 63.7793C89.4238 64.1152 89.2441 64.5801 89.1895 65.1738H92.5469C92.5469 64.5605 92.4102 64.0918 92.1367 63.7676C91.8633 63.4395 91.4727 63.2754 90.9648 63.2754ZM99.5957 65.2441C100.811 65.2441 101.418 64.9082 101.418 64.2363C101.418 63.6035 100.926 63.2871 99.9414 63.2871C99.6406 63.2871 99.3672 63.3145 99.1211 63.3691C98.875 63.4238 98.5527 63.5332 98.1543 63.6973L97.8086 62.9062C98.4727 62.6094 99.1973 62.4609 99.9824 62.4609C100.721 62.4609 101.303 62.6133 101.729 62.918C102.154 63.2188 102.367 63.6309 102.367 64.1543C102.367 64.873 101.967 65.3438 101.166 65.5664V65.6133C101.658 65.7578 102.018 65.9648 102.244 66.2344C102.471 66.5 102.584 66.834 102.584 67.2363C102.584 67.8301 102.344 68.293 101.863 68.625C101.387 68.9531 100.727 69.1172 99.8828 69.1172C98.957 69.1172 98.2422 68.9785 97.7383 68.7012V67.8105C98.4531 68.1465 99.1758 68.3145 99.9062 68.3145C100.469 68.3145 100.893 68.2188 101.178 68.0273C101.467 67.832 101.611 67.5527 101.611 67.1895C101.611 66.4434 101.004 66.0703 99.7891 66.0703H98.8984V65.2441H99.5957ZM108.121 69L107.928 68.0859H107.881C107.561 68.4883 107.24 68.7617 106.92 68.9062C106.604 69.0469 106.207 69.1172 105.73 69.1172C105.094 69.1172 104.594 68.9531 104.23 68.625C103.871 68.2969 103.691 67.8301 103.691 67.2246C103.691 65.9277 104.729 65.248 106.803 65.1855L107.893 65.1504V64.752C107.893 64.248 107.783 63.877 107.564 63.6387C107.35 63.3965 107.004 63.2754 106.527 63.2754C105.992 63.2754 105.387 63.4395 104.711 63.7676L104.412 63.0234C104.729 62.8516 105.074 62.7168 105.449 62.6191C105.828 62.5215 106.207 62.4727 106.586 62.4727C107.352 62.4727 107.918 62.6426 108.285 62.9824C108.656 63.3223 108.842 63.8672 108.842 64.6172V69H108.121ZM105.924 68.3145C106.529 68.3145 107.004 68.1484 107.348 67.8164C107.695 67.4844 107.869 67.0195 107.869 66.4219V65.8418L106.896 65.8828C106.123 65.9102 105.564 66.0312 105.221 66.2461C104.881 66.457 104.711 66.7871 104.711 67.2363C104.711 67.5879 104.816 67.8555 105.027 68.0391C105.242 68.2227 105.541 68.3145 105.924 68.3145ZM114.719 63.4102H111.824V69H110.852V62.5781H114.719V63.4102ZM118.984 69.1172C118.566 69.1172 118.184 69.041 117.836 68.8887C117.492 68.7324 117.203 68.4941 116.969 68.1738H116.898C116.945 68.5488 116.969 68.9043 116.969 69.2402V71.8828H115.996V62.5781H116.787L116.922 63.457H116.969C117.219 63.1055 117.51 62.8516 117.842 62.6953C118.174 62.5391 118.555 62.4609 118.984 62.4609C119.836 62.4609 120.492 62.752 120.953 63.334C121.418 63.916 121.65 64.7324 121.65 65.7832C121.65 66.8379 121.414 67.6582 120.941 68.2441C120.473 68.8262 119.82 69.1172 118.984 69.1172ZM118.844 63.2871C118.188 63.2871 117.713 63.4688 117.42 63.832C117.127 64.1953 116.977 64.7734 116.969 65.5664V65.7832C116.969 66.6855 117.119 67.332 117.42 67.7227C117.721 68.1094 118.203 68.3027 118.867 68.3027C119.422 68.3027 119.855 68.0781 120.168 67.6289C120.484 67.1797 120.643 66.5605 120.643 65.7715C120.643 64.9707 120.484 64.3574 120.168 63.9316C119.855 63.502 119.414 63.2871 118.844 63.2871ZM122.336 62.5781H123.379L124.785 66.2402C125.094 67.0762 125.285 67.6797 125.359 68.0508H125.406C125.457 67.8516 125.562 67.5117 125.723 67.0312C125.887 66.5469 126.418 65.0625 127.316 62.5781H128.359L125.6 69.8906C125.326 70.6133 125.006 71.125 124.639 71.4258C124.275 71.7305 123.828 71.8828 123.297 71.8828C123 71.8828 122.707 71.8496 122.418 71.7832V71.0039C122.633 71.0508 122.873 71.0742 123.139 71.0742C123.807 71.0742 124.283 70.6992 124.568 69.9492L124.926 69.0352L122.336 62.5781ZM132.332 62.5898H133.229V65.7012L135.883 62.5898H136.949L134.266 65.7012L137.178 69H136.053L133.229 65.748V69H132.332V65.748L129.514 69H128.395L131.301 65.7012L128.623 62.5898H129.689L132.332 65.7012V62.5898ZM140.951 69.1172C140.002 69.1172 139.252 68.8281 138.701 68.25C138.154 67.6719 137.881 66.8691 137.881 65.8418C137.881 64.8066 138.135 63.9844 138.643 63.375C139.154 62.7656 139.84 62.4609 140.699 62.4609C141.504 62.4609 142.141 62.7266 142.609 63.2578C143.078 63.7852 143.312 64.4824 143.312 65.3496V65.9648H138.889C138.908 66.7188 139.098 67.291 139.457 67.6816C139.82 68.0723 140.33 68.2676 140.986 68.2676C141.678 68.2676 142.361 68.123 143.037 67.834V68.7012C142.693 68.8496 142.367 68.9551 142.059 69.0176C141.754 69.084 141.385 69.1172 140.951 69.1172ZM140.688 63.2754C140.172 63.2754 139.76 63.4434 139.451 63.7793C139.146 64.1152 138.967 64.5801 138.912 65.1738H142.27C142.27 64.5605 142.133 64.0918 141.859 63.7676C141.586 63.4395 141.195 63.2754 140.688 63.2754ZM145.949 62.5781V65.2676H149.547V62.5781H150.52V69H149.547V66.1055H145.949V69H144.977V62.5781H145.949Z" fill="#B8B8B8"/>
<g clip-path="url(#clip0_281_10002)">
<path d="M100.312 22.0547H79.6875C77.1027 22.0547 75 24.1574 75 26.7422V43.1484C75 45.7332 77.1027 47.8359 79.6875 47.8359H90.7899H90.7919H90.7933H92.1094C92.7567 47.8359 93.2812 47.3113 93.2812 46.6641C93.2812 46.0168 92.7567 45.4922 92.1094 45.4922H91.3673L88.6729 41.9967L97.1835 31.172L102.525 37.4616C102.747 37.7239 103.074 37.875 103.418 37.875H103.828C104.475 37.875 105 37.3504 105 36.7031V26.7422C105 24.1574 102.897 22.0547 100.312 22.0547ZM102.656 33.9957L98.0418 28.5618C97.814 28.2935 97.4787 28.1409 97.1262 28.1487C96.7747 28.1553 96.4446 28.3196 96.2272 28.5961L87.1969 40.0819L84.1312 36.1048C83.9095 35.8171 83.5666 35.6484 83.2031 35.6484C83.2029 35.6484 83.2027 35.6484 83.2024 35.6484C82.839 35.6487 82.4959 35.8176 82.2743 36.106L79.6953 39.4586C79.3007 39.9716 79.3966 40.7074 79.9095 41.102C80.4227 41.4966 81.1583 41.4007 81.5529 40.8875L83.204 38.7411L88.4081 45.4922H79.6875C78.3952 45.4922 77.3438 44.4407 77.3438 43.1484V26.7422C77.3438 25.4499 78.3952 24.3984 79.6875 24.3984H100.312C101.605 24.3984 102.656 25.4499 102.656 26.7422V33.9957ZM83.2031 26.2734C81.2645 26.2734 79.6875 27.8504 79.6875 29.7891C79.6875 31.7277 81.2645 33.3047 83.2031 33.3047C85.1418 33.3047 86.7188 31.7277 86.7188 29.7891C86.7188 27.8504 85.1418 26.2734 83.2031 26.2734ZM83.2031 30.9609C82.557 30.9609 82.0312 30.4352 82.0312 29.7891C82.0312 29.1429 82.557 28.6172 83.2031 28.6172C83.8493 28.6172 84.375 29.1429 84.375 29.7891C84.375 30.4352 83.8493 30.9609 83.2031 30.9609ZM104.657 41.985L101.677 44.9648L104.657 47.9447C105.114 48.4024 105.114 49.1445 104.657 49.602C104.428 49.8309 104.128 49.9453 103.828 49.9453C103.528 49.9453 103.228 49.8309 102.999 49.6022L100.02 46.6222L97.0397 49.602C96.8108 49.8309 96.5108 49.9453 96.2109 49.9453C95.9111 49.9453 95.611 49.8309 95.3822 49.6022C94.9246 49.1445 94.9246 48.4024 95.3822 47.9449L98.3622 44.9648L95.3824 41.985C94.9246 41.5273 94.9246 40.7852 95.3824 40.3277C95.8399 39.8699 96.582 39.8699 97.0397 40.3277L100.02 43.3075L102.999 40.3277C103.457 39.8699 104.199 39.8699 104.657 40.3277C105.114 40.7852 105.114 41.5273 104.657 41.985Z" fill="#B8B8B8"/>
</g>
<defs>
<clipPath id="clip0_281_10002">
<rect width="30" height="30" fill="white" transform="translate(75 21)"/>
</clipPath>
</defs>
</svg>
