<svg width="20" height="20" viewBox="0 0 20 20" fill="none" xmlns="http://www.w3.org/2000/svg">
<path fill-rule="evenodd" clip-rule="evenodd" d="M10.7301 7.82994C10.3269 7.42672 9.67316 7.42672 9.26994 7.82994L8.73961 7.29961L9.26994 7.82994C8.86673 8.23315 8.86673 8.8869 9.26994 9.29011C9.67316 9.69333 10.3269 9.69333 10.7301 9.29011C11.1333 8.88691 11.1333 8.2332 10.7302 7.82998C10.7301 7.82996 10.7301 7.82995 10.7301 7.82994ZM11.7903 6.76885C10.8013 5.78028 9.19814 5.78042 8.20928 6.76928C7.22028 7.75828 7.22028 9.36177 8.20928 10.3508C9.19828 11.3398 10.8018 11.3398 11.7908 10.3508C12.7798 9.36177 12.7798 7.75828 11.7908 6.76928" fill="#FF562E"/>
<path fill-rule="evenodd" clip-rule="evenodd" d="M6.56684 11.858C5.52491 10.9894 4.92095 9.704 4.91677 8.34755L6.56684 11.858ZM6.56684 11.858L8.48003 13.452C8.48008 13.4521 8.47999 13.452 8.48003 13.452C9.11192 13.9783 9.62788 14.6254 10.0001 15.3515C10.3724 14.6255 10.8882 13.979 11.5198 13.4524L13.4324 11.8581C14.4751 10.9895 15.0792 9.70402 15.0834 8.34755C15.0747 5.21205 12.4864 3.36169 10.0001 3.36169C7.51371 3.36169 4.92544 5.21205 4.91677 8.34755M16.5834 8.34761C16.5834 8.34286 16.5834 8.33811 16.5834 8.33336C16.5668 4.217 13.1403 1.86169 10.0001 1.86169C6.85991 1.86169 3.43338 4.217 3.41681 8.33336L3.41675 8.36336C3.41675 8.36886 3.41681 8.37434 3.41692 8.37981C3.43054 10.1693 4.23073 11.8635 5.60653 13.0103L7.51999 14.6046C8.175 15.15 8.66514 15.8685 8.93529 16.6782C8.93529 16.6782 8.93529 16.6782 8.93529 16.6782L9.28863 17.7374C9.39076 18.0435 9.67732 18.25 10.0001 18.25C10.3228 18.25 10.6094 18.0435 10.7115 17.7374L11.0649 16.6782C11.0649 16.6782 11.0649 16.6782 11.0649 16.6782C11.3349 15.8688 11.8249 15.151 12.4804 14.6044L14.3926 13.0105C14.3925 13.0105 14.3927 13.0104 14.3926 13.0105C15.7693 11.8636 16.5696 10.1693 16.5832 8.37981C16.5834 8.37434 16.5834 8.36886 16.5834 8.36336C16.5834 8.35811 16.5834 8.35286 16.5834 8.34761Z" fill="#FF562E"/>
</svg>
