<svg width="25" height="25" viewBox="0 0 25 25" fill="none" xmlns="http://www.w3.org/2000/svg">
<path d="M12.5 11.7499C11.4612 11.7472 10.4656 11.3334 9.73106 10.5988C8.99649 9.86425 8.58264 8.86872 8.58 7.82988H7.08C7.08264 9.26654 7.65452 10.6436 8.6704 11.6595C9.68627 12.6754 11.0633 13.2472 12.5 13.2499V11.7499ZM8.58 7.82988C8.59277 6.79141 9.00895 5.79862 9.74051 5.06146C10.4721 4.32431 11.4617 3.90058 12.5 3.87988V2.37988C11.0606 2.39043 9.68358 2.96895 8.66855 3.9896C7.65352 5.01025 7.0826 6.39044 7.08 7.82988H8.58ZM12.5 3.87988C13.5379 3.87988 14.5335 4.29151 15.2683 5.02449C16.0032 5.75747 16.4174 6.75197 16.42 7.78988H17.92C17.9147 6.35496 17.3417 4.98046 16.3261 3.96674C15.3105 2.95302 13.9349 2.38252 12.5 2.37988V3.87988ZM16.42 7.78988C16.4202 8.83703 16.0098 9.84251 15.2768 10.5904C14.5439 11.3383 13.5469 11.7689 12.5 11.7899V13.2899C13.9403 13.2767 15.3173 12.696 16.3321 11.6737C17.3468 10.6515 17.9174 9.27026 17.92 7.82988L16.42 7.78988ZM19.79 21.1299H5.21V22.6299H19.79V21.1299ZM5.21 21.1299C5.13218 21.1273 5.05842 21.0945 5.0043 21.0386C4.95019 20.9826 4.91995 20.9077 4.92 20.8299H3.42C3.41999 21.3055 3.60826 21.7619 3.94367 22.0992C4.27907 22.4364 4.73434 22.6272 5.21 22.6299V21.1299ZM4.92 20.8299V19.8299H3.42V20.8299H4.92ZM4.92 19.8299C4.92264 18.9263 5.28275 18.0605 5.92168 17.4216C6.56061 16.7826 7.42642 16.4225 8.33 16.4199V14.9199C7.02941 14.9251 5.78359 15.4441 4.86392 16.3638C3.94426 17.2835 3.42526 18.5293 3.42 19.8299H4.92ZM8.33 16.4199H16.67V14.9199H8.33V16.4199ZM16.67 16.4199C17.5736 16.4225 18.4394 16.7826 19.0783 17.4216C19.7172 18.0605 20.0774 18.9263 20.08 19.8299H21.58C21.5747 18.5293 21.0557 17.2835 20.1361 16.3638C19.2164 15.4441 17.9706 14.9251 16.67 14.9199V16.4199ZM20.08 19.8299V20.8299H21.58V19.8299H20.08ZM20.08 20.8299C20.08 20.9077 20.0498 20.9826 19.9957 21.0386C19.9416 21.0945 19.8678 21.1273 19.79 21.1299V22.6299C20.2657 22.6272 20.7209 22.4364 21.0563 22.0992C21.3917 21.7619 21.58 21.3055 21.58 20.8299H20.08Z" fill="#FF562E"/>
</svg>
