<svg width="20" height="20" viewBox="0 0 20 20" fill="none" xmlns="http://www.w3.org/2000/svg">
<path fill-rule="evenodd" clip-rule="evenodd" d="M3.41675 5.83331C3.41675 5.4191 3.75253 5.08331 4.16675 5.08331H15.8334C16.2476 5.08331 16.5834 5.4191 16.5834 5.83331C16.5834 6.24753 16.2476 6.58331 15.8334 6.58331H4.16675C3.75253 6.58331 3.41675 6.24753 3.41675 5.83331Z" fill="#686868"/>
<path fill-rule="evenodd" clip-rule="evenodd" d="M5 5.08331C5.41421 5.08331 5.75 5.4191 5.75 5.83331V15C5.75 15.5066 6.16005 15.9166 6.66667 15.9166H13.3333C13.84 15.9166 14.25 15.5066 14.25 15V5.83331C14.25 5.4191 14.5858 5.08331 15 5.08331C15.4142 5.08331 15.75 5.4191 15.75 5.83331V15C15.75 16.335 14.6684 17.4166 13.3333 17.4166H6.66667C5.33162 17.4166 4.25 16.335 4.25 15V5.83331C4.25 5.4191 4.58579 5.08331 5 5.08331Z" fill="#686868"/>
<path fill-rule="evenodd" clip-rule="evenodd" d="M6.75 3.125C6.75 2.71079 7.08579 2.375 7.5 2.375H12.5C12.9142 2.375 13.25 2.71079 13.25 3.125C13.25 3.53921 12.9142 3.875 12.5 3.875H7.5C7.08579 3.875 6.75 3.53921 6.75 3.125Z" fill="#686868"/>
<path fill-rule="evenodd" clip-rule="evenodd" d="M8.3335 8.41669C8.74771 8.41669 9.0835 8.75247 9.0835 9.16669V13.3334C9.0835 13.7476 8.74771 14.0834 8.3335 14.0834C7.91928 14.0834 7.5835 13.7476 7.5835 13.3334V9.16669C7.5835 8.75247 7.91928 8.41669 8.3335 8.41669Z" fill="#686868"/>
<path fill-rule="evenodd" clip-rule="evenodd" d="M11.6667 8.41669C12.081 8.41669 12.4167 8.75247 12.4167 9.16669V13.3334C12.4167 13.7476 12.081 14.0834 11.6667 14.0834C11.2525 14.0834 10.9167 13.7476 10.9167 13.3334V9.16669C10.9167 8.75247 11.2525 8.41669 11.6667 8.41669Z" fill="#686868"/>
</svg>
