<svg width="30" height="30" viewBox="0 0 30 30" fill="none" xmlns="http://www.w3.org/2000/svg">
<path fill-rule="evenodd" clip-rule="evenodd" d="M15 8C15.4142 8 15.75 8.33579 15.75 8.75V17.5C15.75 17.9142 15.4142 18.25 15 18.25C14.5858 18.25 14.25 17.9142 14.25 17.5V8.75C14.25 8.33579 14.5858 8 15 8Z" fill="#FF562E"/>
<path fill-rule="evenodd" clip-rule="evenodd" d="M10.7197 13.2197C11.0126 12.9268 11.4874 12.9268 11.7803 13.2197L15 16.4393L18.2197 13.2197C18.5126 12.9268 18.9874 12.9268 19.2803 13.2197C19.5732 13.5126 19.5732 13.9874 19.2803 14.2803L15.5303 18.0303C15.2374 18.3232 14.7626 18.3232 14.4697 18.0303L10.7197 14.2803C10.4268 13.9874 10.4268 13.5126 10.7197 13.2197Z" fill="#FF562E"/>
<path fill-rule="evenodd" clip-rule="evenodd" d="M10.5 21.25C10.5 20.8358 10.8358 20.5 11.25 20.5H18.75C19.1642 20.5 19.5 20.8358 19.5 21.25C19.5 21.6642 19.1642 22 18.75 22H11.25C10.8358 22 10.5 21.6642 10.5 21.25Z" fill="#FF562E"/>
<path fill-rule="evenodd" clip-rule="evenodd" d="M22.4246 7.57538C18.3241 3.47487 11.6759 3.47487 7.57538 7.57538L7.57538 7.57538C3.47488 11.6759 3.47487 18.3241 7.57538 22.4246L7.04505 22.9549L7.57538 22.4246C11.6759 26.5251 18.3241 26.5251 22.4246 22.4246C26.525 18.3242 26.5251 11.6763 22.4249 7.57573C22.4248 7.57561 22.4247 7.57549 22.4246 7.57538ZM23.4843 6.51381C18.798 1.82843 11.2007 1.82873 6.51472 6.51472C1.82842 11.201 1.82843 18.799 6.51472 23.4853C11.201 28.1716 18.799 28.1715 23.4853 23.4853C28.1715 18.799 28.1715 11.201 23.4853 6.51472C23.485 6.51442 23.4846 6.51412 23.4843 6.51381ZM6.51472 6.51472L7.04505 7.04505L6.51472 6.51472Z" fill="#FF562E"/>
</svg>
