<svg width="20" height="20" viewBox="0 0 20 20" fill="none" xmlns="http://www.w3.org/2000/svg">
<path d="M7.5 18.5801C7.04696 18.58 6.60319 18.4517 6.22 18.2101L2.89 16.1301C2.54696 15.9196 2.26262 15.626 2.06333 15.2764C1.86405 14.9267 1.75627 14.5324 1.75 14.1301V4.17006C1.75943 3.74291 1.88178 3.32587 2.10461 2.96133C2.32744 2.59679 2.6428 2.29774 3.01866 2.09458C3.39451 1.89141 3.81746 1.79137 4.2445 1.80463C4.67155 1.81789 5.08747 1.94397 5.45 2.17006L8.78 4.20006C9.12823 4.41709 9.41556 4.7191 9.61498 5.0777C9.8144 5.43631 9.91936 5.83973 9.92 6.25006V16.1601C9.92278 16.5921 9.80791 17.0167 9.5877 17.3885C9.36749 17.7602 9.05025 18.0649 8.67 18.2701C8.31358 18.4733 7.91032 18.5802 7.5 18.5801ZM4.17 3.25006C4.01219 3.2508 3.85723 3.29212 3.72 3.37006C3.57639 3.44815 3.45677 3.56388 3.37396 3.70482C3.29116 3.84577 3.2483 4.0066 3.25 4.17006V14.0801C3.25053 14.2343 3.29027 14.3859 3.36549 14.5206C3.44071 14.6553 3.54893 14.7687 3.68 14.8501L7 16.9401C7.13989 17.0244 7.29952 17.0704 7.46284 17.0734C7.62616 17.0765 7.78739 17.0364 7.93032 16.9574C8.07325 16.8783 8.19284 16.763 8.27705 16.623C8.36125 16.4831 8.40711 16.3234 8.41 16.1601V6.25006C8.4135 6.09731 8.37762 5.94624 8.30581 5.81138C8.234 5.67652 8.12869 5.56242 8 5.48006L4.65 3.39006C4.50444 3.3035 4.33927 3.25533 4.17 3.25006Z" fill="#686868"/>
<path d="M17.5 9.91992H12.5C12.3011 9.91992 12.1103 9.8409 11.9697 9.70025C11.829 9.5596 11.75 9.36883 11.75 9.16992C11.75 8.97101 11.829 8.78024 11.9697 8.63959C12.1103 8.49894 12.3011 8.41992 12.5 8.41992H17.5C17.6989 8.41992 17.8897 8.49894 18.0303 8.63959C18.171 8.78024 18.25 8.97101 18.25 9.16992C18.25 9.36883 18.171 9.5596 18.0303 9.70025C17.8897 9.8409 17.6989 9.91992 17.5 9.91992Z" fill="#686868"/>
<path d="M15.8299 11.5801C15.7314 11.5806 15.6337 11.5613 15.5427 11.5236C15.4517 11.4858 15.3692 11.4302 15.2999 11.3601C15.1595 11.2195 15.0806 11.0288 15.0806 10.8301C15.0806 10.6313 15.1595 10.4407 15.2999 10.3001L16.4399 9.17009L15.2999 8.00009C15.2169 7.85405 15.1853 7.68437 15.2102 7.51823C15.2351 7.3521 15.315 7.19913 15.4372 7.08385C15.5594 6.96857 15.7168 6.89765 15.8841 6.88247C16.0514 6.86728 16.219 6.9087 16.3599 7.00009L17.9999 8.64009C18.1404 8.78072 18.2192 8.97134 18.2192 9.17009C18.2192 9.36884 18.1404 9.55947 17.9999 9.70009L16.3299 11.3601C16.2652 11.428 16.1877 11.4823 16.1019 11.5201C16.0161 11.5579 15.9236 11.5783 15.8299 11.5801Z" fill="#686868"/>
<path d="M12.4999 16.5801H9.16992C8.97101 16.5801 8.78024 16.5011 8.63959 16.3604C8.49894 16.2198 8.41992 16.029 8.41992 15.8301C8.41992 15.6312 8.49894 15.4404 8.63959 15.2997C8.78024 15.1591 8.97101 15.0801 9.16992 15.0801H12.4999C12.7422 15.0801 12.9747 14.9845 13.1469 14.8142C13.3192 14.6438 13.4173 14.4123 13.4199 14.1701V13.3301C13.4199 13.1312 13.4989 12.9404 13.6396 12.7997C13.7802 12.6591 13.971 12.5801 14.1699 12.5801C14.3688 12.5801 14.5596 12.6591 14.7003 12.7997C14.8409 12.9404 14.9199 13.1312 14.9199 13.3301V14.1701C14.9173 14.8102 14.6611 15.4231 14.2076 15.8748C13.754 16.3265 13.14 16.5801 12.4999 16.5801Z" fill="#686868"/>
<path d="M14.1699 5.75C13.971 5.75 13.7802 5.67098 13.6396 5.53033C13.4989 5.38968 13.4199 5.19891 13.4199 5V4.17C13.4199 3.926 13.323 3.692 13.1505 3.51946C12.9779 3.34693 12.7439 3.25 12.4999 3.25H4.16992C3.97101 3.25 3.78024 3.17098 3.63959 3.03033C3.49894 2.88968 3.41992 2.69891 3.41992 2.5C3.41992 2.30109 3.49894 2.11032 3.63959 1.96967C3.78024 1.82902 3.97101 1.75 4.16992 1.75H12.4999C13.1417 1.75 13.7573 2.00496 14.2111 2.4588C14.665 2.91264 14.9199 3.52818 14.9199 4.17V5C14.9173 5.19811 14.8375 5.38737 14.6974 5.52747C14.5573 5.66756 14.368 5.74741 14.1699 5.75Z" fill="#686868"/>
</svg>
