<svg width="20" height="20" viewBox="0 0 20 20" fill="none" xmlns="http://www.w3.org/2000/svg">
<path fill-rule="evenodd" clip-rule="evenodd" d="M6.92 4.08325C4.79734 4.08325 3.25 6.11272 3.25 8.12909C3.25 9.10374 3.633 10.0785 4.27356 11.0222C4.91342 11.9649 5.78235 12.8345 6.67966 13.5818C7.57405 14.3267 8.47593 14.933 9.16269 15.3528C9.50557 15.5624 9.79155 15.7235 9.99214 15.8305C9.99478 15.8319 9.9974 15.8333 10 15.8347C10.0026 15.8333 10.0052 15.8319 10.0079 15.8305C10.2085 15.7235 10.4944 15.5624 10.8373 15.3528C11.5241 14.933 12.4259 14.3267 13.3203 13.5818C14.2176 12.8345 15.0866 11.9649 15.7264 11.0222C16.367 10.0785 16.75 9.10374 16.75 8.12909C16.75 6.11272 15.2027 4.08325 13.08 4.08325C11.8482 4.08325 11.0472 4.68832 10.5701 5.24642C10.4276 5.41311 10.2193 5.50909 10 5.50909C9.78071 5.50909 9.5724 5.41311 9.42991 5.24642C8.95282 4.68832 8.15182 4.08325 6.92 4.08325ZM1.75 8.12909C1.75 5.52045 3.751 2.58325 6.92 2.58325C8.28501 2.58325 9.29799 3.10666 10 3.70298C10.702 3.10666 11.715 2.58325 13.08 2.58325C16.249 2.58325 18.25 5.52045 18.25 8.12909C18.25 9.50151 17.7123 10.7675 16.9675 11.8646C16.2221 12.9628 15.2412 13.9342 14.2803 14.7345C13.3165 15.5372 12.3517 16.1851 11.6196 16.6326C11.2531 16.8567 10.9416 17.0325 10.7137 17.154C10.6004 17.2145 10.504 17.2635 10.4297 17.299C10.3935 17.3163 10.3558 17.3336 10.3207 17.3482C10.3041 17.355 10.2788 17.3652 10.2496 17.375C10.2353 17.3798 10.2113 17.3874 10.1816 17.3947L10.1812 17.3948C10.1623 17.3994 10.0915 17.4166 10 17.4166C9.90853 17.4166 9.83771 17.3994 9.8188 17.3948L9.81837 17.3947C9.78872 17.3874 9.76471 17.3798 9.75039 17.375C9.72122 17.3652 9.69585 17.355 9.67925 17.3482C9.6442 17.3336 9.60652 17.3163 9.57035 17.299C9.496 17.2635 9.39965 17.2145 9.28629 17.154C9.05838 17.0325 8.74689 16.8567 8.38035 16.6326C7.64829 16.1851 6.68355 15.5372 5.71972 14.7345C4.75879 13.9342 3.77788 12.9628 3.03246 11.8646C2.28773 10.7675 1.75 9.50151 1.75 8.12909Z" fill="#686868"/>
</svg>
