<svg width="20" height="20" viewBox="0 0 20 20" fill="none" xmlns="http://www.w3.org/2000/svg">
<path fill-rule="evenodd" clip-rule="evenodd" d="M2.36654 6.50597C2.45112 5.23631 3.50487 4.25 4.77738 4.25H13.3257C14.5982 4.25 15.652 5.23632 15.7366 6.50599L15.7999 7.4498C15.8276 7.86309 15.515 8.2206 15.1017 8.24832C14.6885 8.27604 14.331 7.96348 14.3032 7.5502L14.2399 6.60603C14.2078 6.12404 13.8082 5.75 13.3257 5.75H4.77738C4.2949 5.75 3.89533 6.12368 3.86323 6.60568L3.25239 15.7732C3.21712 16.3018 3.6361 16.75 4.16655 16.75H4.99988C5.4141 16.75 5.74988 17.0858 5.74988 17.5C5.74988 17.9142 5.4141 18.25 4.99988 18.25H4.16655C2.76869 18.25 1.66269 17.0682 1.75571 15.6735L2.36654 6.50597C2.36654 6.50598 2.36654 6.50596 2.36654 6.50597ZM1.75571 15.6735C1.75571 15.6734 1.75571 15.6735 1.75571 15.6735V15.6735Z" fill="#686868"/>
<path fill-rule="evenodd" clip-rule="evenodd" d="M9.05151 2.41675C8.08489 2.41675 7.30151 3.20013 7.30151 4.16675V5.00008C7.30151 5.41429 6.96573 5.75008 6.55151 5.75008C6.1373 5.75008 5.80151 5.41429 5.80151 5.00008V4.16675C5.80151 2.3717 7.25647 0.916748 9.05151 0.916748C10.8466 0.916748 12.3015 2.3717 12.3015 4.16675V5.00008C12.3015 5.41429 11.9657 5.75008 11.5515 5.75008C11.1373 5.75008 10.8015 5.41429 10.8015 5.00008V4.16675C10.8015 3.20013 10.0181 2.41675 9.05151 2.41675Z" fill="#686868"/>
<path fill-rule="evenodd" clip-rule="evenodd" d="M8.60645 11.0715V16.4283C8.60645 16.6062 8.75028 16.75 8.92811 16.75H16.4281C16.6068 16.75 16.7498 16.6062 16.7498 16.4292V11.0717C16.7498 10.8934 16.6064 10.75 16.4281 10.75H8.92811C8.75098 10.75 8.60689 10.8932 8.60645 11.0715ZM8.92811 9.25C7.92203 9.25 7.10786 10.0649 7.10645 11.0698L7.10645 16.4283C7.10645 17.4354 7.92261 18.25 8.92811 18.25H16.4281C17.4344 18.25 18.2498 17.4354 18.2498 16.4292V11.0717C18.2498 10.065 17.4348 9.25 16.4281 9.25H8.92811Z" fill="#686868"/>
<path fill-rule="evenodd" clip-rule="evenodd" d="M10.8032 11.75C11.2174 11.75 11.5532 12.0858 11.5532 12.5C11.5532 13.1216 12.0566 13.625 12.6782 13.625C13.2998 13.625 13.8032 13.1216 13.8032 12.5C13.8032 12.0858 14.139 11.75 14.5532 11.75C14.9674 11.75 15.3032 12.0858 15.3032 12.5C15.3032 13.95 14.1283 15.125 12.6782 15.125C11.2282 15.125 10.0532 13.95 10.0532 12.5C10.0532 12.0858 10.389 11.75 10.8032 11.75Z" fill="#686868"/>
</svg>
