<svg width="20" height="20" viewBox="0 0 20 20" fill="none" xmlns="http://www.w3.org/2000/svg">
<path d="M12.21 8.85002C11.9292 8.84812 11.6602 8.73692 11.46 8.54002C11.3616 8.4415 11.2836 8.32455 11.2304 8.19586C11.1772 8.06717 11.1499 7.92927 11.15 7.79002C11.1356 7.64149 11.1524 7.49159 11.1994 7.34994C11.2464 7.2083 11.3224 7.07805 11.4227 6.96755C11.523 6.85705 11.6453 6.76876 11.7818 6.70834C11.9182 6.64791 12.0658 6.6167 12.215 6.6167C12.3642 6.6167 12.5118 6.64791 12.6483 6.70834C12.7847 6.76876 12.907 6.85705 13.0073 6.96755C13.1076 7.07805 13.1837 7.2083 13.2306 7.34994C13.2776 7.49159 13.2944 7.64149 13.28 7.79002C13.2774 8.07206 13.1635 8.34166 12.9631 8.54017C12.7627 8.73867 12.4921 8.85003 12.21 8.85002Z" fill="#D3D3D3"/>
<path d="M5.66999 17.8301H2.91999C2.82113 17.8315 2.723 17.813 2.63139 17.7758C2.53979 17.7385 2.45658 17.6833 2.38666 17.6134C2.31675 17.5435 2.26155 17.4603 2.22434 17.3687C2.18713 17.2771 2.16865 17.179 2.16999 17.0801V14.3301C2.17017 14.1313 2.2493 13.9406 2.38999 13.8001L6.82999 9.35011C6.55217 8.38546 6.53733 7.36407 6.787 6.39176C7.03668 5.41944 7.54178 4.53156 8.24999 3.82011C8.77037 3.29704 9.38899 2.88196 10.0703 2.59872C10.7516 2.31549 11.4822 2.16968 12.22 2.16968C12.9578 2.16968 13.6884 2.31549 14.3697 2.59872C15.051 2.88196 15.6696 3.29704 16.19 3.82011C17.0746 4.7044 17.6389 5.8585 17.7935 7.09966C17.9482 8.34083 17.6844 9.59813 17.044 10.6725C16.4035 11.7468 15.4229 12.5768 14.2575 13.031C13.0922 13.4852 11.8086 13.5377 10.61 13.1801L10.09 13.7101C9.94947 13.8508 9.75884 13.9299 9.55999 13.9301H8.77999V14.4101C8.7774 14.6082 8.69755 14.7975 8.55746 14.9376C8.41736 15.0777 8.2281 15.1575 8.02999 15.1601H7.55999V15.9401C7.55827 16.1357 7.47917 16.3227 7.33999 16.4601L6.19999 17.6101C6.05827 17.749 5.8684 17.8278 5.66999 17.8301ZM3.66999 16.3301H5.34999L6.05999 15.6301V14.4101C6.05999 14.2112 6.13901 14.0204 6.27966 13.8798C6.42031 13.7391 6.61108 13.6601 6.80999 13.6601H7.27999V13.1801C7.28226 12.987 7.35795 12.802 7.49168 12.6627C7.62541 12.5234 7.80715 12.4403 7.99999 12.4301H9.24999L9.88999 11.7901C9.9915 11.6856 10.1223 11.6144 10.2651 11.5859C10.408 11.5573 10.5561 11.5727 10.69 11.6301C11.5713 11.9743 12.5441 12.0054 13.4457 11.7183C14.3472 11.4311 15.1228 10.8432 15.6428 10.0527C16.1628 9.2622 16.3955 8.31715 16.3022 7.37561C16.2088 6.43406 15.795 5.55311 15.13 4.88011C14.4634 4.20986 13.5862 3.78986 12.6461 3.69088C11.7061 3.59191 10.7606 3.82 9.96906 4.33673C9.17752 4.85346 8.5883 5.62724 8.30067 6.52768C8.01304 7.42813 8.04458 8.4002 8.38999 9.28011C8.44087 9.41579 8.4519 9.56318 8.42178 9.70493C8.39166 9.84667 8.32164 9.97684 8.21999 10.0801L3.66999 14.6401V16.3301Z" fill="#D3D3D3"/>
</svg>
