<svg width="25" height="25" viewBox="0 0 25 25" fill="none" xmlns="http://www.w3.org/2000/svg">
<path d="M16.67 22.6299H8.33C7.57852 22.6272 6.85872 22.3269 6.32828 21.7945C5.79784 21.2622 5.5 20.5414 5.5 19.7899V5.20988C5.5 4.45932 5.79816 3.7395 6.32889 3.20877C6.85962 2.67804 7.57944 2.37988 8.33 2.37988H16.67C17.4206 2.37988 18.1404 2.67804 18.6711 3.20877C19.2018 3.7395 19.5 4.45932 19.5 5.20988V19.7899C19.5 20.5414 19.2022 21.2622 18.6717 21.7945C18.1413 22.3269 17.4215 22.6272 16.67 22.6299ZM8.33 3.87988C7.97726 3.87988 7.63897 4.02001 7.38955 4.26943C7.14012 4.51885 7 4.85714 7 5.20988V19.7899C6.99999 20.1435 7.13979 20.4829 7.38893 20.7339C7.63807 20.9849 7.97635 21.1272 8.33 21.1299H16.67C17.0237 21.1272 17.3619 20.9849 17.6111 20.7339C17.8602 20.4829 18 20.1435 18 19.7899V5.20988C18 4.85714 17.8599 4.51885 17.6105 4.26943C17.361 4.02001 17.0227 3.87988 16.67 3.87988H8.33Z" fill="#FF562E"/>
<path d="M12.5 19.24C12.2348 19.24 11.9804 19.1346 11.7929 18.9471C11.6054 18.7596 11.5 18.5052 11.5 18.24C11.5 17.9748 11.6054 17.7204 11.7929 17.5329C11.9804 17.3453 12.2348 17.24 12.5 17.24C12.7652 17.24 13.0196 17.3453 13.2071 17.5329C13.3946 17.7204 13.5 17.9748 13.5 18.24C13.5 18.5052 13.3946 18.7596 13.2071 18.9471C13.0196 19.1346 12.7652 19.24 12.5 19.24Z" fill="#FF562E"/>
<path d="M13.8 7H11.2C11.0011 7 10.8103 6.92098 10.6697 6.78033C10.529 6.63968 10.45 6.44891 10.45 6.25C10.45 6.05109 10.529 5.86032 10.6697 5.71967C10.8103 5.57902 11.0011 5.5 11.2 5.5H13.8C13.9989 5.5 14.1897 5.57902 14.3303 5.71967C14.471 5.86032 14.55 6.05109 14.55 6.25C14.55 6.44891 14.471 6.63968 14.3303 6.78033C14.1897 6.92098 13.9989 7 13.8 7Z" fill="#FF562E"/>
</svg>
