<svg width="20" height="20" viewBox="0 0 20 20" fill="none" xmlns="http://www.w3.org/2000/svg">
<path fill-rule="evenodd" clip-rule="evenodd" d="M1.75 7.5C1.75 7.08579 2.08579 6.75 2.5 6.75H17.5C17.9142 6.75 18.25 7.08579 18.25 7.5C18.25 7.91421 17.9142 8.25 17.5 8.25H2.5C2.08579 8.25 1.75 7.91421 1.75 7.5Z" fill="#FF562E"/>
<path fill-rule="evenodd" clip-rule="evenodd" d="M5.08325 10.8334C5.08325 10.4192 5.41904 10.0834 5.83325 10.0834H7.97492C8.38913 10.0834 8.72492 10.4192 8.72492 10.8334C8.72492 11.2476 8.38913 11.5834 7.97492 11.5834H5.83325C5.41904 11.5834 5.08325 11.2476 5.08325 10.8334Z" fill="#FF562E"/>
<path fill-rule="evenodd" clip-rule="evenodd" d="M5 4.91669C4.03338 4.91669 3.25 5.70007 3.25 6.66669V13.3334C3.25 14.3 4.03338 15.0834 5 15.0834H15C15.9666 15.0834 16.75 14.3 16.75 13.3334V6.66669C16.75 5.70007 15.9666 4.91669 15 4.91669H5ZM1.75 6.66669C1.75 4.87164 3.20495 3.41669 5 3.41669H15C16.795 3.41669 18.25 4.87164 18.25 6.66669V13.3334C18.25 15.1284 16.795 16.5834 15 16.5834H5C3.20495 16.5834 1.75 15.1284 1.75 13.3334V6.66669Z" fill="#FF562E"/>
</svg>
