<svg width="25" height="25" viewBox="0 0 25 25" fill="none" xmlns="http://www.w3.org/2000/svg">
<path fill-rule="evenodd" clip-rule="evenodd" d="M15.8384 7.65343C13.5782 5.39327 9.91377 5.39327 7.65362 7.65343C5.39346 9.91359 5.39346 13.578 7.65362 15.8382C9.91377 18.0984 13.5782 18.0984 15.8384 15.8382C18.0985 13.578 18.0985 9.91359 15.8384 7.65343ZM16.899 6.59277C14.0531 3.74683 9.4389 3.74683 6.59296 6.59277C3.74701 9.43872 3.74701 14.0529 6.59296 16.8989C9.4389 19.7448 14.0531 19.7448 16.899 16.8989C19.745 14.0529 19.745 9.43872 16.899 6.59277Z" fill="white"/>
<path fill-rule="evenodd" clip-rule="evenodd" d="M15.8344 15.8342C16.1273 15.5413 16.6022 15.5413 16.8951 15.8342L20.3222 19.2613C20.6151 19.5542 20.6151 20.0291 20.3222 20.322C20.0293 20.6149 19.5544 20.6149 19.2615 20.322L15.8344 16.8949C15.5415 16.602 15.5415 16.1271 15.8344 15.8342Z" fill="white"/>
</svg>
