<svg width="20" height="20" viewBox="0 0 20 20" fill="none" xmlns="http://www.w3.org/2000/svg">
<path fill-rule="evenodd" clip-rule="evenodd" d="M16.792 4.4812C17.2062 4.4812 17.542 4.81699 17.542 5.2312V9.2224C17.542 9.63662 17.2062 9.9724 16.792 9.9724C16.3778 9.9724 16.042 9.63662 16.042 9.2224V5.2312C16.042 4.81699 16.3778 4.4812 16.792 4.4812Z" fill="#FF562E"/>
<path fill-rule="evenodd" clip-rule="evenodd" d="M14.1223 13.4697C14.4152 13.7626 14.4152 14.2374 14.1223 14.5303L13.0526 15.6L14.1223 16.6697C14.4152 16.9626 14.4152 17.4374 14.1223 17.7303C13.8294 18.0232 13.3545 18.0232 13.0616 17.7303L11.4616 16.1303C11.1687 15.8374 11.1687 15.3626 11.4616 15.0697L13.0616 13.4697C13.3545 13.1768 13.8294 13.1768 14.1223 13.4697Z" fill="#FF562E"/>
<path fill-rule="evenodd" clip-rule="evenodd" d="M2.44995 5.23118C2.44995 3.92816 3.50574 2.87238 4.80875 2.87238H15.1912C16.4942 2.87238 17.55 3.92816 17.55 5.23118C17.55 6.01281 17.1618 6.74509 16.5156 7.18373L12.2303 10.088C10.8843 11.0002 9.11728 11.0002 7.77121 10.088L3.48567 7.18328C3.48563 7.18326 3.4857 7.18331 3.48567 7.18328C2.83851 6.74475 2.44995 6.0139 2.44995 5.23118ZM15.1912 4.37238H4.80875C4.33416 4.37238 3.94995 4.75659 3.94995 5.23118C3.94995 5.5156 4.09106 5.78159 4.32704 5.94147L8.61269 8.84631C8.61271 8.84632 8.61267 8.84629 8.61269 8.84631C9.45061 9.41409 10.5509 9.41412 11.3888 8.84631L15.6731 5.94263C15.6732 5.94256 15.6731 5.94269 15.6731 5.94263C15.9084 5.78284 16.05 5.51583 16.05 5.23198C16.05 4.75739 15.6657 4.37238 15.1912 4.37238Z" fill="#FF562E"/>
<path fill-rule="evenodd" clip-rule="evenodd" d="M3.19995 4.4812C3.61416 4.4812 3.94995 4.81699 3.94995 5.2312V12.4224C3.94995 12.8922 4.33016 13.2724 4.79995 13.2724H9.59995C10.0142 13.2724 10.35 13.6082 10.35 14.0224C10.35 14.4366 10.0142 14.7724 9.59995 14.7724H4.79995C3.50174 14.7724 2.44995 13.7206 2.44995 12.4224V5.2312C2.44995 4.81699 2.78574 4.4812 3.19995 4.4812Z" fill="#FF562E"/>
<path fill-rule="evenodd" clip-rule="evenodd" d="M14.4499 12.4224C14.4499 12.0081 14.7857 11.6724 15.1999 11.6724H15.9999C17.2982 11.6724 18.3499 12.7241 18.3499 14.0224C18.3499 15.3206 17.2982 16.3724 15.9999 16.3724H11.9919C11.5777 16.3724 11.2419 16.0366 11.2419 15.6224C11.2419 15.2082 11.5777 14.8724 11.9919 14.8724H15.9999C16.4697 14.8724 16.8499 14.4922 16.8499 14.0224C16.8499 13.5526 16.4697 13.1724 15.9999 13.1724H15.1999C14.7857 13.1724 14.4499 12.8366 14.4499 12.4224Z" fill="#FF562E"/>
</svg>
