<svg width="30" height="30" viewBox="0 0 30 30" fill="none" xmlns="http://www.w3.org/2000/svg">
<g clip-path="url(#clip0_91_1803)">
<path d="M30 6.12134V18.8362C29.9986 20.0789 29.5043 21.2704 28.6255 22.1492C27.7467 23.028 26.5553 23.5223 25.3125 23.5237H20.2441C19.9955 23.5237 19.757 23.4249 19.5812 23.2491C19.4054 23.0733 19.3066 22.8348 19.3066 22.5862C19.3066 22.3375 19.4054 22.0991 19.5812 21.9233C19.757 21.7474 19.9955 21.6487 20.2441 21.6487H25.3125C26.0582 21.6478 26.773 21.3513 27.3003 20.824C27.8276 20.2967 28.1242 19.5818 28.125 18.8362V6.12134C28.1242 5.37567 27.8276 4.66079 27.3003 4.13352C26.773 3.60626 26.0582 3.30968 25.3125 3.30884H4.6875C3.94184 3.30968 3.22695 3.60626 2.69969 4.13352C2.17242 4.66079 1.87584 5.37567 1.875 6.12134V18.8362C1.87584 19.5818 2.17242 20.2967 2.69969 20.824C3.22695 21.3513 3.94184 21.6478 4.6875 21.6487H10.1101C10.3588 21.6487 10.5972 21.7474 10.773 21.9233C10.9488 22.0991 11.0476 22.3375 11.0476 22.5862C11.0476 22.8348 10.9488 23.0733 10.773 23.2491C10.5972 23.4249 10.3588 23.5237 10.1101 23.5237H4.6875C3.44473 23.5223 2.25327 23.028 1.3745 22.1492C0.495725 21.2704 0.00141124 20.0789 0 18.8362V6.12134C0.00139577 4.87856 0.495704 3.68709 1.37448 2.80832C2.25325 1.92954 3.44473 1.43523 4.6875 1.43384H25.3125C26.5553 1.43523 27.7467 1.92954 28.6255 2.80832C29.5043 3.68709 29.9986 4.87856 30 6.12134ZM20.2094 16.6641C20.397 16.5009 20.5121 16.2699 20.5294 16.0218C20.5466 15.7738 20.4647 15.5291 20.3015 15.3415L15.7073 10.0597C15.6193 9.95855 15.5107 9.87743 15.3886 9.82185C15.2666 9.76626 15.1341 9.7375 15 9.7375C14.8659 9.7375 14.7334 9.76626 14.6114 9.82185C14.4893 9.87743 14.3807 9.95855 14.2927 10.0597L9.6985 15.3416C9.53659 15.5294 9.45566 15.7736 9.47343 16.0209C9.49119 16.2682 9.6062 16.4984 9.79328 16.6612C9.98036 16.8239 10.2243 16.9058 10.4717 16.8891C10.719 16.8725 10.9497 16.7584 11.1132 16.5721L14.0625 13.1814V27.6286C14.0625 27.8773 14.1613 28.1157 14.3371 28.2916C14.5129 28.4674 14.7514 28.5661 15 28.5661C15.2486 28.5661 15.4871 28.4674 15.6629 28.2916C15.8387 28.1157 15.9375 27.8773 15.9375 27.6286V13.1814L18.8868 16.5721C18.9676 16.665 19.0659 16.741 19.1761 16.7959C19.2862 16.8508 19.4062 16.8835 19.529 16.892C19.6518 16.9006 19.7751 16.8849 19.8919 16.8458C20.0086 16.8067 20.1165 16.745 20.2094 16.6642V16.6641Z" fill="#FF562E"/>
</g>
<defs>
<clipPath id="clip0_91_1803">
<rect width="30" height="30" fill="white"/>
</clipPath>
</defs>
</svg>
