<svg width="20" height="20" fill="none" xmlns="http://www.w3.org/2000/svg"><path fill-rule="evenodd" clip-rule="evenodd" d="M10.73 7.83a1.032 1.032 0 00-1.46 0l-.53-.53.53.53a1.033 1.033 0 101.46 0zm1.06-1.061a2.532 2.532 0 10-3.58 3.581 2.532 2.532 0 003.582-3.58" fill="#FF562E"/><path fill-rule="evenodd" clip-rule="evenodd" d="M6.567 11.858a4.589 4.589 0 01-1.65-3.51l1.65 3.51zm0 0l1.913 1.594a6.084 6.084 0 011.52 1.9 6.091 6.091 0 011.52-1.9l1.912-1.594a4.587 4.587 0 001.651-3.51C15.075 5.212 12.486 3.362 10 3.362s-5.075 1.85-5.083 4.986m11.666 0v-.015C16.567 4.217 13.14 1.862 10 1.862S3.433 4.217 3.417 8.333v.047a6.089 6.089 0 002.19 4.63l1.913 1.595a4.588 4.588 0 011.415 2.073l.354 1.06a.75.75 0 001.422 0l.354-1.06c.27-.81.76-1.527 1.415-2.074l1.913-1.593a6.087 6.087 0 002.19-4.631v-.032z" fill="#FF562E"/></svg>