<svg width="25" height="25" fill="none" xmlns="http://www.w3.org/2000/svg"><path d="M6.22 7.65a.74.74 0 01-.73-.59l-.57-2.53H3.51a.75.75 0 010-1.5h2a.74.74 0 01.73.58L7 6.74a.75.75 0 01-.57.89.44.44 0 01-.21.02z" fill="#FF562E"/><path d="M17.84 17H9.07a1.81 1.81 0 01-1.75-1.42L5.48 7.06a.79.79 0 01.15-.63.76.76 0 01.59-.28H19.4a1.8 1.8 0 011.76 2.17l-1.57 7.29A1.81 1.81 0 0117.84 17zM7.15 7.65l1.64 7.65a.29.29 0 00.28.23h8.77a.29.29 0 00.28-.24L19.69 8a.32.32 0 00-.06-.24.29.29 0 00-.23-.11H7.15zm11.04 13.93a1.15 1.15 0 01-1.14-1.14 1.14 1.14 0 111.14 1.14zm-8.96 0a1.141 1.141 0 01-1.06-.7 1.09 1.09 0 01-.08-.44 1.07 1.07 0 01.33-.8 1.109 1.109 0 01.81-.34 1.14 1.14 0 110 2.28z" fill="#FF562E"/></svg>