<svg width="25" height="25" fill="none" xmlns="http://www.w3.org/2000/svg"><path d="M12.5 11.75a3.93 3.93 0 01-3.92-3.92h-1.5a5.43 5.43 0 005.42 5.42v-1.5zM8.58 7.83a4 4 0 013.92-3.95v-1.5a5.46 5.46 0 00-5.42 5.45h1.5zm3.92-3.95a3.92 3.92 0 013.92 3.91h1.5a5.43 5.43 0 00-5.42-5.41v1.5zm3.92 3.91a4 4 0 01-3.92 4v1.5a5.47 5.47 0 005.42-5.46l-1.5-.04zm3.37 13.34H5.21v1.5h14.58v-1.5zm-14.58 0a.3.3 0 01-.29-.3h-1.5a1.8 1.8 0 001.79 1.8v-1.5zm-.29-.3v-1h-1.5v1h1.5zm0-1a3.42 3.42 0 013.41-3.41v-1.5a4.93 4.93 0 00-4.91 4.91h1.5zm3.41-3.41h8.34v-1.5H8.33v1.5zm8.34 0a3.42 3.42 0 013.41 3.41h1.5a4.93 4.93 0 00-4.91-4.91v1.5zm3.41 3.41v1h1.5v-1h-1.5zm0 1a.3.3 0 01-.29.3v1.5a1.8 1.8 0 001.79-1.8h-1.5z" fill="#FF562E"/></svg>