<svg width="20" height="20" fill="none" xmlns="http://www.w3.org/2000/svg"><path fill-rule="evenodd" clip-rule="evenodd" d="M3.417 5.833a.75.75 0 01.75-.75h11.666a.75.75 0 010 1.5H4.167a.75.75 0 01-.75-.75z" fill="#686868"/><path fill-rule="evenodd" clip-rule="evenodd" d="M5 5.083a.75.75 0 01.75.75V15c0 .507.41.917.917.917h6.666c.507 0 .917-.41.917-.917V5.833a.75.75 0 011.5 0V15a2.416 2.416 0 01-2.417 2.417H6.667A2.416 2.416 0 014.25 15V5.833a.75.75 0 01.75-.75zm1.75-1.958a.75.75 0 01.75-.75h5a.75.75 0 010 1.5h-5a.75.75 0 01-.75-.75z" fill="#686868"/><path fill-rule="evenodd" clip-rule="evenodd" d="M8.334 8.417a.75.75 0 01.75.75v4.166a.75.75 0 01-1.5 0V9.167a.75.75 0 01.75-.75zm3.333 0a.75.75 0 01.75.75v4.166a.75.75 0 11-1.5 0V9.167a.75.75 0 01.75-.75z" fill="#686868"/></svg>