<svg width="20" height="20" fill="none" xmlns="http://www.w3.org/2000/svg"><path d="M7.5 18.58c-.453 0-.897-.128-1.28-.37l-3.33-2.08a2.39 2.39 0 01-1.14-2V4.17a2.42 2.42 0 013.7-2L8.78 4.2a2.42 2.42 0 011.14 2.05v9.91a2.38 2.38 0 01-1.25 2.11c-.356.203-.76.31-1.17.31zM4.17 3.25a.92.92 0 00-.45.12.9.9 0 00-.47.8v9.91a.91.91 0 00.43.77L7 16.94a.93.93 0 001.41-.78V6.25A.89.89 0 008 5.48L4.65 3.39a1 1 0 00-.48-.14zM17.5 9.92h-5a.75.75 0 110-1.5h5a.75.75 0 110 1.5z" fill="#686868"/><path d="M15.83 11.58a.74.74 0 01-.53-.22.75.75 0 010-1.06l1.14-1.13L15.3 8a.75.75 0 011.06-1L18 8.64a.75.75 0 010 1.06l-1.67 1.66a.71.71 0 01-.5.22zm-3.33 5H9.17a.75.75 0 110-1.5h3.33a.92.92 0 00.92-.91v-.84a.75.75 0 111.5 0v.84a2.42 2.42 0 01-2.42 2.41zm1.67-10.83a.75.75 0 01-.75-.75v-.83a.92.92 0 00-.92-.92H4.17a.75.75 0 010-1.5h8.33a2.42 2.42 0 012.42 2.42V5a.76.76 0 01-.75.75z" fill="#686868"/></svg>