<svg width="20" height="20" fill="none" xmlns="http://www.w3.org/2000/svg"><path fill-rule="evenodd" clip-rule="evenodd" d="M4.167 3.25a.916.916 0 00-.917.917v11.666c0 .507.41.917.917.917h11.666c.507 0 .917-.41.917-.917V4.167a.916.916 0 00-.917-.917H4.167zm-2.417.917A2.416 2.416 0 014.167 1.75h11.666a2.416 2.416 0 012.417 2.417v11.666a2.416 2.416 0 01-2.417 2.417H4.167a2.416 2.416 0 01-2.417-2.417V4.167z" fill="#686868"/><path fill-rule="evenodd" clip-rule="evenodd" d="M5.083 5.833a.75.75 0 01.75-.75h8.334a.75.75 0 010 1.5H5.833a.75.75 0 01-.75-.75zm0 3.334a.75.75 0 01.75-.75h8.334a.75.75 0 010 1.5H5.833a.75.75 0 01-.75-.75zM1.75 12.5a.75.75 0 01.75-.75h3.652c.6 0 1.148.339 1.416.876l.372.744a.084.084 0 00.075.047h3.97c.032 0 .06-.018.074-.046l.373-.746a1.585 1.585 0 011.416-.875H17.5a.75.75 0 010 1.5h-3.652a.084.084 0 00-.075.047l-.372.743a1.583 1.583 0 01-1.416.877h-3.97c-.6 0-1.148-.34-1.416-.875l-.373-.746a.083.083 0 00-.074-.046H2.5a.75.75 0 01-.75-.75z" fill="#686868"/></svg>