<svg width="20" height="20" fill="none" xmlns="http://www.w3.org/2000/svg"><path d="M12.21 8.85a1.06 1.06 0 01-1.06-1.06 1.07 1.07 0 112.13 0 1.07 1.07 0 01-1.07 1.06z" fill="#D3D3D3"/><path d="M5.67 17.83H2.92a.74.74 0 01-.75-.75v-2.75c0-.199.08-.39.22-.53l4.44-4.45a5.63 5.63 0 013.24-6.75 5.6 5.6 0 016.12 1.221 5.62 5.62 0 01-5.58 9.36l-.52.53a.75.75 0 01-.53.22h-.78v.48a.76.76 0 01-.75.75h-.47v.78a.74.74 0 01-.22.52L6.2 17.61a.77.77 0 01-.53.22zm-2-1.5h1.68l.71-.7v-1.22a.75.75 0 01.75-.75h.47v-.48a.76.76 0 01.72-.75h1.25l.64-.64a.72.72 0 01.8-.16 4.13 4.13 0 004.44-6.75 4.11 4.11 0 00-6.74 4.4.76.76 0 01-.17.8l-4.55 4.56v1.69z" fill="#D3D3D3"/></svg>