<svg width="20" height="20" fill="none" xmlns="http://www.w3.org/2000/svg"><path d="M19.316 5.412L14.22.118A.385.385 0 0013.942 0H6.35C5.5 0 4.808.691 4.808 1.54v5.383H1.73c-.636 0-1.153.517-1.153 1.153v5.771c0 .636.517 1.153 1.153 1.153h3.078v3.462c0 .848.691 1.538 1.541 1.538h11.533c.85 0 1.541-.69 1.541-1.537V5.679c0-.1-.038-.195-.107-.267zm-5.277-4.374l4.182 4.347H14.04V1.038zM1.73 14.231a.384.384 0 01-.384-.384V8.076c0-.212.173-.384.384-.384h10.386c.212 0 .384.172.384.384v5.771a.384.384 0 01-.384.384H1.73zm16.924 4.232a.77.77 0 01-.772.768H6.349a.771.771 0 01-.772-.769V15h6.54c.635 0 1.152-.517 1.152-1.153V8.076c0-.636-.517-1.153-1.153-1.153H5.577V1.541c0-.426.347-.772.772-.772h6.92v5c0 .213.173.385.385.385h5v12.309z" fill="#FF562E"/><path d="M5.175 9.762a.866.866 0 00-.475-.324c-.124-.033-.388-.05-.794-.05h-1.07v3.304h.667v-1.246h.435c.302 0 .533-.016.692-.047a.966.966 0 00.346-.157.906.906 0 00.28-.326 1.07 1.07 0 00.11-.511c0-.263-.063-.477-.19-.643zm-.571.909a.438.438 0 01-.209.162c-.088.035-.264.052-.527.052h-.365v-.938h.322c.24 0 .4.008.48.023.108.02.198.068.268.146a.428.428 0 01.106.298.444.444 0 01-.075.257zm3.97-.38a1.444 1.444 0 00-.316-.535 1.105 1.105 0 00-.498-.304 2.38 2.38 0 00-.629-.063H5.912v3.303h1.255c.247 0 .444-.023.59-.07.198-.063.354-.15.47-.263.153-.149.27-.344.353-.584a2.17 2.17 0 00.102-.703c0-.31-.036-.57-.108-.78zm-.65 1.357a.7.7 0 01-.174.319.615.615 0 01-.27.137 1.813 1.813 0 01-.403.032H6.58V9.947h.3c.272 0 .454.011.548.032a.635.635 0 01.308.155.756.756 0 01.19.32c.045.137.067.333.067.589 0 .255-.022.457-.067.605zm3.593-1.701V9.39H9.252v3.303h.667v-1.404h1.38v-.559h-1.38v-.782h1.598z" fill="#FF562E"/></svg>