<svg width="20" height="20" fill="none" xmlns="http://www.w3.org/2000/svg"><path d="M10 9.25a2.995 2.995 0 01-2.986-2.986h-1.5A4.495 4.495 0 0010 10.75v-1.5zM7.014 6.264c0-1.65 1.352-3.014 2.986-3.014v-1.5c-2.477 0-4.486 2.05-4.486 4.514h1.5zM10 3.25a2.995 2.995 0 012.986 2.986h1.5A4.495 4.495 0 0010 1.75v1.5zm2.986 2.986c0 1.65-1.352 3.014-2.986 3.014v1.5c2.477 0 4.486-2.05 4.486-4.514h-1.5zm2.847 10.514H4.167v1.5h11.666v-1.5zm-11.666 0a.08.08 0 01-.059-.025.08.08 0 01-.025-.058h-1.5c0 .872.711 1.583 1.584 1.583v-1.5zm-.084-.083v-.834h-1.5v.834h1.5zm0-.834a2.593 2.593 0 012.584-2.583v-1.5a4.093 4.093 0 00-4.084 4.083h1.5zm2.584-2.583h6.666v-1.5H6.667v1.5zm6.666 0a2.593 2.593 0 012.584 2.583h1.5a4.093 4.093 0 00-4.084-4.083v1.5zm2.584 2.583v.834h1.5v-.834h-1.5zm0 .834c0 .02-.008.04-.025.058a.08.08 0 01-.059.025v1.5c.873 0 1.584-.71 1.584-1.583h-1.5z" fill="#FF562E"/></svg>