<svg width="20" height="20" fill="none" xmlns="http://www.w3.org/2000/svg"><path fill-rule="evenodd" clip-rule="evenodd" d="M1.75 7.5a.75.75 0 01.75-.75h15a.75.75 0 010 1.5h-15a.75.75 0 01-.75-.75zm3.333 3.333a.75.75 0 01.75-.75h2.142a.75.75 0 010 1.5H5.833a.75.75 0 01-.75-.75z" fill="#FF562E"/><path fill-rule="evenodd" clip-rule="evenodd" d="M5 4.917a1.75 1.75 0 00-1.75 1.75v6.666c0 .967.783 1.75 1.75 1.75h10a1.75 1.75 0 001.75-1.75V6.667A1.75 1.75 0 0015 4.917H5zm-3.25 1.75A3.25 3.25 0 015 3.417h10a3.25 3.25 0 013.25 3.25v6.666a3.25 3.25 0 01-3.25 3.25H5a3.25 3.25 0 01-3.25-3.25V6.667z" fill="#FF562E"/></svg>