<svg width="19" height="19" fill="none" xmlns="http://www.w3.org/2000/svg"><path fill-rule="evenodd" clip-rule="evenodd" d="M2.185 4.137c0-1.14.923-2.063 2.063-2.063h7.833a1.98 1.98 0 011.4.58l2.004 2.004-.377.377.377-.377c.371.371.58.875.58 1.4V8.64a.562.562 0 11-1.125 0V6.06a.855.855 0 00-.25-.606l.397-.397-.397.397-2.004-2.003a.856.856 0 00-.605-.251H4.248a.938.938 0 00-.938.938v9.754c0 .518.42.938.938.938H8.75a.562.562 0 110 1.125H4.248a2.063 2.063 0 01-2.063-2.063V4.137z" fill="#fff"/><path fill-rule="evenodd" clip-rule="evenodd" d="M6.494 2.074c.31 0 .562.252.562.562v3.095c0 .052.043.095.095.095h3.938a.094.094 0 00.095-.095V2.636a.563.563 0 011.125 0v3.096a1.22 1.22 0 01-1.22 1.219H7.15a1.22 1.22 0 01-1.219-1.22V2.637c0-.31.252-.562.563-.562zm.123 7.505a.562.562 0 01.043-.002H9.5a.562.562 0 010 1.125H6.686a.424.424 0 00-.375.426v4.264a.563.563 0 01-1.125 0v-4.255a1.549 1.549 0 011.43-1.558zm7.01 1.123a2.814 2.814 0 100 5.628 2.814 2.814 0 000-5.628zm-3.94 2.814a3.939 3.939 0 117.879 0 3.939 3.939 0 01-7.878 0z" fill="#fff"/><path fill-rule="evenodd" clip-rule="evenodd" d="M15.008 13.1a.561.561 0 00-.416-.184.6.6 0 10.6.6.561.561 0 00-.184-.416z" fill="#fff"/><path fill-rule="evenodd" clip-rule="evenodd" d="M14.03 13.479c0-.311.251-.563.562-.563a.6.6 0 01.6.6.562.562 0 01-.979.379.56.56 0 01-.184-.416zm-.952-.379a.561.561 0 00-.416-.184.6.6 0 10.6.6.561.561 0 00-.184-.416z" fill="#fff"/><path fill-rule="evenodd" clip-rule="evenodd" d="M12.1 13.479c0-.311.251-.563.562-.563a.6.6 0 01.6.6.562.562 0 01-.979.379.561.561 0 01-.184-.416z" fill="#fff"/></svg>