<svg width="20" height="20" fill="none" xmlns="http://www.w3.org/2000/svg"><path fill-rule="evenodd" clip-rule="evenodd" d="M3.333 3.667a.084.084 0 00-.083.083v2.11c0 .024.011.048.03.064l5.533 4.61a.75.75 0 01.27.577v4.758l1.787-.893a.084.084 0 00.047-.074V11.11a.75.75 0 01.27-.576l5.533-4.611c.02-.016.03-.04.03-.064V3.75a.084.084 0 00-.083-.083H3.333zM1.75 3.75c0-.874.71-1.583 1.583-1.583h13.334c.874 0 1.583.709 1.583 1.583v2.11c0 .47-.21.916-.57 1.216l-5.263 4.386v3.44c0 .6-.34 1.148-.876 1.416l-2.27 1.134a1.166 1.166 0 01-1.688-1.043v-4.947L2.32 7.076c-.361-.3-.57-.747-.57-1.216V3.75z" fill="#FF562E"/><path fill-rule="evenodd" clip-rule="evenodd" d="M1.85 6.25a.75.75 0 01.75-.75h14.8a.75.75 0 010 1.5H2.6a.75.75 0 01-.75-.75z" fill="#FF562E"/></svg>