<svg width="20" height="20" fill="none" xmlns="http://www.w3.org/2000/svg"><path fill-rule="evenodd" clip-rule="evenodd" d="M6.667 3.25a.084.084 0 00-.084.083v3.334a.75.75 0 11-1.5 0V3.333c0-.874.71-1.583 1.584-1.583h6.666c.874 0 1.584.71 1.584 1.583v3.334a.75.75 0 01-1.5 0V3.333a.084.084 0 00-.084-.083H6.667z" fill="#FF562E"/><path fill-rule="evenodd" clip-rule="evenodd" d="M4.167 7.417a.916.916 0 00-.917.916V12.5c0 .507.41.917.917.917h1.666a.75.75 0 010 1.5H4.167A2.416 2.416 0 011.75 12.5V8.333a2.416 2.416 0 012.417-2.416h11.666a2.416 2.416 0 012.417 2.416V12.5a2.416 2.416 0 01-2.417 2.417h-1.666a.75.75 0 010-1.5h1.666c.507 0 .917-.41.917-.917V8.333a.916.916 0 00-.917-.916H4.167z" fill="#FF562E"/><path fill-rule="evenodd" clip-rule="evenodd" d="M5.083 11.5a.75.75 0 01.75-.75h8.334a.75.75 0 01.75.75v5.167c0 .874-.71 1.583-1.584 1.583H6.667c-.875 0-1.584-.71-1.584-1.583V11.5zm1.5.75v4.417c0 .045.038.083.084.083h6.666a.084.084 0 00.084-.083V12.25H6.583zm-1.5-3.083a.75.75 0 01.75-.75h.834a.75.75 0 110 1.5h-.834a.75.75 0 01-.75-.75z" fill="#FF562E"/></svg>