<svg width="20" height="20" fill="none" xmlns="http://www.w3.org/2000/svg"><path fill-rule="evenodd" clip-rule="evenodd" d="M16.792 4.481a.75.75 0 01.75.75v3.991a.75.75 0 01-1.5 0v-3.99a.75.75 0 01.75-.75zm-2.67 8.989a.75.75 0 010 1.06l-1.07 1.07 1.07 1.07a.75.75 0 11-1.06 1.06l-1.6-1.6a.75.75 0 010-1.06l1.6-1.6a.75.75 0 011.06 0z" fill="#FF562E"/><path fill-rule="evenodd" clip-rule="evenodd" d="M2.45 5.231a2.358 2.358 0 012.359-2.359H15.19a2.358 2.358 0 011.325 4.312l-4.286 2.904a3.975 3.975 0 01-4.459 0L3.486 7.183A2.358 2.358 0 012.45 5.231zm12.741-.859H4.81a.858.858 0 00-.482 1.57l4.286 2.904a2.475 2.475 0 002.776 0l4.284-2.903a.86.86 0 00-.482-1.57z" fill="#FF562E"/><path fill-rule="evenodd" clip-rule="evenodd" d="M3.2 4.481a.75.75 0 01.75.75v7.191c0 .47.38.85.85.85h4.8a.75.75 0 110 1.5H4.8a2.35 2.35 0 01-2.35-2.35v-7.19a.75.75 0 01.75-.75zm11.25 7.941a.75.75 0 01.75-.75h.8a2.35 2.35 0 110 4.7h-4.008a.75.75 0 010-1.5H16a.85.85 0 100-1.7h-.8a.75.75 0 01-.75-.75z" fill="#FF562E"/></svg>