<svg width="58" height="58" viewBox="0 0 58 58" fill="none" xmlns="http://www.w3.org/2000/svg">
<path d="M29 0C13.0098 0 0 13.0087 0 29C0 44.9913 13.0098 58 29 58C44.9902 58 58 44.9913 58 29C58 13.0087 44.9902 0 29 0ZM29 55.7692C14.2401 55.7692 2.23077 43.7599 2.23077 29C2.23077 14.2401 14.2401 2.23077 29 2.23077C43.7599 2.23077 55.7692 14.2401 55.7692 29C55.7692 43.7599 43.7599 55.7692 29 55.7692Z" fill="#0071BB"/>
<path d="M42.6655 17.1055L25.5232 36.3905L15.1958 28.1289C14.7162 27.7441 14.0124 27.8233 13.6287 28.3029C13.2439 28.7847 13.322 29.4863 13.8027 29.8711L24.9566 38.7942C25.1618 38.9581 25.4083 39.0384 25.6537 39.0384C25.9615 39.0384 26.2683 38.9113 26.488 38.6637L44.3341 18.5868C44.7435 18.1272 44.7022 17.4212 44.2416 17.0129C43.7798 16.6025 43.076 16.6438 42.6655 17.1055Z" fill="#0071BB"/>
</svg>
