<svg width="20" height="20" fill="none" xmlns="http://www.w3.org/2000/svg"><path fill-rule="evenodd" clip-rule="evenodd" d="M10 11.75a.75.75 0 01.75.75v4.167a.75.75 0 01-1.5 0V12.5a.75.75 0 01.75-.75z" fill="#FF562E"/><path fill-rule="evenodd" clip-rule="evenodd" d="M4.667 4.167c0-.875.709-1.584 1.583-1.584h7.5c.874 0 1.583.71 1.583 1.584v.387c0 .53-.264 1.023-.703 1.317l-1.797 1.197v1.713l2.256 1.611a1.574 1.574 0 01-.914 2.858h-8.35a1.575 1.575 0 01-.915-2.857L7.167 8.78V7.068L5.372 5.872a1.584 1.584 0 01-.705-1.318v-.387zm1.158 7.583h8.35a.075.075 0 00.044-.136l-2.572-1.837a.75.75 0 01-.314-.61v-2.5a.75.75 0 01.334-.624l2.128-1.419a.085.085 0 00.038-.07v-.387a.084.084 0 00-.083-.084h-7.5a.084.084 0 00-.083.084v.387c0 .029.014.055.036.069l2.13 1.42a.75.75 0 01.334.624v2.5a.75.75 0 01-.314.61l-2.571 1.837a.075.075 0 00.043.136z" fill="#FF562E"/></svg>