<svg width="20" height="20" fill="none" xmlns="http://www.w3.org/2000/svg"><path fill-rule="evenodd" clip-rule="evenodd" d="M3.417 4.167A2.416 2.416 0 015.833 1.75h5.977c.64 0 1.256.255 1.709.708l2.356 2.357c.453.453.708 1.068.708 1.708v9.31a2.416 2.416 0 01-2.416 2.417H5.833a2.416 2.416 0 01-2.416-2.417V4.167zm2.416-.917a.916.916 0 00-.916.917v11.666c0 .507.41.917.916.917h8.334c.506 0 .916-.41.916-.917v-9.31a.917.917 0 00-.268-.648L12.458 3.52a.917.917 0 00-.648-.269H5.833z" fill="#686868"/><path fill-rule="evenodd" clip-rule="evenodd" d="M11.667 1.75a.75.75 0 01.75.75v3.333c0 .046.037.084.083.084h3.333a.75.75 0 010 1.5H12.5c-.874 0-1.583-.71-1.583-1.584V2.5a.75.75 0 01.75-.75zM6.546 13.605a.754.754 0 111.066 1.067.754.754 0 01-1.066-1.067zm-.629-4.442a.75.75 0 01.75-.75h6.666a.75.75 0 010 1.5H6.667a.75.75 0 01-.75-.75zm0 2.5a.75.75 0 01.75-.75h6.666a.75.75 0 010 1.5H6.667a.75.75 0 01-.75-.75zm6.463 1.97a.754.754 0 111.066 1.067.754.754 0 01-1.067-1.067zm-2.913-.008a.754.754 0 111.066 1.067.754.754 0 01-1.066-1.067z" fill="#686868"/></svg>