<svg width="20" height="20" fill="none" xmlns="http://www.w3.org/2000/svg"><path fill-rule="evenodd" clip-rule="evenodd" d="M8.335 2.448l-.918 1.148v.57c0 .047.037.084.083.084h5a.084.084 0 00.083-.083v-.57l-.918-1.149a.084.084 0 00-.065-.031H8.4a.084.084 0 00-.065.031zm4.998.885l.586-.468-1.083-1.354A1.584 1.584 0 0011.6.916H8.4c-.48 0-.935.218-1.235.593L6.08 2.865a.75.75 0 00-.164.472v-.004h.75v.75a.75.75 0 01-.75-.746v.83c0 .874.709 1.583 1.583 1.583h5c.874 0 1.583-.709 1.583-1.583v-.834h-.75z" fill="#FF562E"/><path fill-rule="evenodd" clip-rule="evenodd" d="M2.583 5A2.416 2.416 0 015 2.583h1.667a.75.75 0 110 1.5H5A.916.916 0 004.083 5v10.834c0 .506.41.916.917.916h10c.507 0 .917-.41.917-.916V5A.916.916 0 0015 4.083h-1.667a.75.75 0 110-1.5H15A2.416 2.416 0 0117.417 5v10.834A2.416 2.416 0 0115 18.25H5a2.416 2.416 0 01-2.417-2.416V5z" fill="#FF562E"/><path fill-rule="evenodd" clip-rule="evenodd" d="M5.917 9.167a.75.75 0 01.75-.75h6.666a.75.75 0 010 1.5H6.666a.75.75 0 01-.75-.75zm0 4.167a.75.75 0 01.75-.75h6.666a.75.75 0 010 1.5H6.666a.75.75 0 01-.75-.75z" fill="#FF562E"/></svg>