<svg width="30" height="30" fill="none" xmlns="http://www.w3.org/2000/svg"><path fill-rule="evenodd" clip-rule="evenodd" d="M15 8a.75.75 0 01.75.75v8.75a.75.75 0 01-1.5 0V8.75A.75.75 0 0115 8z" fill="#FF562E"/><path fill-rule="evenodd" clip-rule="evenodd" d="M10.72 13.22a.75.75 0 011.06 0L15 16.44l3.22-3.22a.75.75 0 111.06 1.06l-3.75 3.75a.75.75 0 01-1.06 0l-3.75-3.75a.75.75 0 010-1.06zm-.22 8.03a.75.75 0 01.75-.75h7.5a.75.75 0 010 1.5h-7.5a.75.75 0 01-.75-.75z" fill="#FF562E"/><path fill-rule="evenodd" clip-rule="evenodd" d="M22.425 7.575c-4.1-4.1-10.75-4.1-14.85 0s-4.1 10.75 0 14.85l-.53.53.53-.53c4.1 4.1 10.75 4.1 14.85 0s4.1-10.749 0-14.85zm1.06-1.061c-4.687-4.686-12.284-4.685-16.97 0-4.687 4.687-4.687 12.285 0 16.971 4.686 4.687 12.284 4.687 16.97 0 4.687-4.686 4.687-12.284 0-16.97v-.001zm-16.97 0l.53.531-.53-.53z" fill="#FF562E"/></svg>