<svg width="20" height="20" fill="none" xmlns="http://www.w3.org/2000/svg"><path fill-rule="evenodd" clip-rule="evenodd" d="M14.773 5.227a6.75 6.75 0 00-9.546 9.546l-.475.475.475-.475a6.75 6.75 0 109.546-9.546zm1.06-1.06a8.25 8.25 0 00-11.667 0h11.668zm0 0a8.25 8.25 0 11-11.667 0" fill="#FF562E"/><path fill-rule="evenodd" clip-rule="evenodd" d="M4.843 15.894c.424-2.028 2.723-3.31 5.157-3.31s4.733 1.282 5.157 3.31a.75.75 0 11-1.469.307c-.216-1.039-1.613-2.118-3.688-2.118s-3.472 1.079-3.688 2.118a.75.75 0 01-1.469-.307zm6.394-8.798A1.75 1.75 0 108.763 9.57a1.75 1.75 0 002.474-2.475zm1.061-1.06a3.25 3.25 0 10-4.596 4.595 3.25 3.25 0 004.596-4.596z" fill="#FF562E"/></svg>