<svg width="20" height="20" fill="none" xmlns="http://www.w3.org/2000/svg"><path fill-rule="evenodd" clip-rule="evenodd" d="M6.92 4.083c-2.123 0-3.67 2.03-3.67 4.046 0 .975.383 1.95 1.024 2.893.64.943 1.508 1.813 2.406 2.56a21.377 21.377 0 002.483 1.77 16.75 16.75 0 00.837.483 21.374 21.374 0 003.32-2.253c.898-.747 1.767-1.617 2.406-2.56.641-.944 1.024-1.918 1.024-2.893 0-2.016-1.547-4.046-3.67-4.046-1.232 0-2.033.605-2.51 1.163a.75.75 0 01-1.14 0c-.477-.558-1.278-1.163-2.51-1.163zM1.75 8.13c0-2.609 2.001-5.546 5.17-5.546A4.66 4.66 0 0110 3.704a4.658 4.658 0 013.08-1.12c3.169 0 5.17 2.937 5.17 5.546 0 1.373-.538 2.639-1.282 3.736-.746 1.098-1.727 2.07-2.688 2.87a22.872 22.872 0 01-2.66 1.898c-.367.224-.678.4-.906.521a7.392 7.392 0 01-.393.194 1.157 1.157 0 01-.14.047.77.77 0 01-.362 0 .871.871 0 01-.14-.047 7.396 7.396 0 01-.393-.194c-.228-.122-.54-.297-.906-.521a22.878 22.878 0 01-2.66-1.898c-.961-.8-1.942-1.772-2.688-2.87C2.288 10.768 1.75 9.503 1.75 8.13z" fill="#686868"/></svg>