<svg width="61" height="44" viewBox="0 0 61 44" fill="none" xmlns="http://www.w3.org/2000/svg">
<g clip-path="url(#clip0_869_115)">
<path d="M38.9042 43.4466C39.3588 41.8235 39.7808 40.2054 40.263 38.6204C41.1245 35.7806 41.9283 32.9178 42.938 30.1339C43.4931 28.6098 42.9707 27.9443 41.6822 27.3753C38.1934 25.8512 35.541 23.3974 34.1243 19.7854C31.2132 12.3454 34.3755 3.8893 42.2699 0.891958C49.7348 -1.9479 58.0059 2.37793 60.2866 9.74937C61.7133 14.3597 61.0251 18.7007 58.2772 22.7218C54.0851 28.8816 49.9533 35.0871 45.7914 41.2647C43.6915 44.3763 43.9302 44.4068 38.9042 43.4466Z" fill="#B18E6D"/>
<path d="M5.85491 43.4466C6.30702 41.8235 6.729 40.2054 7.21377 38.6204C8.07278 35.7806 8.87906 32.9178 9.88877 30.1339C10.4414 28.6098 9.92143 27.9443 8.63291 27.3753C5.14662 25.8512 2.49169 23.3974 1.07759 19.7854C-1.83603 12.3454 1.32877 3.8893 9.22064 0.891958C16.688 -1.9479 24.9567 2.37793 27.2373 9.74937C28.664 14.3597 27.9758 18.7007 25.2279 22.7218C21.0333 28.8816 16.9015 35.0871 12.7396 41.2647C10.6398 44.3763 10.8809 44.4068 5.85491 43.4466Z" fill="#B18E6D"/>
</g>
<defs>
<clipPath id="clip0_869_115">
<rect width="61" height="44" fill="white"/>
</clipPath>
</defs>
</svg>
