<svg width="20" height="20" fill="none" xmlns="http://www.w3.org/2000/svg"><path fill-rule="evenodd" clip-rule="evenodd" d="M2.367 6.506a2.416 2.416 0 012.41-2.256h8.549c1.272 0 2.326.986 2.41 2.256l.064.944a.75.75 0 01-1.497.1l-.063-.944a.916.916 0 00-.914-.856H4.777a.916.916 0 00-.914.856l-.61 9.167a.916.916 0 00.914.977H5a.75.75 0 010 1.5h-.833a2.416 2.416 0 01-2.411-2.576l.61-9.168zm-.611 9.168z" fill="#686868"/><path fill-rule="evenodd" clip-rule="evenodd" d="M9.052 2.417a1.75 1.75 0 00-1.75 1.75V5a.75.75 0 11-1.5 0v-.833a3.25 3.25 0 116.5 0V5a.75.75 0 01-1.5 0v-.833a1.75 1.75 0 00-1.75-1.75zm-.446 8.655v5.356c0 .178.144.322.322.322h7.5a.32.32 0 00.322-.32v-5.358a.32.32 0 00-.322-.322h-7.5a.322.322 0 00-.322.322zm.322-1.822c-1.006 0-1.82.815-1.822 1.82v5.358c0 1.007.817 1.822 1.822 1.822h7.5a1.82 1.82 0 001.822-1.82v-5.358a1.82 1.82 0 00-1.822-1.822h-7.5z" fill="#686868"/><path fill-rule="evenodd" clip-rule="evenodd" d="M10.803 11.75a.75.75 0 01.75.75 1.125 1.125 0 102.25 0 .75.75 0 011.5 0 2.625 2.625 0 11-5.25 0 .75.75 0 01.75-.75z" fill="#686868"/></svg>