<svg width="20" height="20" fill="none" xmlns="http://www.w3.org/2000/svg"><path fill-rule="evenodd" clip-rule="evenodd" d="M14.17 9.917c-1.84-.002-3.42 1.578-3.42 3.417a3.416 3.416 0 103.42-3.417zm-.003 8.333a4.916 4.916 0 01-4.917-4.916c0-2.668 2.253-4.92 4.921-4.917a4.916 4.916 0 01-.004 9.833zM.917 5.708a.75.75 0 01.75-.75H17.5a.75.75 0 010 1.5H1.667a.75.75 0 01-.75-.75z" fill="#686868"/><path fill-rule="evenodd" clip-rule="evenodd" d="M.917 4.167A2.416 2.416 0 013.333 1.75h12.5a2.416 2.416 0 012.417 2.417v6.666a.75.75 0 01-1.5 0V4.167a.916.916 0 00-.917-.917h-12.5a.916.916 0 00-.916.917v7.5c0 .506.41.916.916.916H10a.75.75 0 010 1.5H3.333a2.416 2.416 0 01-2.416-2.416v-7.5z" fill="#686868"/><path fill-rule="evenodd" clip-rule="evenodd" d="M16.549 11.877a.75.75 0 010 1.06l-2.315 2.316a.75.75 0 01-1.061 0l-1.388-1.39a.75.75 0 011.06-1.06l.859.859 1.784-1.785a.75.75 0 011.06 0z" fill="#686868"/></svg>