<svg width="30" height="30" fill="none" xmlns="http://www.w3.org/2000/svg"><g clip-path="url(#clip0_91_1803)"><path d="M30 6.121v12.715a4.693 4.693 0 01-4.688 4.688h-5.068a.938.938 0 010-1.875h5.069a2.816 2.816 0 002.812-2.813V6.121a2.815 2.815 0 00-2.813-2.812H4.688A2.816 2.816 0 001.876 6.12v12.715a2.816 2.816 0 002.813 2.813h5.422a.937.937 0 110 1.875H4.688A4.693 4.693 0 010 18.836V6.121a4.693 4.693 0 014.688-4.687h20.625A4.693 4.693 0 0130 6.12zm-9.79 10.543a.938.938 0 00.091-1.323l-4.594-5.281a.937.937 0 00-1.414 0l-4.595 5.282a.937.937 0 001.415 1.23l2.95-3.39v14.447a.938.938 0 001.874 0V13.18l2.95 3.391a.937.937 0 001.322.092z" fill="#FF562E"/></g><defs><clipPath id="clip0_91_1803"><path fill="#fff" d="M0 0h30v30H0z"/></clipPath></defs></svg>