<svg width="20" height="20" fill="none" xmlns="http://www.w3.org/2000/svg"><path d="M13.659.717a.313.313 0 00-.222-.092h-8.75A2.19 2.19 0 002.5 2.813v14.374a2.19 2.19 0 002.188 2.188h10.625a2.19 2.19 0 002.187-2.188v-12.5a.313.313 0 00-.091-.22l-3.75-3.75zm.091.975l2.683 2.683h-1.12a1.564 1.564 0 01-1.563-1.563v-1.12zM4.687 1.25h8.438v1.563A2.19 2.19 0 0015.313 5h1.562v8.75H3.125V2.812A1.564 1.564 0 014.688 1.25zm10.625 17.5H4.688a1.564 1.564 0 01-1.563-1.563v-2.812h13.75v2.813a1.564 1.564 0 01-1.563 1.562z" fill="#FF562E"/><path d="M10.625 17.5h-.938v-2.188a.313.313 0 10-.624 0v2.5a.313.313 0 00.312.313h1.25a.313.313 0 100-.625zm-2.36-2.467a.312.312 0 00-.42.14l-.345.69-.345-.69a.313.313 0 00-.56.28l.556 1.11-.555 1.11a.313.313 0 10.559.28l.345-.692.346.691a.312.312 0 00.592-.161.313.313 0 00-.033-.118l-.556-1.11.556-1.11a.313.313 0 00-.14-.42zm4.235.592h.625a.313.313 0 100-.625H12.5a.938.938 0 000 1.875.313.313 0 110 .625h-.625a.313.313 0 100 .625h.625a.938.938 0 000-1.875.313.313 0 110-.625zm-7.187-3.75h9.375a.313.313 0 00.312-.313V5.939a.312.312 0 00-.313-.313H5.313A.312.312 0 005 5.938v5.625a.313.313 0 00.313.312zM5.625 10h2.5v1.25h-2.5V10zm5.625-1.875v1.25h-2.5v-1.25h2.5zM8.75 7.5V6.25h2.5V7.5h-2.5zm3.125.625h2.5v1.25h-2.5v-1.25zM11.25 10v1.25h-2.5V10h2.5zm-3.125-.625h-2.5v-1.25h2.5v1.25zm3.75 1.875V10h2.5v1.25h-2.5zm2.5-3.75h-2.5V6.25h2.5V7.5zm-6.25-1.25V7.5h-2.5V6.25h2.5z" fill="#FF562E"/></svg>