<?xml version="1.0" encoding="UTF-8"?>
<svg width="59px" height="59px" viewBox="0 0 59 59" version="1.1" xmlns="http://www.w3.org/2000/svg" xmlns:xlink="http://www.w3.org/1999/xlink">
    <!-- Generator: Sketch 60.1 (88133) - https://sketch.com -->
    <title>3</title>
    <desc>Created with Sketch.</desc>
    <g id="Symbols" stroke="none" stroke-width="1" fill="none" fill-rule="evenodd">
        <g id="отзывы-copy-2" transform="translate(-168.000000, -24.000000)">
            <g id="iconfinder_Measuring_tape_tool_measure_engineer_engineering_ruler_technician_measurement_equipment_4960339" transform="translate(103.000000, 27.000000)"></g>
            <g id="3" transform="translate(176.000000, 31.000000)" fill="#000000" fill-rule="nonzero">
                <path d="M29.2604727,16.2213333 L14.1150103,28.2574624 C13.8141071,28.5082151 13.713806,29.0097204 14.0147093,29.3106237 C14.1651609,29.5112258 14.365763,29.6115269 14.6165157,29.6115269 C14.7669673,29.6115269 14.9675695,29.5613763 15.0678706,29.4610753 L30.2133329,17.4249462 C30.5142361,17.1741935 30.6145372,16.6726882 30.313634,16.3717849 C30.0628813,16.0207312 29.6115265,15.9705806 29.2604727,16.2213333 Z" id="Path"></path>
                <path d="M18.1772043,21.5874409 C18.3778065,21.5874409 18.5784086,21.5874409 18.7790108,21.5372903 C20.8351828,21.2363871 22.2895484,19.2805161 21.9384946,17.1741935 C21.788043,16.1711828 21.2363871,15.2684731 20.4339785,14.6666667 C19.6315699,14.0648602 18.6285591,13.8141075 17.6255484,13.9645591 C16.6225376,14.1150108 15.719828,14.6666667 15.1180215,15.4690753 C14.5162151,16.2714839 14.2654624,17.2744946 14.415914,18.2775054 C14.7168172,20.2333763 16.371785,21.5874409 18.1772043,21.5874409 Z M17.8261505,15.5192258 C17.9264516,15.5192258 18.0769032,15.4690753 18.1772043,15.4690753 C19.2805161,15.4690753 20.2835269,16.2714839 20.4339785,17.4249462 C20.6345806,18.6787097 19.7820215,19.832172 18.5282581,20.0327742 C17.2744946,20.2333763 16.1210323,19.3808172 15.9204301,18.1270538 C15.719828,16.8732903 16.6225376,15.719828 17.8261505,15.5192258 Z" id="Shape"></path>
                <path d="M26.2012906,24.0949677 C24.0949681,24.0949677 22.3898498,25.800086 22.3898498,27.9064086 C22.3898498,30.0127312 24.0949681,31.7178495 26.2012906,31.7178495 C28.3076132,31.7178495 30.0127315,30.0127312 30.0127315,27.9064086 C29.962581,25.800086 28.2574627,24.0949677 26.2012906,24.0949677 Z M26.2012906,30.1631828 C24.9475272,30.1631828 23.8943659,29.1100215 23.8943659,27.8562581 C23.8943659,26.6024946 24.9475272,25.5493333 26.2012906,25.5493333 C27.4550541,25.5493333 28.5082154,26.6024946 28.5082154,27.8562581 C28.4580648,29.160172 27.4550541,30.1631828 26.2012906,30.1631828 Z" id="Shape"></path>
                <path d="M43.2141561,21.8996989 C43.2141561,21.8524242 43.2614237,21.7578748 43.2614237,21.7106 C43.2614237,19.6777871 41.1343798,18.6377432 39.2909418,17.7395235 C37.9674478,17.0776774 36.5494186,16.3685566 36.1712774,15.5176116 C35.7931363,14.6193919 36.3130804,13.1538756 36.8330244,11.7829087 C37.5420391,9.84464516 38.2510537,7.8591069 36.9275597,6.53541472 C35.6040657,5.21172254 33.7133601,5.68446975 31.8226544,6.10994224 C30.4991605,6.39359056 29.1283988,6.7245136 28.2303137,6.34631584 C27.3322285,5.96811807 26.5759462,4.78625006 25.8669316,3.65165676 C24.8270435,2.04431626 23.6926201,0.20060216 21.7073791,0.20060216 C19.7221382,0.20060216 18.5877148,2.04431626 17.5950943,3.69893149 C16.8860797,4.8807995 16.177065,6.06266752 15.2789798,6.44086528 C14.3808947,6.81906305 12.9628654,6.48814 11.6393714,6.15721696 C9.74866577,5.68446975 7.81069246,5.21172254 6.53446614,6.48814 C5.21097217,7.81183218 5.87271916,9.79737044 6.4871985,11.735634 C6.95987491,13.1538756 7.38528369,14.5721172 7.00714256,15.5176116 C6.62900142,16.4158313 5.30550746,17.0776774 4.02928113,17.7395235 C2.23311075,18.6850179 0.20060216,19.7250618 0.20060216,21.7106 C0.20060216,21.7578748 0.20060216,21.8524242 0.247869802,21.8996989 C0.247869802,21.9469736 0.20060216,22.0415231 0.20060216,22.0887978 C0.20060216,24.0743361 2.23311075,25.1616546 4.02928113,26.0598743 C5.30550746,26.7217204 6.62900142,27.3835665 7.00714256,28.2817862 C7.38528369,29.1800059 6.91260727,30.6455222 6.4871985,32.0637639 C5.87271916,34.0020274 5.21097217,35.9875657 6.53446614,37.3112578 C7.85796011,38.63495 9.79593341,38.1149281 11.6393714,37.6421809 C12.9628654,37.3112578 14.3808947,36.9803348 15.2789798,37.3585326 C16.177065,37.7367303 16.8860797,38.9185983 17.5950943,40.1004664 C18.5877148,41.7550816 19.7221382,43.5987957 21.7073791,43.5987957 C23.6926201,43.5987957 24.8743111,41.7550816 25.8669316,40.1477411 C26.5759462,39.0131478 27.3322285,37.8312798 28.2303137,37.453082 C29.1756665,37.0748842 30.4991605,37.3585326 31.8226544,37.6894556 C33.6660924,38.1149281 35.6040657,38.5876753 36.9275597,37.2639831 C38.2510537,35.9402909 37.5420391,33.9547527 36.8330244,32.0164891 C36.3130804,30.5982475 35.7931363,29.1800059 36.1712774,28.2817862 C36.5494186,27.3835665 37.9201802,26.7217204 39.2909418,26.0598743 C41.1343798,25.1143799 43.2614237,24.0743361 43.2614237,22.0887978 C43.2614237,21.9942484 43.2141561,21.9469736 43.2141561,21.8996989 Z M38.6291948,24.7834569 C37.0693626,25.5871271 35.4149952,26.3907974 34.8477835,27.7617643 C34.2333041,29.1800059 34.8950511,30.8818958 35.4622628,32.5365111 C36.0294745,34.0965768 36.5966862,35.6093679 35.8876716,36.271214 C35.1313893,37.0276095 33.6660924,36.6966865 32.1062603,36.3184887 C30.5464281,35.9402909 28.9865959,35.6093679 27.6158343,36.1766645 C26.2923403,36.7439612 25.4415228,38.0676534 24.6379729,39.3913455 C23.7398877,40.8095872 22.8890701,42.1805541 21.6601115,42.1805541 C20.4784204,42.1805541 19.6276029,40.8095872 18.7295177,39.3440708 C17.9259678,37.9731039 17.0751502,36.602137 15.7516563,36.0348404 C14.3808947,35.4675437 12.7737948,35.8457415 11.2139627,36.271214 C9.65413049,36.6494118 8.1888336,37.0276095 7.43255133,36.3184887 C6.72353671,35.6093679 7.19621312,34.0965768 7.71615718,32.5365111 C8.23610124,30.8818958 8.80331294,29.1800059 8.1888336,27.809039 C7.6216219,26.4380721 6.06178972,25.6344018 4.54922519,24.8780063 C2.98939302,24.0743361 1.52409613,23.3179405 1.52409613,22.1360725 C1.52409613,22.0887978 1.52409613,21.9942484 1.47682848,21.9469736 C1.47682848,21.8996989 1.52409613,21.8051495 1.52409613,21.7578748 C1.52409613,20.6232815 2.98939302,19.8668859 4.54922519,19.015941 C6.06178972,18.2595454 7.6216219,17.4558752 8.1888336,16.0849083 C8.7560453,14.6666667 8.23610124,12.9647767 7.71615718,11.3574362 C7.19621312,9.75009572 6.72353671,8.23730466 7.43255133,7.57545858 C8.1888336,6.81906305 9.65413049,7.19726081 11.2139627,7.6227333 C12.7737948,8.00093106 14.3808947,8.42640355 15.7516563,7.8591069 C17.0751502,7.29181025 17.9259678,5.92084335 18.7295177,4.54987646 C19.6276029,3.08436012 20.4311528,1.71339322 21.6601115,1.71339322 C22.8890701,1.71339322 23.7398877,3.08436012 24.6379729,4.50260174 C25.4887904,5.82629391 26.339608,7.14998609 27.6158343,7.71728274 C28.9865959,8.28457938 30.5464281,7.90638162 32.1062603,7.57545858 C33.6660924,7.19726081 35.1313893,6.86633777 35.8876716,7.6227333 C36.5966862,8.28457938 36.0294745,9.79737044 35.4622628,11.3574362 C34.8477835,13.0120514 34.2333041,14.7139414 34.8477835,16.132183 C35.4149952,17.5031499 37.0693626,18.3068202 38.6291948,19.1104904 C40.2835623,19.9141607 41.7961268,20.7178309 41.7961268,21.8524242 C41.7961268,21.8996989 41.7961268,21.9942484 41.8433944,22.0415231 C41.8433944,22.0887978 41.7961268,22.1833472 41.7961268,22.230622 C41.8433944,23.1761164 40.2835623,23.9797866 38.6291948,24.7834569 Z" id="Shape" stroke="#000000" stroke-width="0.3"></path>
            </g>
        </g>
    </g>
</svg>